STARTFONT 2.1
FONT -HP-Gothic-Medium-R-Normal--18-130-100-100-C-180-JISX0212.1990-0
SIZE 13 100 100
FONTBOUNDINGBOX 18 18 0 -2

STARTPROPERTIES 23
FONTNAME_REGISTRY ""
FOUNDRY "HP"
FAMILY_NAME "Gothic"
WEIGHT_NAME "Medium"
SLANT "R"
SETWIDTH_NAME "Normal"
ADD_STYLE_NAME ""
PIXEL_SIZE 18
POINT_SIZE 130
RESOLUTION_X 100
RESOLUTION_Y 100
SPACING "C"
AVERAGE_WIDTH 180
CHARSET_REGISTRY "JISX0212.1990"
CHARSET_ENCODING "0"
COPYRIGHT "Copyright 1994 by Bridge Inc. All rights reserved. Copyright (c) 1994 Hewlett-Packard Company."
_HP_ASXVERSION "@(#) ASX 3.00 $Revision: 13.9 $ gotX18s"
WEIGHT 10
X_HEIGHT 16
QUAD_WIDTH 18
DEFAULT_CHAR 8481
FONT_DESCENT 2
FONT_ASCENT 16
ENDPROPERTIES

CHARS 6068

STARTCHAR jisx0212_2121
ENCODING 8481
SWIDTH 960 0
DWIDTH 18 0
BBX 18 18 0 -2
BITMAP
000000
000000
200100
000000
000000
000000
000000
000000
000000
000000
000000
000000
000000
000000
000000
200100
000000
000000
ENDCHAR

STARTCHAR jisx0212_222F
ENCODING 8751
SWIDTH 960 0
DWIDTH 18 0
BBX 18 18 0 -2
BITMAP
000000
040800
021000
01E000
000000
000000
000000
000000
000000
000000
000000
000000
000000
000000
000000
000000
000000
000000
ENDCHAR

STARTCHAR jisx0212_2230
ENCODING 8752
SWIDTH 960 0
DWIDTH 18 0
BBX 18 18 0 -2
BITMAP
000000
021000
012000
00C000
000000
000000
000000
000000
000000
000000
000000
000000
000000
000000
000000
000000
000000
000000
ENDCHAR

STARTCHAR jisx0212_2231
ENCODING 8753
SWIDTH 960 0
DWIDTH 18 0
BBX 18 18 0 -2
BITMAP
000000
000000
000000
000000
000000
000000
000000
000000
000000
000000
000000
000000
004000
008000
00C000
022000
01C000
000000
ENDCHAR

STARTCHAR jisx0212_2232
ENCODING 8754
SWIDTH 960 0
DWIDTH 18 0
BBX 18 18 0 -2
BITMAP
000000
00C000
01E000
00C000
000000
000000
000000
000000
000000
000000
000000
000000
000000
000000
000000
000000
000000
000000
ENDCHAR

STARTCHAR jisx0212_2233
ENCODING 8755
SWIDTH 960 0
DWIDTH 18 0
BBX 18 18 0 -2
BITMAP
000000
011000
022000
022000
044000
000000
000000
000000
000000
000000
000000
000000
000000
000000
000000
000000
000000
000000
ENDCHAR

STARTCHAR jisx0212_2234
ENCODING 8756
SWIDTH 960 0
DWIDTH 18 0
BBX 18 18 0 -2
BITMAP
000000
07F800
000000
000000
000000
000000
000000
000000
000000
000000
000000
000000
000000
000000
000000
000000
000000
000000
ENDCHAR

STARTCHAR jisx0212_2235
ENCODING 8757
SWIDTH 960 0
DWIDTH 18 0
BBX 18 18 0 -2
BITMAP
000000
000000
000000
000000
000000
000000
000000
000000
000000
000000
000000
000000
000800
001000
002000
002000
001C00
000000
ENDCHAR

STARTCHAR jisx0212_2236
ENCODING 8758
SWIDTH 960 0
DWIDTH 18 0
BBX 18 18 0 -2
BITMAP
000000
00C000
012000
012000
00C000
000000
000000
000000
000000
000000
000000
000000
000000
000000
000000
000000
000000
000000
ENDCHAR

STARTCHAR jisx0212_2237
ENCODING 8759
SWIDTH 960 0
DWIDTH 18 0
BBX 18 18 0 -2
BITMAP
000000
038800
047000
000000
000000
000000
000000
000000
000000
000000
000000
000000
000000
000000
000000
000000
000000
000000
ENDCHAR

STARTCHAR jisx0212_2238
ENCODING 8760
SWIDTH 960 0
DWIDTH 18 0
BBX 18 18 0 -2
BITMAP
000000
008000
008000
008000
008000
008000
008000
000000
000000
000000
000000
000000
000000
000000
000000
000000
000000
000000
ENDCHAR

STARTCHAR jisx0212_2239
ENCODING 8761
SWIDTH 960 0
DWIDTH 18 0
BBX 18 18 0 -2
BITMAP
000000
008000
008000
008000
008000
008000
063000
063000
000000
000000
000000
000000
000000
000000
000000
000000
000000
000000
ENDCHAR

STARTCHAR jisx0212_2242
ENCODING 8770
SWIDTH 960 0
DWIDTH 18 0
BBX 18 18 0 -2
BITMAP
000000
000000
00C000
00C000
000000
000000
008000
008000
008000
008000
008000
008000
008000
008000
008000
008000
000000
000000
ENDCHAR

STARTCHAR jisx0212_2243
ENCODING 8771
SWIDTH 960 0
DWIDTH 18 0
BBX 18 18 0 -2
BITMAP
000000
008000
008000
008000
008000
008000
008000
008000
000000
000000
008000
008000
008000
008000
008000
008000
008000
000000
ENDCHAR

STARTCHAR jisx0212_2244
ENCODING 8772
SWIDTH 960 0
DWIDTH 18 0
BBX 18 18 0 -2
BITMAP
000000
000000
00C000
00C000
000000
000000
004000
004000
004000
008000
010000
020800
040800
040800
021000
01E000
000000
000000
ENDCHAR

STARTCHAR jisx0212_226B
ENCODING 8811
SWIDTH 960 0
DWIDTH 18 0
BBX 18 18 0 -2
BITMAP
000000
000000
0E0000
110000
208000
208000
208000
208000
110000
0E0000
000000
7FC000
000000
000000
000000
000000
000000
000000
ENDCHAR

STARTCHAR jisx0212_226C
ENCODING 8812
SWIDTH 960 0
DWIDTH 18 0
BBX 18 18 0 -2
BITMAP
000000
000000
1F0000
208000
008000
0F8000
108000
208000
218000
1E8000
000000
7FC000
000000
000000
000000
000000
000000
000000
ENDCHAR

STARTCHAR jisx0212_226D
ENCODING 8813
SWIDTH 960 0
DWIDTH 18 0
BBX 18 18 0 -2
BITMAP
000000
03F000
0C0C00
100200
21E100
221100
440880
440080
440080
440080
440080
440880
221100
21E100
100200
0C0C00
03F000
000000
ENDCHAR

STARTCHAR jisx0212_226E
ENCODING 8814
SWIDTH 960 0
DWIDTH 18 0
BBX 18 18 0 -2
BITMAP
000000
03F000
0C0C00
100200
23F100
220900
420880
420880
43F080
422080
421080
421080
220900
220900
100200
0C0C00
03F000
000000
ENDCHAR

STARTCHAR jisx0212_226F
ENCODING 8815
SWIDTH 960 0
DWIDTH 18 0
BBX 18 18 0 -2
BITMAP
000000
7D0400
118C00
118C00
115400
115400
112400
112400
000000
000000
000000
000000
000000
000000
000000
000000
000000
000000
ENDCHAR

STARTCHAR jisx0212_2270
ENCODING 8816
SWIDTH 960 0
DWIDTH 18 0
BBX 18 18 0 -2
BITMAP
000000
000000
000000
100200
09E400
061800
040800
080400
080400
080400
080400
040800
061800
09E400
100200
000000
000000
000000
ENDCHAR

STARTCHAR jisx0212_2271
ENCODING 8817
SWIDTH 960 0
DWIDTH 18 0
BBX 18 18 0 -2
BITMAP
000000
000000
204600
304900
305080
285080
285080
245080
244900
224600
224000
214000
214000
20C000
20C000
204000
000000
000000
ENDCHAR

STARTCHAR jisx0212_2661
ENCODING 9825
SWIDTH 960 0
DWIDTH 18 0
BBX 18 18 0 -2
BITMAP
000000
080000
08C000
08C000
08C000
092000
012000
021000
021000
040800
040800
040800
0FFC00
080400
100200
100200
000000
000000
ENDCHAR

STARTCHAR jisx0212_2662
ENCODING 9826
SWIDTH 960 0
DWIDTH 18 0
BBX 18 18 0 -2
BITMAP
000000
200000
23FF00
220000
220000
220000
020000
020000
03FE00
020000
020000
020000
020000
020000
020000
03FF00
000000
000000
ENDCHAR

STARTCHAR jisx0212_2663
ENCODING 9827
SWIDTH 960 0
DWIDTH 18 0
BBX 18 18 0 -2
BITMAP
000000
200000
220100
220100
220100
220100
020100
020100
03FF00
020100
020100
020100
020100
020100
020100
020100
000000
000000
ENDCHAR

STARTCHAR jisx0212_2664
ENCODING 9828
SWIDTH 960 0
DWIDTH 18 0
BBX 18 18 0 -2
BITMAP
000000
020000
022000
022000
022000
022000
002000
002000
002000
002000
002000
002000
002000
002000
002000
002000
000000
000000
ENDCHAR

STARTCHAR jisx0212_2665
ENCODING 9829
SWIDTH 960 0
DWIDTH 18 0
BBX 18 18 0 -2
BITMAP
000000
066000
066000
000000
008000
008000
008000
008000
008000
008000
008000
008000
008000
008000
008000
008000
000000
000000
ENDCHAR

STARTCHAR jisx0212_2667
ENCODING 9831
SWIDTH 960 0
DWIDTH 18 0
BBX 18 18 0 -2
BITMAP
000000
200000
20F000
230C00
240200
240200
080100
080100
080100
080100
080100
080100
040200
040200
030C00
00F000
000000
000000
ENDCHAR

STARTCHAR jisx0212_2669
ENCODING 9833
SWIDTH 960 0
DWIDTH 18 0
BBX 18 18 0 -2
BITMAP
000000
200000
238E00
245100
282080
282080
002000
002000
002000
002000
002000
002000
002000
002000
002000
002000
000000
000000
ENDCHAR

STARTCHAR jisx0212_266A
ENCODING 9834
SWIDTH 960 0
DWIDTH 18 0
BBX 18 18 0 -2
BITMAP
000000
063000
063000
000000
0E3800
114400
208200
208200
008000
008000
008000
008000
008000
008000
008000
008000
000000
000000
ENDCHAR

STARTCHAR jisx0212_266C
ENCODING 9836
SWIDTH 960 0
DWIDTH 18 0
BBX 18 18 0 -2
BITMAP
000000
200000
20F000
230C00
240200
240200
080100
080100
080100
080100
040200
040200
020400
010800
009000
0F9F00
000000
000000
ENDCHAR

STARTCHAR jisx0212_2671
ENCODING 9841
SWIDTH 960 0
DWIDTH 18 0
BBX 18 18 0 -2
BITMAP
000000
008000
008000
008000
008000
000000
01C400
022400
041400
041400
081800
081800
081000
083000
045200
038C00
000000
000000
ENDCHAR

STARTCHAR jisx0212_2672
ENCODING 9842
SWIDTH 960 0
DWIDTH 18 0
BBX 18 18 0 -2
BITMAP
000000
008000
008000
008000
008000
000000
01F000
020800
020000
020000
03E000
040000
080000
080800
081000
07E000
000000
000000
ENDCHAR

STARTCHAR jisx0212_2673
ENCODING 9843
SWIDTH 960 0
DWIDTH 18 0
BBX 18 18 0 -2
BITMAP
000000
008000
008000
008000
008000
000000
067800
098400
010400
010400
020400
020800
020800
040800
041000
001000
001000
000000
ENDCHAR

STARTCHAR jisx0212_2674
ENCODING 9844
SWIDTH 960 0
DWIDTH 18 0
BBX 18 18 0 -2
BITMAP
000000
008000
008000
008000
008000
000000
008000
008000
008000
010000
010000
010000
020000
022000
024000
018000
000000
000000
ENDCHAR

STARTCHAR jisx0212_2675
ENCODING 9845
SWIDTH 960 0
DWIDTH 18 0
BBX 18 18 0 -2
BITMAP
000000
000000
033000
033000
000000
000000
008000
008000
008000
010000
010000
010000
020000
022000
024000
018000
000000
000000
ENDCHAR

STARTCHAR jisx0212_2676
ENCODING 9846
SWIDTH 960 0
DWIDTH 18 0
BBX 18 18 0 -2
BITMAP
000000
008000
008000
008000
063000
063000
008000
008000
008000
010000
010000
010000
020000
022000
024000
018000
000000
000000
ENDCHAR

STARTCHAR jisx0212_2677
ENCODING 9847
SWIDTH 960 0
DWIDTH 18 0
BBX 18 18 0 -2
BITMAP
000000
008000
008000
008000
008000
000000
01F000
020800
040400
040400
080400
080400
080800
080800
041000
03E000
000000
000000
ENDCHAR

STARTCHAR jisx0212_2678
ENCODING 9848
SWIDTH 960 0
DWIDTH 18 0
BBX 18 18 0 -2
BITMAP
000000
000000
000000
000000
000000
000000
01F000
020800
040400
040400
040800
020000
010000
008000
004000
044000
038000
000000
ENDCHAR

STARTCHAR jisx0212_2679
ENCODING 9849
SWIDTH 960 0
DWIDTH 18 0
BBX 18 18 0 -2
BITMAP
000000
008000
008000
008000
008000
000000
041000
040800
040800
040800
040800
080800
081000
081000
082000
07C000
000000
000000
ENDCHAR

STARTCHAR jisx0212_267A
ENCODING 9850
SWIDTH 960 0
DWIDTH 18 0
BBX 18 18 0 -2
BITMAP
000000
000000
033000
033000
000000
000000
041000
040800
040800
040800
040800
080800
081000
081000
082000
07C000
000000
000000
ENDCHAR

STARTCHAR jisx0212_267B
ENCODING 9851
SWIDTH 960 0
DWIDTH 18 0
BBX 18 18 0 -2
BITMAP
000000
008000
008000
008000
063000
063000
000000
041000
040800
040800
040800
080800
081000
081000
082000
07C000
000000
000000
ENDCHAR

STARTCHAR jisx0212_267C
ENCODING 9852
SWIDTH 960 0
DWIDTH 18 0
BBX 18 18 0 -2
BITMAP
000000
004000
004000
004000
004000
000000
010800
020400
040200
084200
084200
104200
108200
108400
118800
0E7000
000000
000000
ENDCHAR

STARTCHAR jisx0212_2742
ENCODING 10050
SWIDTH 960 0
DWIDTH 18 0
BBX 18 18 0 -2
BITMAP
000000
000000
3FF800
010000
010000
010000
013C00
014200
018100
010100
010100
010100
010100
011100
011200
010C00
000000
000000
ENDCHAR

STARTCHAR jisx0212_2743
ENCODING 10051
SWIDTH 960 0
DWIDTH 18 0
BBX 18 18 0 -2
BITMAP
000000
006000
018000
000000
07FC00
040000
040000
040000
040000
040000
040000
040000
040000
040000
040000
040000
000000
000000
ENDCHAR

STARTCHAR jisx0212_2744
ENCODING 10052
SWIDTH 960 0
DWIDTH 18 0
BBX 18 18 0 -2
BITMAP
000000
000000
01E000
061800
080400
080400
100200
100000
1FF000
100000
100000
100200
080400
080400
061800
01E000
000000
000000
ENDCHAR

STARTCHAR jisx0212_2745
ENCODING 10053
SWIDTH 960 0
DWIDTH 18 0
BBX 18 18 0 -2
BITMAP
000000
000000
03F000
040800
080400
080400
080000
060000
01C000
003800
000400
000200
080200
080200
040400
03F800
000000
000000
ENDCHAR

STARTCHAR jisx0212_2746
ENCODING 10054
SWIDTH 960 0
DWIDTH 18 0
BBX 18 18 0 -2
BITMAP
000000
000000
008000
008000
008000
008000
008000
008000
008000
008000
008000
008000
008000
008000
008000
008000
000000
000000
ENDCHAR

STARTCHAR jisx0212_2747
ENCODING 10055
SWIDTH 960 0
DWIDTH 18 0
BBX 18 18 0 -2
BITMAP
000000
066000
066000
000000
008000
008000
008000
008000
008000
008000
008000
008000
008000
008000
008000
008000
000000
000000
ENDCHAR

STARTCHAR jisx0212_2748
ENCODING 10056
SWIDTH 960 0
DWIDTH 18 0
BBX 18 18 0 -2
BITMAP
000000
000000
001000
001000
001000
001000
001000
001000
001000
001000
001000
001000
081000
081000
042000
03C000
000000
000000
ENDCHAR

STARTCHAR jisx0212_2749
ENCODING 10057
SWIDTH 960 0
DWIDTH 18 0
BBX 18 18 0 -2
BITMAP
000000
000000
022000
022000
022000
022000
022000
022000
023E00
022100
022080
022080
022080
422080
422100
3C3E00
000000
000000
ENDCHAR

STARTCHAR jisx0212_274A
ENCODING 10058
SWIDTH 960 0
DWIDTH 18 0
BBX 18 18 0 -2
BITMAP
000000
000000
204000
204000
204000
204000
204000
204000
3FFE00
204100
204080
204080
204080
204080
204100
207E00
000000
000000
ENDCHAR

STARTCHAR jisx0212_274B
ENCODING 10059
SWIDTH 960 0
DWIDTH 18 0
BBX 18 18 0 -2
BITMAP
000000
000000
3FF800
010000
010000
010000
017C00
018200
010200
010200
010200
010200
010200
010200
010200
010200
000000
000000
ENDCHAR

STARTCHAR jisx0212_274C
ENCODING 10060
SWIDTH 960 0
DWIDTH 18 0
BBX 18 18 0 -2
BITMAP
000000
00C000
0B0800
081000
082000
084000
088000
0F0000
088000
084000
084000
082000
081000
081000
080800
080400
000000
000000
ENDCHAR

STARTCHAR jisx0212_274D
ENCODING 10061
SWIDTH 960 0
DWIDTH 18 0
BBX 18 18 0 -2
BITMAP
000000
022000
11C400
080800
080800
041000
041000
022000
022000
014000
014000
008000
008000
010000
010000
0E0000
000000
000000
ENDCHAR

STARTCHAR jisx0212_274E
ENCODING 10062
SWIDTH 960 0
DWIDTH 18 0
BBX 18 18 0 -2
BITMAP
000000
000000
100400
100400
100400
100400
100400
100400
100400
100400
100400
100400
100400
100400
1FFC00
008000
008000
000000
ENDCHAR

STARTCHAR jisx0212_2772
ENCODING 10098
SWIDTH 960 0
DWIDTH 18 0
BBX 18 18 0 -2
BITMAP
000000
000000
040000
040000
1F0000
040000
05F000
060800
040800
040800
040800
040800
040800
040800
040800
040800
007000
000000
ENDCHAR

STARTCHAR jisx0212_2773
ENCODING 10099
SWIDTH 960 0
DWIDTH 18 0
BBX 18 18 0 -2
BITMAP
000000
000000
003000
00C000
000000
000000
03F800
020000
020000
020000
020000
020000
020000
020000
020000
020000
000000
000000
ENDCHAR

STARTCHAR jisx0212_2774
ENCODING 10100
SWIDTH 960 0
DWIDTH 18 0
BBX 18 18 0 -2
BITMAP
000000
000000
000000
000000
000000
000000
01F000
020800
040400
040000
07F000
040000
040000
040400
020800
01F000
000000
000000
ENDCHAR

STARTCHAR jisx0212_2775
ENCODING 10101
SWIDTH 960 0
DWIDTH 18 0
BBX 18 18 0 -2
BITMAP
000000
000000
000000
000000
000000
000000
03F000
040800
040800
040000
038000
007000
000800
040800
040800
03F000
000000
000000
ENDCHAR

STARTCHAR jisx0212_2776
ENCODING 10102
SWIDTH 960 0
DWIDTH 18 0
BBX 18 18 0 -2
BITMAP
000000
000000
018000
018000
000000
000000
008000
008000
008000
008000
008000
008000
008000
008000
008000
008000
000000
000000
ENDCHAR

STARTCHAR jisx0212_2777
ENCODING 10103
SWIDTH 960 0
DWIDTH 18 0
BBX 18 18 0 -2
BITMAP
000000
000000
066000
066000
000000
000000
008000
008000
008000
008000
008000
008000
008000
008000
008000
008000
000000
000000
ENDCHAR

STARTCHAR jisx0212_2778
ENCODING 10104
SWIDTH 960 0
DWIDTH 18 0
BBX 18 18 0 -2
BITMAP
000000
000000
00C000
00C000
000000
000000
004000
004000
004000
004000
004000
004000
004000
004000
004000
004000
038000
000000
ENDCHAR

STARTCHAR jisx0212_2779
ENCODING 10105
SWIDTH 960 0
DWIDTH 18 0
BBX 18 18 0 -2
BITMAP
000000
000000
000000
000000
000000
000000
024000
024000
024000
024000
027E00
024100
024100
224100
224100
1C7E00
000000
000000
ENDCHAR

STARTCHAR jisx0212_277A
ENCODING 10106
SWIDTH 960 0
DWIDTH 18 0
BBX 18 18 0 -2
BITMAP
000000
000000
000000
000000
000000
000000
104000
104000
104000
104000
1FFE00
104100
104100
104100
104100
107E00
000000
000000
ENDCHAR

STARTCHAR jisx0212_277B
ENCODING 10107
SWIDTH 960 0
DWIDTH 18 0
BBX 18 18 0 -2
BITMAP
000000
000000
040000
040000
1FC000
040000
05F000
060800
040800
040800
040800
040800
040800
040800
040800
040800
000000
000000
ENDCHAR

STARTCHAR jisx0212_277C
ENCODING 10108
SWIDTH 960 0
DWIDTH 18 0
BBX 18 18 0 -2
BITMAP
000000
000000
006000
018000
000000
000000
041800
042000
042000
042000
07C000
042000
041000
041000
040800
040800
000000
000000
ENDCHAR

STARTCHAR jisx0212_277D
ENCODING 10109
SWIDTH 960 0
DWIDTH 18 0
BBX 18 18 0 -2
BITMAP
000000
000000
022000
01C000
000000
000000
040800
040800
021000
021000
012000
012000
00C000
00C000
008000
008000
070000
000000
ENDCHAR

STARTCHAR jisx0212_277E
ENCODING 10110
SWIDTH 960 0
DWIDTH 18 0
BBX 18 18 0 -2
BITMAP
000000
000000
000000
000000
000000
000000
041000
041000
041000
041000
041000
041000
041000
041000
07F000
008000
008000
000000
ENDCHAR

STARTCHAR jisx0212_2921
ENCODING 10529
SWIDTH 960 0
DWIDTH 18 0
BBX 18 18 0 -2
BITMAP
000000
000000
01FF80
014000
024000
024000
044000
044000
087F00
084000
1FC000
104000
204000
204000
404000
407F80
000000
000000
ENDCHAR

STARTCHAR jisx0212_2922
ENCODING 10530
SWIDTH 960 0
DWIDTH 18 0
BBX 18 18 0 -2
BITMAP
000000
000000
0FE000
081800
080400
080400
080200
080200
7F0200
080200
080200
080200
080400
080400
081800
0FE000
000000
000000
ENDCHAR

STARTCHAR jisx0212_2924
ENCODING 10532
SWIDTH 960 0
DWIDTH 18 0
BBX 18 18 0 -2
BITMAP
000000
000000
080400
080400
7FFF80
080400
080400
080400
0FFC00
080400
080400
080400
080400
080400
080400
080400
000000
000000
ENDCHAR

STARTCHAR jisx0212_2926
ENCODING 10534
SWIDTH 960 0
DWIDTH 18 0
BBX 18 18 0 -2
BITMAP
000000
000000
080400
080400
080400
080400
080400
080400
080400
080400
080400
080400
090400
090400
088800
087000
000000
000000
ENDCHAR

STARTCHAR jisx0212_2928
ENCODING 10536
SWIDTH 960 0
DWIDTH 18 0
BBX 18 18 0 -2
BITMAP
000000
000000
040000
040000
040000
048000
050000
060000
040000
0C0000
140000
240000
040000
040000
040000
07FE00
000000
000000
ENDCHAR

STARTCHAR jisx0212_2929
ENCODING 10537
SWIDTH 960 0
DWIDTH 18 0
BBX 18 18 0 -2
BITMAP
000000
000000
040000
040000
040000
040000
040000
040000
04C000
04C000
040000
040000
040000
040000
040000
07FE00
000000
000000
ENDCHAR

STARTCHAR jisx0212_292B
ENCODING 10539
SWIDTH 960 0
DWIDTH 18 0
BBX 18 18 0 -2
BITMAP
000000
000000
04F000
050800
060400
040400
040400
040400
040400
040400
040400
040400
040400
048400
048800
047000
000000
000000
ENDCHAR

STARTCHAR jisx0212_292C
ENCODING 10540
SWIDTH 960 0
DWIDTH 18 0
BBX 18 18 0 -2
BITMAP
000000
000000
01E100
061A00
080400
080C00
101200
102200
104200
108200
110200
120200
0C0400
080400
161800
21E000
000000
000000
ENDCHAR

STARTCHAR jisx0212_292D
ENCODING 10541
SWIDTH 960 0
DWIDTH 18 0
BBX 18 18 0 -2
BITMAP
000000
000000
07FF80
184000
204000
204000
404000
404000
407F00
404000
404000
404000
204000
204000
184000
07FF80
000000
000000
ENDCHAR

STARTCHAR jisx0212_292F
ENCODING 10543
SWIDTH 960 0
DWIDTH 18 0
BBX 18 18 0 -2
BITMAP
000000
000000
1FFC00
008000
008000
008000
008000
008000
07F000
008000
008000
008000
008000
008000
008000
008000
000000
000000
ENDCHAR

STARTCHAR jisx0212_2930
ENCODING 10544
SWIDTH 960 0
DWIDTH 18 0
BBX 18 18 0 -2
BITMAP
000000
000000
040000
040000
040000
07F000
040800
040400
040400
040400
040800
07F000
040000
040000
040000
040000
000000
000000
ENDCHAR

STARTCHAR jisx0212_2941
ENCODING 10561
SWIDTH 960 0
DWIDTH 18 0
BBX 18 18 0 -2
BITMAP
000000
000000
000000
000000
000000
000000
0E3C00
114200
208100
008100
07FF00
188000
208000
208100
214200
1E3C00
000000
000000
ENDCHAR

STARTCHAR jisx0212_2942
ENCODING 10562
SWIDTH 960 0
DWIDTH 18 0
BBX 18 18 0 -2
BITMAP
000000
000000
000800
000800
00FE00
000800
01E800
021800
040800
040800
040800
040800
040800
040800
021800
01E800
000000
000000
ENDCHAR

STARTCHAR jisx0212_2943
ENCODING 10563
SWIDTH 960 0
DWIDTH 18 0
BBX 18 18 0 -2
BITMAP
000000
000000
073000
00C000
034000
002000
01F000
021000
040800
040800
040800
040800
040800
040800
021000
01E000
000000
000000
ENDCHAR

STARTCHAR jisx0212_2944
ENCODING 10564
SWIDTH 960 0
DWIDTH 18 0
BBX 18 18 0 -2
BITMAP
000000
000000
040000
040000
1FE000
040000
05F000
060800
040800
040800
040800
040800
040800
040800
040800
040800
000000
000000
ENDCHAR

STARTCHAR jisx0212_2945
ENCODING 10565
SWIDTH 960 0
DWIDTH 18 0
BBX 18 18 0 -2
BITMAP
000000
000000
000000
000000
000000
000000
008000
008000
008000
008000
008000
008000
008000
008000
008000
008000
000000
000000
ENDCHAR

STARTCHAR jisx0212_2946
ENCODING 10566
SWIDTH 960 0
DWIDTH 18 0
BBX 18 18 0 -2
BITMAP
000000
000000
061800
061800
000000
000000
020800
020800
020800
020800
020800
020800
020800
020800
020800
020800
007000
000000
ENDCHAR

STARTCHAR jisx0212_2947
ENCODING 10567
SWIDTH 960 0
DWIDTH 18 0
BBX 18 18 0 -2
BITMAP
000000
000000
000000
000000
000000
000000
020800
021000
022000
024000
028000
034000
022000
021000
020800
020400
000000
000000
ENDCHAR

STARTCHAR jisx0212_2948
ENCODING 10568
SWIDTH 960 0
DWIDTH 18 0
BBX 18 18 0 -2
BITMAP
000000
000000
008000
008000
008000
008000
009000
00A000
00C000
008000
018000
028000
048000
008000
008000
00E000
000000
000000
ENDCHAR

STARTCHAR jisx0212_2949
ENCODING 10569
SWIDTH 960 0
DWIDTH 18 0
BBX 18 18 0 -2
BITMAP
000000
000000
010000
010000
010000
010000
010000
010000
013000
013000
010000
010000
010000
010000
010000
01C000
000000
000000
ENDCHAR

STARTCHAR jisx0212_294A
ENCODING 10570
SWIDTH 960 0
DWIDTH 18 0
BBX 18 18 0 -2
BITMAP
000000
000000
000000
000000
000000
100000
117C00
118200
110200
110200
010200
010200
010200
010200
010200
010200
000000
000000
ENDCHAR

STARTCHAR jisx0212_294B
ENCODING 10571
SWIDTH 960 0
DWIDTH 18 0
BBX 18 18 0 -2
BITMAP
000000
000000
000000
000000
000000
000000
05F000
060800
040800
040800
040800
040800
040800
040800
040800
040800
007000
000000
ENDCHAR

STARTCHAR jisx0212_294C
ENCODING 10572
SWIDTH 960 0
DWIDTH 18 0
BBX 18 18 0 -2
BITMAP
000000
000000
000000
000000
000000
000000
03E800
041000
082800
084800
088800
088800
090800
0A0800
041000
0BE000
000000
000000
ENDCHAR

STARTCHAR jisx0212_294D
ENCODING 10573
SWIDTH 960 0
DWIDTH 18 0
BBX 18 18 0 -2
BITMAP
000000
000000
000000
000000
000000
000000
0F1C00
10A200
204100
204100
207F00
204000
204000
204100
10A200
0F1C00
000000
000000
ENDCHAR

STARTCHAR jisx0212_294E
ENCODING 10574
SWIDTH 960 0
DWIDTH 18 0
BBX 18 18 0 -2
BITMAP
000000
000000
01E000
021000
040800
040800
040800
041000
04E000
041000
040800
040400
040400
050400
050800
04F000
000000
000000
ENDCHAR

STARTCHAR jisx0212_294F
ENCODING 10575
SWIDTH 960 0
DWIDTH 18 0
BBX 18 18 0 -2
BITMAP
000000
000000
008000
008000
008000
008000
03F000
008000
008000
03E000
008000
008000
008000
008000
008000
007000
000000
000000
ENDCHAR

STARTCHAR jisx0212_2950
ENCODING 10576
SWIDTH 960 0
DWIDTH 18 0
BBX 18 18 0 -2
BITMAP
000000
000000
020000
020000
020000
020000
02F000
030800
020400
020400
020400
020400
020400
030800
02F000
020000
020000
000000
ENDCHAR

STARTCHAR jisx0212_2A21
ENCODING 10785
SWIDTH 960 0
DWIDTH 18 0
BBX 18 18 0 -2
BITMAP
000000
006000
018000
000000
00C000
00C000
012000
012000
021000
021000
040800
040800
0FFC00
080400
100200
100200
000000
000000
ENDCHAR

STARTCHAR jisx0212_2A22
ENCODING 10786
SWIDTH 960 0
DWIDTH 18 0
BBX 18 18 0 -2
BITMAP
000000
018000
006000
000000
00C000
00C000
012000
012000
021000
021000
040800
040800
0FFC00
080400
100200
100200
000000
000000
ENDCHAR

STARTCHAR jisx0212_2A23
ENCODING 10787
SWIDTH 960 0
DWIDTH 18 0
BBX 18 18 0 -2
BITMAP
000000
033000
033000
000000
00C000
00C000
012000
012000
021000
021000
040800
040800
0FFC00
080400
100200
100200
000000
000000
ENDCHAR

STARTCHAR jisx0212_2A24
ENCODING 10788
SWIDTH 960 0
DWIDTH 18 0
BBX 18 18 0 -2
BITMAP
000000
00C000
033000
000000
00C000
00C000
012000
012000
021000
021000
040800
040800
0FFC00
080400
100200
100200
000000
000000
ENDCHAR

STARTCHAR jisx0212_2A25
ENCODING 10789
SWIDTH 960 0
DWIDTH 18 0
BBX 18 18 0 -2
BITMAP
000000
022000
01C000
000000
00C000
00C000
012000
012000
021000
021000
040800
040800
0FFC00
080400
100200
100200
000000
000000
ENDCHAR

STARTCHAR jisx0212_2A26
ENCODING 10790
SWIDTH 960 0
DWIDTH 18 0
BBX 18 18 0 -2
BITMAP
000000
033000
00C000
000000
00C000
00C000
012000
012000
021000
021000
040800
040800
0FFC00
080400
100200
100200
000000
000000
ENDCHAR

STARTCHAR jisx0212_2A27
ENCODING 10791
SWIDTH 960 0
DWIDTH 18 0
BBX 18 18 0 -2
BITMAP
000000
03F000
000000
000000
00C000
00C000
012000
012000
021000
021000
040800
040800
0FFC00
080400
100200
100200
000000
000000
ENDCHAR

STARTCHAR jisx0212_2A28
ENCODING 10792
SWIDTH 960 0
DWIDTH 18 0
BBX 18 18 0 -2
BITMAP
000000
000000
00C000
00C000
012000
012000
021000
021000
040800
040800
040800
0FFC00
080400
100200
100600
000800
000700
000000
ENDCHAR

STARTCHAR jisx0212_2A29
ENCODING 10793
SWIDTH 960 0
DWIDTH 18 0
BBX 18 18 0 -2
BITMAP
000000
00C000
012000
012000
00C000
00C000
012000
012000
021000
021000
040800
040800
0FFC00
080400
100200
100200
000000
000000
ENDCHAR

STARTCHAR jisx0212_2A2A
ENCODING 10794
SWIDTH 960 0
DWIDTH 18 0
BBX 18 18 0 -2
BITMAP
000000
019000
026000
000000
00C000
00C000
012000
012000
021000
021000
040800
040800
0FFC00
080400
100200
100200
000000
000000
ENDCHAR

STARTCHAR jisx0212_2A2B
ENCODING 10795
SWIDTH 960 0
DWIDTH 18 0
BBX 18 18 0 -2
BITMAP
000000
006000
018000
000000
01F000
060800
040400
080200
080000
080000
080000
080000
080200
040400
060800
01F000
000000
000000
ENDCHAR

STARTCHAR jisx0212_2A2C
ENCODING 10796
SWIDTH 960 0
DWIDTH 18 0
BBX 18 18 0 -2
BITMAP
000000
00C000
033000
000000
01F000
060800
040400
080200
080000
080000
080000
080000
080200
040400
060800
01F000
000000
000000
ENDCHAR

STARTCHAR jisx0212_2A2D
ENCODING 10797
SWIDTH 960 0
DWIDTH 18 0
BBX 18 18 0 -2
BITMAP
000000
033000
00C000
000000
01F000
060800
040400
080200
080000
080000
080000
080000
080200
040400
060800
01F000
000000
000000
ENDCHAR

STARTCHAR jisx0212_2A2E
ENCODING 10798
SWIDTH 960 0
DWIDTH 18 0
BBX 18 18 0 -2
BITMAP
000000
000000
01F000
060800
040400
080200
080000
080000
080000
080000
080200
040400
060800
01F000
004000
002000
01C000
000000
ENDCHAR

STARTCHAR jisx0212_2A2F
ENCODING 10799
SWIDTH 960 0
DWIDTH 18 0
BBX 18 18 0 -2
BITMAP
000000
00C000
00C000
000000
01F000
060800
040400
080200
080000
080000
080000
080000
080200
040400
060800
01F000
000000
000000
ENDCHAR

STARTCHAR jisx0212_2A30
ENCODING 10800
SWIDTH 960 0
DWIDTH 18 0
BBX 18 18 0 -2
BITMAP
000000
033000
00C000
000000
0FE000
081800
080800
080400
080400
080400
080400
080400
080400
080800
081800
0FE000
000000
000000
ENDCHAR

STARTCHAR jisx0212_2A31
ENCODING 10801
SWIDTH 960 0
DWIDTH 18 0
BBX 18 18 0 -2
BITMAP
000000
006000
018000
000000
07FC00
040000
040000
040000
040000
07F800
040000
040000
040000
040000
040000
07FC00
000000
000000
ENDCHAR

STARTCHAR jisx0212_2A32
ENCODING 10802
SWIDTH 960 0
DWIDTH 18 0
BBX 18 18 0 -2
BITMAP
000000
018000
006000
000000
07FC00
040000
040000
040000
040000
07F800
040000
040000
040000
040000
040000
07FC00
000000
000000
ENDCHAR

STARTCHAR jisx0212_2A33
ENCODING 10803
SWIDTH 960 0
DWIDTH 18 0
BBX 18 18 0 -2
BITMAP
000000
033000
033000
000000
07FC00
040000
040000
040000
040000
07F800
040000
040000
040000
040000
040000
07FC00
000000
000000
ENDCHAR

STARTCHAR jisx0212_2A34
ENCODING 10804
SWIDTH 960 0
DWIDTH 18 0
BBX 18 18 0 -2
BITMAP
000000
00C000
033000
000000
07FC00
040000
040000
040000
040000
07F800
040000
040000
040000
040000
040000
07FC00
000000
000000
ENDCHAR

STARTCHAR jisx0212_2A35
ENCODING 10805
SWIDTH 960 0
DWIDTH 18 0
BBX 18 18 0 -2
BITMAP
000000
033000
00C000
000000
07FC00
040000
040000
040000
040000
07F800
040000
040000
040000
040000
040000
07FC00
000000
000000
ENDCHAR

STARTCHAR jisx0212_2A36
ENCODING 10806
SWIDTH 960 0
DWIDTH 18 0
BBX 18 18 0 -2
BITMAP
000000
00C000
00C000
000000
07FC00
040000
040000
040000
040000
07F800
040000
040000
040000
040000
040000
07FC00
000000
000000
ENDCHAR

STARTCHAR jisx0212_2A37
ENCODING 10807
SWIDTH 960 0
DWIDTH 18 0
BBX 18 18 0 -2
BITMAP
000000
03F000
000000
000000
07FC00
040000
040000
040000
040000
07F800
040000
040000
040000
040000
040000
07FC00
000000
000000
ENDCHAR

STARTCHAR jisx0212_2A38
ENCODING 10808
SWIDTH 960 0
DWIDTH 18 0
BBX 18 18 0 -2
BITMAP
000000
000000
07FC00
040000
040000
040000
040000
07F800
040000
040000
040000
040000
040000
07FC00
001000
002000
001C00
000000
ENDCHAR

STARTCHAR jisx0212_2A3A
ENCODING 10810
SWIDTH 960 0
DWIDTH 18 0
BBX 18 18 0 -2
BITMAP
000000
018000
066000
000000
03E000
0C1000
080800
100400
100000
100000
103C00
100400
100400
080C00
0C1400
03E400
000000
000000
ENDCHAR

STARTCHAR jisx0212_2A3B
ENCODING 10811
SWIDTH 960 0
DWIDTH 18 0
BBX 18 18 0 -2
BITMAP
000000
022000
01C000
000000
03E000
0C1000
080800
100400
100000
100000
103C00
100400
100400
080C00
0C1400
03E400
000000
000000
ENDCHAR

STARTCHAR jisx0212_2A3C
ENCODING 10812
SWIDTH 960 0
DWIDTH 18 0
BBX 18 18 0 -2
BITMAP
000000
000000
03E000
0C1000
080800
100400
100000
100000
103C00
100400
100400
080C00
0C1400
03E400
008000
004000
038000
000000
ENDCHAR

STARTCHAR jisx0212_2A3D
ENCODING 10813
SWIDTH 960 0
DWIDTH 18 0
BBX 18 18 0 -2
BITMAP
000000
018000
018000
000000
03E000
0C1000
080800
100400
100000
100000
103C00
100400
100400
080C00
0C1400
03E400
000000
000000
ENDCHAR

STARTCHAR jisx0212_2A3E
ENCODING 10814
SWIDTH 960 0
DWIDTH 18 0
BBX 18 18 0 -2
BITMAP
000000
00C000
033000
080400
080400
080400
080400
080400
080400
0FFC00
080400
080400
080400
080400
080400
080400
000000
000000
ENDCHAR

STARTCHAR jisx0212_2A3F
ENCODING 10815
SWIDTH 960 0
DWIDTH 18 0
BBX 18 18 0 -2
BITMAP
000000
00C000
030000
000000
008000
008000
008000
008000
008000
008000
008000
008000
008000
008000
008000
008000
000000
000000
ENDCHAR

STARTCHAR jisx0212_2A40
ENCODING 10816
SWIDTH 960 0
DWIDTH 18 0
BBX 18 18 0 -2
BITMAP
000000
030000
00C000
000000
008000
008000
008000
008000
008000
008000
008000
008000
008000
008000
008000
008000
000000
000000
ENDCHAR

STARTCHAR jisx0212_2A41
ENCODING 10817
SWIDTH 960 0
DWIDTH 18 0
BBX 18 18 0 -2
BITMAP
000000
066000
066000
000000
008000
008000
008000
008000
008000
008000
008000
008000
008000
008000
008000
008000
000000
000000
ENDCHAR

STARTCHAR jisx0212_2A42
ENCODING 10818
SWIDTH 960 0
DWIDTH 18 0
BBX 18 18 0 -2
BITMAP
000000
018000
066000
000000
008000
008000
008000
008000
008000
008000
008000
008000
008000
008000
008000
008000
000000
000000
ENDCHAR

STARTCHAR jisx0212_2A43
ENCODING 10819
SWIDTH 960 0
DWIDTH 18 0
BBX 18 18 0 -2
BITMAP
000000
066000
018000
000000
008000
008000
008000
008000
008000
008000
008000
008000
008000
008000
008000
008000
000000
000000
ENDCHAR

STARTCHAR jisx0212_2A44
ENCODING 10820
SWIDTH 960 0
DWIDTH 18 0
BBX 18 18 0 -2
BITMAP
000000
018000
018000
000000
008000
008000
008000
008000
008000
008000
008000
008000
008000
008000
008000
008000
000000
000000
ENDCHAR

STARTCHAR jisx0212_2A45
ENCODING 10821
SWIDTH 960 0
DWIDTH 18 0
BBX 18 18 0 -2
BITMAP
000000
03E000
000000
008000
008000
008000
008000
008000
008000
008000
008000
008000
008000
008000
008000
008000
000000
000000
ENDCHAR

STARTCHAR jisx0212_2A46
ENCODING 10822
SWIDTH 960 0
DWIDTH 18 0
BBX 18 18 0 -2
BITMAP
000000
000000
008000
008000
008000
008000
008000
008000
008000
008000
008000
008000
008000
008000
008000
010000
00E000
000000
ENDCHAR

STARTCHAR jisx0212_2A47
ENCODING 10823
SWIDTH 960 0
DWIDTH 18 0
BBX 18 18 0 -2
BITMAP
000000
032000
04C000
000000
008000
008000
008000
008000
008000
008000
008000
008000
008000
008000
008000
008000
000000
000000
ENDCHAR

STARTCHAR jisx0212_2A48
ENCODING 10824
SWIDTH 960 0
DWIDTH 18 0
BBX 18 18 0 -2
BITMAP
000000
00C000
033000
000000
002000
002000
002000
002000
002000
002000
002000
002000
082000
082000
044000
038000
000000
000000
ENDCHAR

STARTCHAR jisx0212_2A49
ENCODING 10825
SWIDTH 960 0
DWIDTH 18 0
BBX 18 18 0 -2
BITMAP
000000
000000
040400
040800
041000
042000
044000
048000
054000
062000
041000
041000
040800
048400
04C200
002000
01C000
000000
ENDCHAR

STARTCHAR jisx0212_2A4A
ENCODING 10826
SWIDTH 960 0
DWIDTH 18 0
BBX 18 18 0 -2
BITMAP
000000
006000
018000
040000
040000
040000
040000
040000
040000
040000
040000
040000
040000
040000
040000
07FC00
000000
000000
ENDCHAR

STARTCHAR jisx0212_2A4B
ENCODING 10827
SWIDTH 960 0
DWIDTH 18 0
BBX 18 18 0 -2
BITMAP
000000
033000
00C000
040000
040000
040000
040000
040000
040000
040000
040000
040000
040000
040000
040000
07FC00
000000
000000
ENDCHAR

STARTCHAR jisx0212_2A4C
ENCODING 10828
SWIDTH 960 0
DWIDTH 18 0
BBX 18 18 0 -2
BITMAP
000000
000000
040000
040000
040000
040000
040000
040000
040000
040000
040000
040000
040000
07FC00
004000
002000
01C000
000000
ENDCHAR

STARTCHAR jisx0212_2A4D
ENCODING 10829
SWIDTH 960 0
DWIDTH 18 0
BBX 18 18 0 -2
BITMAP
000000
006000
018000
080400
0C0400
0A0400
090400
090400
088400
084400
084400
082400
081400
081400
080C00
080400
000000
000000
ENDCHAR

STARTCHAR jisx0212_2A4E
ENCODING 10830
SWIDTH 960 0
DWIDTH 18 0
BBX 18 18 0 -2
BITMAP
000000
033000
00C000
080400
0C0400
0A0400
090400
090400
088400
084400
084400
082400
081400
081400
080C00
080400
000000
000000
ENDCHAR

STARTCHAR jisx0212_2A4F
ENCODING 10831
SWIDTH 960 0
DWIDTH 18 0
BBX 18 18 0 -2
BITMAP
000000
000000
080400
0C0400
0A0400
090400
090400
088400
084400
084400
082400
081400
081400
088C00
08C400
002000
01C000
000000
ENDCHAR

STARTCHAR jisx0212_2A50
ENCODING 10832
SWIDTH 960 0
DWIDTH 18 0
BBX 18 18 0 -2
BITMAP
000000
019000
026000
080400
0C0400
0A0400
090400
090400
088400
084400
084400
082400
081400
081400
080C00
080400
000000
000000
ENDCHAR

STARTCHAR jisx0212_2A51
ENCODING 10833
SWIDTH 960 0
DWIDTH 18 0
BBX 18 18 0 -2
BITMAP
000000
00C000
030000
000000
03E000
0C1800
080800
100400
100400
100400
100400
100400
100400
080800
0C1800
03E000
000000
000000
ENDCHAR

STARTCHAR jisx0212_2A52
ENCODING 10834
SWIDTH 960 0
DWIDTH 18 0
BBX 18 18 0 -2
BITMAP
000000
030000
00C000
000000
03E000
0C1800
080800
100400
100400
100400
100400
100400
100400
080800
0C1800
03E000
000000
000000
ENDCHAR

STARTCHAR jisx0212_2A53
ENCODING 10835
SWIDTH 960 0
DWIDTH 18 0
BBX 18 18 0 -2
BITMAP
000000
066000
066000
000000
03E000
0C1800
080800
100400
100400
100400
100400
100400
100400
080800
0C1800
03E000
000000
000000
ENDCHAR

STARTCHAR jisx0212_2A54
ENCODING 10836
SWIDTH 960 0
DWIDTH 18 0
BBX 18 18 0 -2
BITMAP
000000
018000
066000
000000
03E000
0C1800
080800
100400
100400
100400
100400
100400
100400
080800
0C1800
03E000
000000
000000
ENDCHAR

STARTCHAR jisx0212_2A55
ENCODING 10837
SWIDTH 960 0
DWIDTH 18 0
BBX 18 18 0 -2
BITMAP
000000
066000
018000
000000
03E000
0C1800
080800
100400
100400
100400
100400
100400
100400
080800
0C1800
03E000
000000
000000
ENDCHAR

STARTCHAR jisx0212_2A56
ENCODING 10838
SWIDTH 960 0
DWIDTH 18 0
BBX 18 18 0 -2
BITMAP
000000
031800
0C6000
000000
03E000
0C1800
080800
100400
100400
100400
100400
100400
100400
080800
0C1800
03E000
000000
000000
ENDCHAR

STARTCHAR jisx0212_2A57
ENCODING 10839
SWIDTH 960 0
DWIDTH 18 0
BBX 18 18 0 -2
BITMAP
000000
07E000
000000
000000
03E000
0C1800
080800
100400
100400
100400
100400
100400
100400
080800
0C1800
03E000
000000
000000
ENDCHAR

STARTCHAR jisx0212_2A58
ENCODING 10840
SWIDTH 960 0
DWIDTH 18 0
BBX 18 18 0 -2
BITMAP
000000
032000
04C000
000000
03E000
0C1800
080800
100400
100400
100400
100400
100400
100400
080800
0C1800
03E000
000000
000000
ENDCHAR

STARTCHAR jisx0212_2A59
ENCODING 10841
SWIDTH 960 0
DWIDTH 18 0
BBX 18 18 0 -2
BITMAP
000000
006000
018000
000000
07F000
040800
040400
040400
040400
040800
07F000
040800
040400
040400
040200
040200
000000
000000
ENDCHAR

STARTCHAR jisx0212_2A5A
ENCODING 10842
SWIDTH 960 0
DWIDTH 18 0
BBX 18 18 0 -2
BITMAP
000000
033000
00C000
000000
07F000
040800
040400
040400
040400
040800
07F000
040800
040400
040400
040200
040200
000000
000000
ENDCHAR

STARTCHAR jisx0212_2A5B
ENCODING 10843
SWIDTH 960 0
DWIDTH 18 0
BBX 18 18 0 -2
BITMAP
000000
000000
07F000
040800
040400
040400
040400
040800
07F000
040800
040800
040400
040400
044200
046200
001000
00E000
000000
ENDCHAR

STARTCHAR jisx0212_2A5C
ENCODING 10844
SWIDTH 960 0
DWIDTH 18 0
BBX 18 18 0 -2
BITMAP
000000
006000
018000
000000
03E000
041000
080800
080800
060000
01C000
003000
000800
080400
080400
040800
03F000
000000
000000
ENDCHAR

STARTCHAR jisx0212_2A5D
ENCODING 10845
SWIDTH 960 0
DWIDTH 18 0
BBX 18 18 0 -2
BITMAP
000000
00C000
033000
000000
03E000
041000
080800
080800
060000
01C000
003000
000800
080400
080400
040800
03F000
000000
000000
ENDCHAR

STARTCHAR jisx0212_2A5E
ENCODING 10846
SWIDTH 960 0
DWIDTH 18 0
BBX 18 18 0 -2
BITMAP
000000
033000
00C000
000000
03E000
041000
080800
080800
060000
01C000
003000
000800
080400
080400
040800
03F000
000000
000000
ENDCHAR

STARTCHAR jisx0212_2A5F
ENCODING 10847
SWIDTH 960 0
DWIDTH 18 0
BBX 18 18 0 -2
BITMAP
000000
000000
03E000
041000
080800
080800
060000
01C000
003000
000800
080400
080400
040800
03F000
008000
004000
038000
000000
ENDCHAR

STARTCHAR jisx0212_2A60
ENCODING 10848
SWIDTH 960 0
DWIDTH 18 0
BBX 18 18 0 -2
BITMAP
000000
066000
018000
000000
1FFC00
008000
008000
008000
008000
008000
008000
008000
008000
008000
008000
008000
000000
000000
ENDCHAR

STARTCHAR jisx0212_2A61
ENCODING 10849
SWIDTH 960 0
DWIDTH 18 0
BBX 18 18 0 -2
BITMAP
000000
000000
1FFC00
008000
008000
008000
008000
008000
008000
008000
008000
008000
008000
008000
00C000
002000
01C000
000000
ENDCHAR

STARTCHAR jisx0212_2A62
ENCODING 10850
SWIDTH 960 0
DWIDTH 18 0
BBX 18 18 0 -2
BITMAP
000000
006000
018000
080400
080400
080400
080400
080400
080400
080400
080400
080400
080400
080400
040800
03F000
000000
000000
ENDCHAR

STARTCHAR jisx0212_2A63
ENCODING 10851
SWIDTH 960 0
DWIDTH 18 0
BBX 18 18 0 -2
BITMAP
000000
018000
006000
080400
080400
080400
080400
080400
080400
080400
080400
080400
080400
080400
040800
03F000
000000
000000
ENDCHAR

STARTCHAR jisx0212_2A64
ENCODING 10852
SWIDTH 960 0
DWIDTH 18 0
BBX 18 18 0 -2
BITMAP
000000
033000
033000
080400
080400
080400
080400
080400
080400
080400
080400
080400
080400
080400
040800
03F000
000000
000000
ENDCHAR

STARTCHAR jisx0212_2A65
ENCODING 10853
SWIDTH 960 0
DWIDTH 18 0
BBX 18 18 0 -2
BITMAP
000000
00C000
033000
080400
080400
080400
080400
080400
080400
080400
080400
080400
080400
080400
040800
03F000
000000
000000
ENDCHAR

STARTCHAR jisx0212_2A66
ENCODING 10854
SWIDTH 960 0
DWIDTH 18 0
BBX 18 18 0 -2
BITMAP
000000
022000
01C000
080400
080400
080400
080400
080400
080400
080400
080400
080400
080400
080400
040800
03F000
000000
000000
ENDCHAR

STARTCHAR jisx0212_2A67
ENCODING 10855
SWIDTH 960 0
DWIDTH 18 0
BBX 18 18 0 -2
BITMAP
000000
033000
00C000
080400
080400
080400
080400
080400
080400
080400
080400
080400
080400
080400
040800
03F000
000000
000000
ENDCHAR

STARTCHAR jisx0212_2A68
ENCODING 10856
SWIDTH 960 0
DWIDTH 18 0
BBX 18 18 0 -2
BITMAP
000000
018C00
063000
000000
080400
080400
080400
080400
080400
080400
080400
080400
080400
080400
040800
03F000
000000
000000
ENDCHAR

STARTCHAR jisx0212_2A69
ENCODING 10857
SWIDTH 960 0
DWIDTH 18 0
BBX 18 18 0 -2
BITMAP
000000
03F000
000000
080400
080400
080400
080400
080400
080400
080400
080400
080400
080400
080400
040800
03F000
000000
000000
ENDCHAR

STARTCHAR jisx0212_2A6A
ENCODING 10858
SWIDTH 960 0
DWIDTH 18 0
BBX 18 18 0 -2
BITMAP
000000
000000
080400
080400
080400
080400
080400
080400
080400
080400
080400
080400
040800
03F000
008000
010000
00E000
000000
ENDCHAR

STARTCHAR jisx0212_2A6B
ENCODING 10859
SWIDTH 960 0
DWIDTH 18 0
BBX 18 18 0 -2
BITMAP
000000
00C000
012000
012000
08C400
080400
080400
080400
080400
080400
080400
080400
080400
080400
040800
03F000
000000
000000
ENDCHAR

STARTCHAR jisx0212_2A6C
ENCODING 10860
SWIDTH 960 0
DWIDTH 18 0
BBX 18 18 0 -2
BITMAP
000000
019000
026000
080400
080400
080400
080400
080400
080400
080400
080400
080400
080400
080400
040800
03F000
000000
000000
ENDCHAR

STARTCHAR jisx0212_2A6D
ENCODING 10861
SWIDTH 960 0
DWIDTH 18 0
BBX 18 18 0 -2
BITMAP
000000
003000
00C000
061800
061800
000000
080400
080400
080400
080400
080400
080400
080400
080400
040800
03F000
000000
000000
ENDCHAR

STARTCHAR jisx0212_2A6E
ENCODING 10862
SWIDTH 960 0
DWIDTH 18 0
BBX 18 18 0 -2
BITMAP
000000
030000
00C000
061800
061800
000000
080400
080400
080400
080400
080400
080400
080400
080400
040800
03F000
000000
000000
ENDCHAR

STARTCHAR jisx0212_2A6F
ENCODING 10863
SWIDTH 960 0
DWIDTH 18 0
BBX 18 18 0 -2
BITMAP
000000
033000
00C000
061800
061800
000000
080400
080400
080400
080400
080400
080400
080400
080400
040800
03F000
000000
000000
ENDCHAR

STARTCHAR jisx0212_2A70
ENCODING 10864
SWIDTH 960 0
DWIDTH 18 0
BBX 18 18 0 -2
BITMAP
000000
03F000
000000
033000
033000
080400
080400
080400
080400
080400
080400
080400
080400
080400
040800
03F000
000000
000000
ENDCHAR

STARTCHAR jisx0212_2A71
ENCODING 10865
SWIDTH 960 0
DWIDTH 18 0
BBX 18 18 0 -2
BITMAP
000000
00C000
033000
000000
20C100
20C100
20C100
112200
112200
112200
0A1400
0A1400
0A1400
040800
040800
040800
000000
000000
ENDCHAR

STARTCHAR jisx0212_2A72
ENCODING 10866
SWIDTH 960 0
DWIDTH 18 0
BBX 18 18 0 -2
BITMAP
000000
006000
018000
100400
080800
080800
041000
022000
022000
014000
008000
008000
008000
008000
008000
008000
000000
000000
ENDCHAR

STARTCHAR jisx0212_2A73
ENCODING 10867
SWIDTH 960 0
DWIDTH 18 0
BBX 18 18 0 -2
BITMAP
000000
063000
063000
100400
080800
080800
041000
022000
022000
014000
008000
008000
008000
008000
008000
008000
000000
000000
ENDCHAR

STARTCHAR jisx0212_2A74
ENCODING 10868
SWIDTH 960 0
DWIDTH 18 0
BBX 18 18 0 -2
BITMAP
000000
018000
066000
100400
080800
080800
041000
022000
022000
014000
008000
008000
008000
008000
008000
008000
000000
000000
ENDCHAR

STARTCHAR jisx0212_2A75
ENCODING 10869
SWIDTH 960 0
DWIDTH 18 0
BBX 18 18 0 -2
BITMAP
000000
006000
018000
000000
07F800
000800
001000
002000
004000
008000
008000
010000
020000
040000
080000
0FF800
000000
000000
ENDCHAR

STARTCHAR jisx0212_2A76
ENCODING 10870
SWIDTH 960 0
DWIDTH 18 0
BBX 18 18 0 -2
BITMAP
000000
033000
00C000
000000
07F800
000800
001000
002000
004000
008000
008000
010000
020000
040000
080000
0FF800
000000
000000
ENDCHAR

STARTCHAR jisx0212_2A77
ENCODING 10871
SWIDTH 960 0
DWIDTH 18 0
BBX 18 18 0 -2
BITMAP
000000
00C000
00C000
000000
07F800
000800
001000
002000
004000
008000
008000
010000
020000
040000
080000
0FF800
000000
000000
ENDCHAR

STARTCHAR jisx0212_2B21
ENCODING 11041
SWIDTH 960 0
DWIDTH 18 0
BBX 18 18 0 -2
BITMAP
000000
000000
00C000
030000
000000
000000
03E000
041000
080800
000800
03F800
040800
080800
080800
041800
03E800
000000
000000
ENDCHAR

STARTCHAR jisx0212_2B22
ENCODING 11042
SWIDTH 960 0
DWIDTH 18 0
BBX 18 18 0 -2
BITMAP
000000
000000
030000
00C000
000000
000000
03E000
041000
080800
000800
03F800
040800
080800
080800
041800
03E800
000000
000000
ENDCHAR

STARTCHAR jisx0212_2B23
ENCODING 11043
SWIDTH 960 0
DWIDTH 18 0
BBX 18 18 0 -2
BITMAP
000000
000000
066000
066000
000000
000000
03E000
041000
080800
000800
03F800
040800
080800
080800
041800
03E800
000000
000000
ENDCHAR

STARTCHAR jisx0212_2B24
ENCODING 11044
SWIDTH 960 0
DWIDTH 18 0
BBX 18 18 0 -2
BITMAP
000000
000000
018000
066000
000000
000000
03E000
041000
080800
000800
03F800
040800
080800
080800
041800
03E800
000000
000000
ENDCHAR

STARTCHAR jisx0212_2B25
ENCODING 11045
SWIDTH 960 0
DWIDTH 18 0
BBX 18 18 0 -2
BITMAP
000000
000000
022000
01C000
000000
000000
03E000
041000
080800
000800
03F800
040800
080800
080800
041800
03E800
000000
000000
ENDCHAR

STARTCHAR jisx0212_2B26
ENCODING 11046
SWIDTH 960 0
DWIDTH 18 0
BBX 18 18 0 -2
BITMAP
000000
000000
066000
018000
000000
000000
03E000
041000
080800
000800
03F800
040800
080800
080800
041800
03E800
000000
000000
ENDCHAR

STARTCHAR jisx0212_2B27
ENCODING 11047
SWIDTH 960 0
DWIDTH 18 0
BBX 18 18 0 -2
BITMAP
000000
000000
000000
07E000
000000
000000
03E000
041000
080800
000800
03F800
040800
080800
080800
041800
03E800
000000
000000
ENDCHAR

STARTCHAR jisx0212_2B28
ENCODING 11048
SWIDTH 960 0
DWIDTH 18 0
BBX 18 18 0 -2
BITMAP
000000
000000
000000
000000
000000
000000
03E000
041000
080800
03F800
040800
080800
080800
041800
03E800
001000
001C00
000000
ENDCHAR

STARTCHAR jisx0212_2B29
ENCODING 11049
SWIDTH 960 0
DWIDTH 18 0
BBX 18 18 0 -2
BITMAP
000000
000000
00C000
012000
012000
00C000
03E000
041000
080800
000800
03F800
040800
080800
080800
041800
03E800
000000
000000
ENDCHAR

STARTCHAR jisx0212_2B2A
ENCODING 11050
SWIDTH 960 0
DWIDTH 18 0
BBX 18 18 0 -2
BITMAP
000000
000000
032000
04C000
000000
000000
03E000
041000
080800
000800
03F800
040800
080800
080800
041800
03E800
000000
000000
ENDCHAR

STARTCHAR jisx0212_2B2B
ENCODING 11051
SWIDTH 960 0
DWIDTH 18 0
BBX 18 18 0 -2
BITMAP
000000
000000
00C000
030000
000000
000000
03E000
041000
080800
080000
080000
080000
080000
080800
041000
03E000
000000
000000
ENDCHAR

STARTCHAR jisx0212_2B2C
ENCODING 11052
SWIDTH 960 0
DWIDTH 18 0
BBX 18 18 0 -2
BITMAP
000000
000000
018000
066000
000000
000000
03E000
041000
080800
080000
080000
080000
080000
080800
041000
03E000
000000
000000
ENDCHAR

STARTCHAR jisx0212_2B2D
ENCODING 11053
SWIDTH 960 0
DWIDTH 18 0
BBX 18 18 0 -2
BITMAP
000000
000000
066000
018000
000000
000000
03E000
041000
080800
080000
080000
080000
080000
080800
041000
03E000
000000
000000
ENDCHAR

STARTCHAR jisx0212_2B2E
ENCODING 11054
SWIDTH 960 0
DWIDTH 18 0
BBX 18 18 0 -2
BITMAP
000000
000000
000000
000000
000000
000000
03E000
041000
080800
080000
080000
080000
080800
041000
03E000
004000
01C000
000000
ENDCHAR

STARTCHAR jisx0212_2B2F
ENCODING 11055
SWIDTH 960 0
DWIDTH 18 0
BBX 18 18 0 -2
BITMAP
000000
000000
018000
018000
000000
000000
03E000
041000
080800
080000
080000
080000
080000
080800
041000
03E000
000000
000000
ENDCHAR

STARTCHAR jisx0212_2B30
ENCODING 11056
SWIDTH 960 0
DWIDTH 18 0
BBX 18 18 0 -2
BITMAP
000000
033000
00C000
000800
000800
000800
01E800
021800
040800
040800
040800
040800
040800
040800
021800
01E800
000000
000000
ENDCHAR

STARTCHAR jisx0212_2B31
ENCODING 11057
SWIDTH 960 0
DWIDTH 18 0
BBX 18 18 0 -2
BITMAP
000000
000000
00C000
030000
000000
000000
03E000
041000
080800
080800
0FF800
080000
080000
080800
041000
03E000
000000
000000
ENDCHAR

STARTCHAR jisx0212_2B32
ENCODING 11058
SWIDTH 960 0
DWIDTH 18 0
BBX 18 18 0 -2
BITMAP
000000
000000
030000
00C000
000000
000000
03E000
041000
080800
080800
0FF800
080000
080000
080800
041000
03E000
000000
000000
ENDCHAR

STARTCHAR jisx0212_2B33
ENCODING 11059
SWIDTH 960 0
DWIDTH 18 0
BBX 18 18 0 -2
BITMAP
000000
000000
066000
066000
000000
000000
03E000
041000
080800
080800
0FF800
080000
080000
080800
041000
03E000
000000
000000
ENDCHAR

STARTCHAR jisx0212_2B34
ENCODING 11060
SWIDTH 960 0
DWIDTH 18 0
BBX 18 18 0 -2
BITMAP
000000
000000
018000
066000
000000
000000
03E000
041000
080800
080800
0FF800
080000
080000
080800
041000
03E000
000000
000000
ENDCHAR

STARTCHAR jisx0212_2B35
ENCODING 11061
SWIDTH 960 0
DWIDTH 18 0
BBX 18 18 0 -2
BITMAP
000000
000000
066000
018000
000000
000000
03E000
041000
080800
080800
0FF800
080000
080000
080800
041000
03E000
000000
000000
ENDCHAR

STARTCHAR jisx0212_2B36
ENCODING 11062
SWIDTH 960 0
DWIDTH 18 0
BBX 18 18 0 -2
BITMAP
000000
000000
018000
018000
000000
000000
03E000
041000
080800
080800
0FF800
080000
080000
080800
041000
03E000
000000
000000
ENDCHAR

STARTCHAR jisx0212_2B37
ENCODING 11063
SWIDTH 960 0
DWIDTH 18 0
BBX 18 18 0 -2
BITMAP
000000
000000
000000
07E000
000000
000000
03E000
041000
080800
080800
0FF800
080000
080000
080800
041000
03E000
000000
000000
ENDCHAR

STARTCHAR jisx0212_2B38
ENCODING 11064
SWIDTH 960 0
DWIDTH 18 0
BBX 18 18 0 -2
BITMAP
000000
000000
000000
000000
000000
000000
03E000
041000
080800
080800
0FF800
080000
080000
040800
03F000
004000
007000
000000
ENDCHAR

STARTCHAR jisx0212_2B39
ENCODING 11065
SWIDTH 960 0
DWIDTH 18 0
BBX 18 18 0 -2
BITMAP
000000
000000
006000
018000
000000
000000
01E800
021800
040800
040800
040800
040800
021800
01E800
040800
021000
01E000
000000
ENDCHAR

STARTCHAR jisx0212_2B3A
ENCODING 11066
SWIDTH 960 0
DWIDTH 18 0
BBX 18 18 0 -2
BITMAP
000000
000000
00C000
033000
000000
000000
01E800
021800
040800
040800
040800
040800
021800
01E800
040800
021000
01E000
000000
ENDCHAR

STARTCHAR jisx0212_2B3B
ENCODING 11067
SWIDTH 960 0
DWIDTH 18 0
BBX 18 18 0 -2
BITMAP
000000
000000
022000
01C000
000000
000000
01E800
021800
040800
040800
040800
040800
021800
01E800
040800
021000
01E000
000000
ENDCHAR

STARTCHAR jisx0212_2B3D
ENCODING 11069
SWIDTH 960 0
DWIDTH 18 0
BBX 18 18 0 -2
BITMAP
000000
000000
00C000
00C000
000000
000000
01E800
021800
040800
040800
040800
040800
021800
01E800
040800
021000
01E000
000000
ENDCHAR

STARTCHAR jisx0212_2B3E
ENCODING 11070
SWIDTH 960 0
DWIDTH 18 0
BBX 18 18 0 -2
BITMAP
000000
00C000
033000
040000
040000
040000
05F000
060800
040800
040800
040800
040800
040800
040800
040800
040800
000000
000000
ENDCHAR

STARTCHAR jisx0212_2B3F
ENCODING 11071
SWIDTH 960 0
DWIDTH 18 0
BBX 18 18 0 -2
BITMAP
000000
000000
00C000
030000
000000
000000
008000
008000
008000
008000
008000
008000
008000
008000
008000
008000
000000
000000
ENDCHAR

STARTCHAR jisx0212_2B40
ENCODING 11072
SWIDTH 960 0
DWIDTH 18 0
BBX 18 18 0 -2
BITMAP
000000
000000
030000
00C000
000000
000000
008000
008000
008000
008000
008000
008000
008000
008000
008000
008000
000000
000000
ENDCHAR

STARTCHAR jisx0212_2B41
ENCODING 11073
SWIDTH 960 0
DWIDTH 18 0
BBX 18 18 0 -2
BITMAP
000000
000000
066000
066000
000000
000000
008000
008000
008000
008000
008000
008000
008000
008000
008000
008000
000000
000000
ENDCHAR

STARTCHAR jisx0212_2B42
ENCODING 11074
SWIDTH 960 0
DWIDTH 18 0
BBX 18 18 0 -2
BITMAP
000000
000000
018000
066000
000000
000000
008000
008000
008000
008000
008000
008000
008000
008000
008000
008000
000000
000000
ENDCHAR

STARTCHAR jisx0212_2B43
ENCODING 11075
SWIDTH 960 0
DWIDTH 18 0
BBX 18 18 0 -2
BITMAP
000000
000000
066000
018000
000000
000000
008000
008000
008000
008000
008000
008000
008000
008000
008000
008000
000000
000000
ENDCHAR

STARTCHAR jisx0212_2B45
ENCODING 11077
SWIDTH 960 0
DWIDTH 18 0
BBX 18 18 0 -2
BITMAP
000000
000000
000000
03E000
000000
000000
008000
008000
008000
008000
008000
008000
008000
008000
008000
008000
000000
000000
ENDCHAR

STARTCHAR jisx0212_2B46
ENCODING 11078
SWIDTH 960 0
DWIDTH 18 0
BBX 18 18 0 -2
BITMAP
000000
000000
018000
018000
000000
000000
008000
008000
008000
008000
008000
008000
008000
008000
008000
010000
00E000
000000
ENDCHAR

STARTCHAR jisx0212_2B47
ENCODING 11079
SWIDTH 960 0
DWIDTH 18 0
BBX 18 18 0 -2
BITMAP
000000
000000
032000
04C000
000000
000000
008000
008000
008000
008000
008000
008000
008000
008000
008000
008000
000000
000000
ENDCHAR

STARTCHAR jisx0212_2B48
ENCODING 11080
SWIDTH 960 0
DWIDTH 18 0
BBX 18 18 0 -2
BITMAP
000000
000000
018000
066000
000000
000000
008000
008000
008000
008000
008000
008000
008000
008000
008000
008000
070000
000000
ENDCHAR

STARTCHAR jisx0212_2B49
ENCODING 11081
SWIDTH 960 0
DWIDTH 18 0
BBX 18 18 0 -2
BITMAP
000000
000000
040000
040000
040000
040000
041000
042000
044000
048000
054000
062000
042000
049000
048800
004000
01C000
000000
ENDCHAR

STARTCHAR jisx0212_2B4A
ENCODING 11082
SWIDTH 960 0
DWIDTH 18 0
BBX 18 18 0 -2
BITMAP
000000
00C000
030000
000000
008000
008000
008000
008000
008000
008000
008000
008000
008000
008000
008000
00E000
000000
000000
ENDCHAR

STARTCHAR jisx0212_2B4B
ENCODING 11083
SWIDTH 960 0
DWIDTH 18 0
BBX 18 18 0 -2
BITMAP
000000
066000
018000
000000
008000
008000
008000
008000
008000
008000
008000
008000
008000
008000
008000
00E000
000000
000000
ENDCHAR

STARTCHAR jisx0212_2B4C
ENCODING 11084
SWIDTH 960 0
DWIDTH 18 0
BBX 18 18 0 -2
BITMAP
000000
000000
008000
008000
008000
008000
008000
008000
008000
008000
008000
008000
008000
008000
00E000
004000
01C000
000000
ENDCHAR

STARTCHAR jisx0212_2B4D
ENCODING 11085
SWIDTH 960 0
DWIDTH 18 0
BBX 18 18 0 -2
BITMAP
000000
000000
006000
018000
000000
000000
05F000
060800
040800
040800
040800
040800
040800
040800
040800
040800
000000
000000
ENDCHAR

STARTCHAR jisx0212_2B4E
ENCODING 11086
SWIDTH 960 0
DWIDTH 18 0
BBX 18 18 0 -2
BITMAP
000000
000000
033000
00C000
000000
000000
05F000
060800
040800
040800
040800
040800
040800
040800
040800
040800
000000
000000
ENDCHAR

STARTCHAR jisx0212_2B4F
ENCODING 11087
SWIDTH 960 0
DWIDTH 18 0
BBX 18 18 0 -2
BITMAP
000000
000000
000000
000000
000000
000000
05F000
060800
040800
040800
040800
040800
040800
048800
048800
004000
01C000
000000
ENDCHAR

STARTCHAR jisx0212_2B50
ENCODING 11088
SWIDTH 960 0
DWIDTH 18 0
BBX 18 18 0 -2
BITMAP
000000
000000
019000
026000
000000
000000
05F000
060800
040800
040800
040800
040800
040800
040800
040800
040800
000000
000000
ENDCHAR

STARTCHAR jisx0212_2B51
ENCODING 11089
SWIDTH 960 0
DWIDTH 18 0
BBX 18 18 0 -2
BITMAP
000000
000000
00C000
030000
000000
000000
03E000
041000
080800
080800
080800
080800
080800
080800
041000
03E000
000000
000000
ENDCHAR

STARTCHAR jisx0212_2B52
ENCODING 11090
SWIDTH 960 0
DWIDTH 18 0
BBX 18 18 0 -2
BITMAP
000000
000000
030000
00C000
000000
000000
03E000
041000
080800
080800
080800
080800
080800
080800
041000
03E000
000000
000000
ENDCHAR

STARTCHAR jisx0212_2B53
ENCODING 11091
SWIDTH 960 0
DWIDTH 18 0
BBX 18 18 0 -2
BITMAP
000000
000000
066000
066000
000000
000000
03E000
041000
080800
080800
080800
080800
080800
080800
041000
03E000
000000
000000
ENDCHAR

STARTCHAR jisx0212_2B54
ENCODING 11092
SWIDTH 960 0
DWIDTH 18 0
BBX 18 18 0 -2
BITMAP
000000
000000
018000
066000
000000
000000
03E000
041000
080800
080800
080800
080800
080800
080800
041000
03E000
000000
000000
ENDCHAR

STARTCHAR jisx0212_2B55
ENCODING 11093
SWIDTH 960 0
DWIDTH 18 0
BBX 18 18 0 -2
BITMAP
000000
000000
066000
018000
000000
000000
03E000
041000
080800
080800
080800
080800
080800
080800
041000
03E000
000000
000000
ENDCHAR

STARTCHAR jisx0212_2B56
ENCODING 11094
SWIDTH 960 0
DWIDTH 18 0
BBX 18 18 0 -2
BITMAP
000000
000000
031800
0C6000
000000
000000
03E000
041000
080800
080800
080800
080800
080800
080800
041000
03E000
000000
000000
ENDCHAR

STARTCHAR jisx0212_2B57
ENCODING 11095
SWIDTH 960 0
DWIDTH 18 0
BBX 18 18 0 -2
BITMAP
000000
000000
000000
07E000
000000
000000
03E000
041000
080800
080800
080800
080800
080800
080800
041000
03E000
000000
000000
ENDCHAR

STARTCHAR jisx0212_2B58
ENCODING 11096
SWIDTH 960 0
DWIDTH 18 0
BBX 18 18 0 -2
BITMAP
000000
000000
032000
04C000
000000
000000
03E000
041000
080800
080800
080800
080800
080800
080800
041000
03E000
000000
000000
ENDCHAR

STARTCHAR jisx0212_2B59
ENCODING 11097
SWIDTH 960 0
DWIDTH 18 0
BBX 18 18 0 -2
BITMAP
000000
000000
006000
018000
000000
000000
013000
014000
018000
010000
010000
010000
010000
010000
010000
010000
000000
000000
ENDCHAR

STARTCHAR jisx0212_2B5A
ENCODING 11098
SWIDTH 960 0
DWIDTH 18 0
BBX 18 18 0 -2
BITMAP
000000
000000
033000
00C000
000000
000000
013000
014000
018000
010000
010000
010000
010000
010000
010000
010000
000000
000000
ENDCHAR

STARTCHAR jisx0212_2B5B
ENCODING 11099
SWIDTH 960 0
DWIDTH 18 0
BBX 18 18 0 -2
BITMAP
000000
000000
000000
000000
000000
000000
013000
014000
018000
010000
010000
010000
010000
010000
010000
008000
038000
000000
ENDCHAR

STARTCHAR jisx0212_2B5C
ENCODING 11100
SWIDTH 960 0
DWIDTH 18 0
BBX 18 18 0 -2
BITMAP
000000
000000
006000
018000
000000
000000
03F000
040800
040800
040000
038000
007000
000800
040800
040800
03F000
000000
000000
ENDCHAR

STARTCHAR jisx0212_2B5D
ENCODING 11101
SWIDTH 960 0
DWIDTH 18 0
BBX 18 18 0 -2
BITMAP
000000
000000
00C000
033000
000000
000000
03F000
040800
040800
040000
038000
007000
000800
040800
040800
03F000
000000
000000
ENDCHAR

STARTCHAR jisx0212_2B5E
ENCODING 11102
SWIDTH 960 0
DWIDTH 18 0
BBX 18 18 0 -2
BITMAP
000000
000000
033000
00C000
000000
000000
03F000
040800
040800
040000
038000
007000
000800
040800
040800
03F000
000000
000000
ENDCHAR

STARTCHAR jisx0212_2B5F
ENCODING 11103
SWIDTH 960 0
DWIDTH 18 0
BBX 18 18 0 -2
BITMAP
000000
000000
000000
000000
000000
000000
03F000
040800
040800
038000
007000
000800
040800
040800
03F000
004000
01C000
000000
ENDCHAR

STARTCHAR jisx0212_2B60
ENCODING 11104
SWIDTH 960 0
DWIDTH 18 0
BBX 18 18 0 -2
BITMAP
000000
033000
00C000
000000
008000
008000
03F000
008000
008000
008000
008000
008000
008000
008000
008000
007000
000000
000000
ENDCHAR

STARTCHAR jisx0212_2B61
ENCODING 11105
SWIDTH 960 0
DWIDTH 18 0
BBX 18 18 0 -2
BITMAP
000000
000000
008000
008000
008000
008000
03F000
008000
008000
008000
008000
008000
008000
008000
007000
002000
00E000
000000
ENDCHAR

STARTCHAR jisx0212_2B62
ENCODING 11106
SWIDTH 960 0
DWIDTH 18 0
BBX 18 18 0 -2
BITMAP
000000
000000
006000
018000
000000
000000
040800
040800
040800
040800
040800
040800
040800
040800
041800
03E800
000000
000000
ENDCHAR

STARTCHAR jisx0212_2B63
ENCODING 11107
SWIDTH 960 0
DWIDTH 18 0
BBX 18 18 0 -2
BITMAP
000000
000000
018000
006000
000000
000000
040800
040800
040800
040800
040800
040800
040800
040800
041800
03E800
000000
000000
ENDCHAR

STARTCHAR jisx0212_2B64
ENCODING 11108
SWIDTH 960 0
DWIDTH 18 0
BBX 18 18 0 -2
BITMAP
000000
000000
033000
033000
000000
000000
040800
040800
040800
040800
040800
040800
040800
040800
041800
03E800
000000
000000
ENDCHAR

STARTCHAR jisx0212_2B65
ENCODING 11109
SWIDTH 960 0
DWIDTH 18 0
BBX 18 18 0 -2
BITMAP
000000
000000
00C000
033000
000000
000000
040800
040800
040800
040800
040800
040800
040800
040800
041800
03E800
000000
000000
ENDCHAR

STARTCHAR jisx0212_2B66
ENCODING 11110
SWIDTH 960 0
DWIDTH 18 0
BBX 18 18 0 -2
BITMAP
000000
000000
022000
01C000
000000
000000
040800
040800
040800
040800
040800
040800
040800
040800
041800
03E800
000000
000000
ENDCHAR

STARTCHAR jisx0212_2B67
ENCODING 11111
SWIDTH 960 0
DWIDTH 18 0
BBX 18 18 0 -2
BITMAP
000000
000000
033000
00C000
000000
000000
040800
040800
040800
040800
040800
040800
040800
040800
041800
03E800
000000
000000
ENDCHAR

STARTCHAR jisx0212_2B68
ENCODING 11112
SWIDTH 960 0
DWIDTH 18 0
BBX 18 18 0 -2
BITMAP
000000
000000
031800
0C6000
000000
000000
040800
040800
040800
040800
040800
040800
040800
040800
041800
03E800
000000
000000
ENDCHAR

STARTCHAR jisx0212_2B69
ENCODING 11113
SWIDTH 960 0
DWIDTH 18 0
BBX 18 18 0 -2
BITMAP
000000
000000
000000
03F000
000000
000000
040800
040800
040800
040800
040800
040800
040800
040800
041800
03E800
000000
000000
ENDCHAR

STARTCHAR jisx0212_2B6A
ENCODING 11114
SWIDTH 960 0
DWIDTH 18 0
BBX 18 18 0 -2
BITMAP
000000
000000
000000
000000
000000
000000
040800
040800
040800
040800
040800
040800
040800
041800
03E800
001000
001C00
000000
ENDCHAR

STARTCHAR jisx0212_2B6B
ENCODING 11115
SWIDTH 960 0
DWIDTH 18 0
BBX 18 18 0 -2
BITMAP
000000
000000
00C000
012000
012000
00C000
040800
040800
040800
040800
040800
040800
040800
040800
041800
03E800
000000
000000
ENDCHAR

STARTCHAR jisx0212_2B6C
ENCODING 11116
SWIDTH 960 0
DWIDTH 18 0
BBX 18 18 0 -2
BITMAP
000000
000000
019000
026000
000000
000000
040800
040800
040800
040800
040800
040800
040800
040800
041800
03E800
000000
000000
ENDCHAR

STARTCHAR jisx0212_2B6D
ENCODING 11117
SWIDTH 960 0
DWIDTH 18 0
BBX 18 18 0 -2
BITMAP
000000
006000
018000
000000
033000
033000
000000
040800
040800
040800
040800
040800
040800
040800
041800
03E800
000000
000000
ENDCHAR

STARTCHAR jisx0212_2B6E
ENCODING 11118
SWIDTH 960 0
DWIDTH 18 0
BBX 18 18 0 -2
BITMAP
000000
018000
006000
000000
033000
033000
000000
040800
040800
040800
040800
040800
040800
040800
041800
03E800
000000
000000
ENDCHAR

STARTCHAR jisx0212_2B6F
ENCODING 11119
SWIDTH 960 0
DWIDTH 18 0
BBX 18 18 0 -2
BITMAP
000000
033000
00C000
000000
033000
033000
000000
040800
040800
040800
040800
040800
040800
040800
041800
03E800
000000
000000
ENDCHAR

STARTCHAR jisx0212_2B70
ENCODING 11120
SWIDTH 960 0
DWIDTH 18 0
BBX 18 18 0 -2
BITMAP
000000
03F000
000000
033000
033000
000000
040800
040800
040800
040800
040800
040800
040800
040800
041800
03E800
000000
000000
ENDCHAR

STARTCHAR jisx0212_2B71
ENCODING 11121
SWIDTH 960 0
DWIDTH 18 0
BBX 18 18 0 -2
BITMAP
000000
000000
018000
066000
000000
000000
208200
208200
114400
114400
114400
0A2800
0A2800
0A2800
041000
041000
000000
000000
ENDCHAR

STARTCHAR jisx0212_2B72
ENCODING 11122
SWIDTH 960 0
DWIDTH 18 0
BBX 18 18 0 -2
BITMAP
000000
000000
006000
018000
000000
000000
040800
040800
021000
021000
012000
012000
00C000
00C000
008000
008000
070000
000000
ENDCHAR

STARTCHAR jisx0212_2B73
ENCODING 11123
SWIDTH 960 0
DWIDTH 18 0
BBX 18 18 0 -2
BITMAP
000000
000000
033000
033000
000000
000000
040800
040800
021000
021000
012000
012000
00C000
00C000
008000
008000
070000
000000
ENDCHAR

STARTCHAR jisx0212_2B74
ENCODING 11124
SWIDTH 960 0
DWIDTH 18 0
BBX 18 18 0 -2
BITMAP
000000
000000
00C000
033000
000000
000000
040800
040800
021000
021000
012000
012000
00C000
00C000
008000
008000
070000
000000
ENDCHAR

STARTCHAR jisx0212_2B75
ENCODING 11125
SWIDTH 960 0
DWIDTH 18 0
BBX 18 18 0 -2
BITMAP
000000
000000
006000
018000
000000
000000
03F800
000800
001000
002000
004000
008000
010000
020000
040000
07F800
000000
000000
ENDCHAR

STARTCHAR jisx0212_2B76
ENCODING 11126
SWIDTH 960 0
DWIDTH 18 0
BBX 18 18 0 -2
BITMAP
000000
000000
033000
00C000
000000
000000
03F800
000800
001000
002000
004000
008000
010000
020000
040000
07F800
000000
000000
ENDCHAR

STARTCHAR jisx0212_2B77
ENCODING 11127
SWIDTH 960 0
DWIDTH 18 0
BBX 18 18 0 -2
BITMAP
000000
000000
00C000
00C000
000000
000000
03F800
000800
001000
002000
004000
008000
010000
020000
040000
07F800
000000
000000
ENDCHAR

STARTCHAR jisx0212_3021
ENCODING 12321
SWIDTH 960 0
DWIDTH 18 0
BBX 18 18 0 -2
BITMAP
000000
000000
3FFF00
020000
020000
020000
040000
040000
07FC00
040400
080400
080400
000400
000400
000800
000800
00F000
000000
ENDCHAR

STARTCHAR jisx0212_3022
ENCODING 12322
SWIDTH 960 0
DWIDTH 18 0
BBX 18 18 0 -2
BITMAP
000000
008000
008000
008000
008000
008000
008000
008000
008000
008000
008000
008000
008000
008000
008000
7FFF00
000000
000000
ENDCHAR

STARTCHAR jisx0212_3023
ENCODING 12323
SWIDTH 960 0
DWIDTH 18 0
BBX 18 18 0 -2
BITMAP
000000
000000
7FFF00
008000
008000
008000
008000
008000
008000
008000
008000
008000
008000
008000
008000
008000
008000
000000
ENDCHAR

STARTCHAR jisx0212_3024
ENCODING 12324
SWIDTH 960 0
DWIDTH 18 0
BBX 18 18 0 -2
BITMAP
000000
000000
7FFF80
041000
041000
041000
041000
041000
041000
041000
041000
081000
081000
081000
101000
201000
401000
000000
ENDCHAR

STARTCHAR jisx0212_3025
ENCODING 12325
SWIDTH 960 0
DWIDTH 18 0
BBX 18 18 0 -2
BITMAP
000000
000000
3FFE00
000200
004200
004200
188200
068200
010200
028200
024200
042200
080400
100400
203800
000000
7FFF00
000000
ENDCHAR

STARTCHAR jisx0212_3026
ENCODING 12326
SWIDTH 960 0
DWIDTH 18 0
BBX 18 18 0 -2
BITMAP
000000
000000
3FFE00
008000
008000
1FFC00
008000
008000
7FFF00
010000
022000
021000
040800
040400
08FC00
7F0200
000200
000000
ENDCHAR

STARTCHAR jisx0212_3027
ENCODING 12327
SWIDTH 960 0
DWIDTH 18 0
BBX 18 18 0 -2
BITMAP
000000
000000
7FFF80
012000
012000
012000
3F3F00
212100
212100
212100
3F3F00
212100
012000
022000
022000
0C2000
302000
000000
ENDCHAR

STARTCHAR jisx0212_3028
ENCODING 12328
SWIDTH 960 0
DWIDTH 18 0
BBX 18 18 0 -2
BITMAP
000000
000000
7FFF80
022000
022000
3FFF00
222100
222100
233100
24A900
244900
284500
308500
210100
200100
200100
200700
000000
ENDCHAR

STARTCHAR jisx0212_3029
ENCODING 12329
SWIDTH 960 0
DWIDTH 18 0
BBX 18 18 0 -2
BITMAP
000000
008000
008000
008000
008000
008000
008000
008000
008000
008000
008000
008000
008000
008000
008000
008000
008000
000000
ENDCHAR

STARTCHAR jisx0212_302A
ENCODING 12330
SWIDTH 960 0
DWIDTH 18 0
BBX 18 18 0 -2
BITMAP
000000
000000
080800
041000
022000
014000
008000
008000
008000
008000
008000
008000
008000
008000
008000
008000
008000
000000
ENDCHAR

STARTCHAR jisx0212_302B
ENCODING 12331
SWIDTH 960 0
DWIDTH 18 0
BBX 18 18 0 -2
BITMAP
000000
000000
7FFC00
000400
020400
020400
020400
3FE400
020400
020400
020400
7FF400
020480
020280
020280
020180
020080
000000
ENDCHAR

STARTCHAR jisx0212_302C
ENCODING 12332
SWIDTH 960 0
DWIDTH 18 0
BBX 18 18 0 -2
BITMAP
000000
008000
008C00
00B000
03C000
3C8000
008C00
00B000
03C000
3C8000
008600
00B800
03C000
7C8000
008000
008000
008000
000000
ENDCHAR

STARTCHAR jisx0212_302D
ENCODING 12333
SWIDTH 960 0
DWIDTH 18 0
BBX 18 18 0 -2
BITMAP
000000
008000
008000
008000
3FFE00
008000
008000
008000
1FFC00
008000
008000
008000
7FFF00
008000
008000
008000
008000
000000
ENDCHAR

STARTCHAR jisx0212_302E
ENCODING 12334
SWIDTH 960 0
DWIDTH 18 0
BBX 18 18 0 -2
BITMAP
000000
022000
122400
122400
122400
122400
7FFF00
041000
021000
022000
3FFE00
008000
008000
7FFF00
008000
008000
008000
000000
ENDCHAR

STARTCHAR jisx0212_302F
ENCODING 12335
SWIDTH 960 0
DWIDTH 18 0
BBX 18 18 0 -2
BITMAP
000000
000000
000000
040000
040000
0C0000
0A0000
120000
210000
010000
008000
004000
002000
001800
000600
000180
000000
000000
ENDCHAR

STARTCHAR jisx0212_3030
ENCODING 12336
SWIDTH 960 0
DWIDTH 18 0
BBX 18 18 0 -2
BITMAP
000000
000000
0FF000
001000
001000
001000
001000
001000
001000
000800
000800
000800
000400
000400
000200
000100
000080
000000
ENDCHAR

STARTCHAR jisx0212_3031
ENCODING 12337
SWIDTH 960 0
DWIDTH 18 0
BBX 18 18 0 -2
BITMAP
000000
000800
000800
000800
001000
0C1000
031000
00A000
006000
005000
008800
008400
010200
220000
240000
280000
300000
000000
ENDCHAR

STARTCHAR jisx0212_3032
ENCODING 12338
SWIDTH 960 0
DWIDTH 18 0
BBX 18 18 0 -2
BITMAP
000000
000C00
007000
078000
790000
010000
010000
010000
013F00
7FC000
010000
010000
010000
010100
010100
010100
00FF00
000000
ENDCHAR

STARTCHAR jisx0212_3033
ENCODING 12339
SWIDTH 960 0
DWIDTH 18 0
BBX 18 18 0 -2
BITMAP
000000
000C00
01F000
3E8000
008000
048200
08C400
08C800
10B000
22A000
449000
048800
088400
108300
208080
408000
008000
000000
ENDCHAR

STARTCHAR jisx0212_3034
ENCODING 12340
SWIDTH 960 0
DWIDTH 18 0
BBX 18 18 0 -2
BITMAP
000000
000000
100000
100000
100000
100000
100000
100000
100000
100000
100000
100000
100200
100200
100200
0FFE00
000000
000000
ENDCHAR

STARTCHAR jisx0212_3035
ENCODING 12341
SWIDTH 960 0
DWIDTH 18 0
BBX 18 18 0 -2
BITMAP
000000
040000
040000
040000
040600
043A00
05C200
0E0200
740200
040400
040400
041800
040000
040100
040100
040100
03FF00
000000
ENDCHAR

STARTCHAR jisx0212_3036
ENCODING 12342
SWIDTH 960 0
DWIDTH 18 0
BBX 18 18 0 -2
BITMAP
000000
041000
041000
081000
081000
101000
511000
211000
121000
0A1000
041000
091000
091000
109080
279080
785080
004F80
000000
ENDCHAR

STARTCHAR jisx0212_3037
ENCODING 12343
SWIDTH 960 0
DWIDTH 18 0
BBX 18 18 0 -2
BITMAP
000000
041000
081000
081000
111000
109000
279000
785000
005000
001000
3F9000
209000
209000
209080
209080
3F9080
208F80
000000
ENDCHAR

STARTCHAR jisx0212_3038
ENCODING 12344
SWIDTH 960 0
DWIDTH 18 0
BBX 18 18 0 -2
BITMAP
000000
041000
041000
041000
041000
07D000
041000
041000
041000
041000
3F9000
209000
209000
209080
209080
3F9080
208F80
000000
ENDCHAR

STARTCHAR jisx0212_3039
ENCODING 12345
SWIDTH 960 0
DWIDTH 18 0
BBX 18 18 0 -2
BITMAP
000000
080300
087C00
7F4000
084000
0F7F80
784400
084400
088400
3B0400
000400
3FC000
008000
010080
020080
040080
03FF00
000000
ENDCHAR

STARTCHAR jisx0212_303A
ENCODING 12346
SWIDTH 960 0
DWIDTH 18 0
BBX 18 18 0 -2
BITMAP
000000
041000
041000
041000
3F9000
111000
111000
0A1000
0A1000
7FD000
041000
041000
3F9000
041080
041080
041080
040F80
000000
ENDCHAR

STARTCHAR jisx0212_303B
ENCODING 12347
SWIDTH 960 0
DWIDTH 18 0
BBX 18 18 0 -2
BITMAP
000000
041000
041000
7FD000
041000
041000
3F9000
209000
3F9000
209000
3F9000
041000
041000
7FD080
041080
041080
040F80
000000
ENDCHAR

STARTCHAR jisx0212_303C
ENCODING 12348
SWIDTH 960 0
DWIDTH 18 0
BBX 18 18 0 -2
BITMAP
000000
019000
1E1000
209000
245000
425000
041000
291000
121000
0D1000
089000
7F5000
045000
151080
149080
249080
440F80
000000
ENDCHAR

STARTCHAR jisx0212_303D
ENCODING 12349
SWIDTH 960 0
DWIDTH 18 0
BBX 18 18 0 -2
BITMAP
000000
000000
3FFE00
000000
000000
000000
000000
7FFF00
008000
008000
008000
008000
008000
008000
008000
008000
078000
000000
ENDCHAR

STARTCHAR jisx0212_303E
ENCODING 12350
SWIDTH 960 0
DWIDTH 18 0
BBX 18 18 0 -2
BITMAP
000000
000000
1FFC00
000000
000000
000000
000000
3FFF00
000000
000000
000000
1FFE00
000000
000000
000000
000000
7FFF80
000000
ENDCHAR

STARTCHAR jisx0212_303F
ENCODING 12351
SWIDTH 960 0
DWIDTH 18 0
BBX 18 18 0 -2
BITMAP
000000
008000
008000
208200
208200
208200
208200
3FFE00
200200
000000
000000
1FFC00
000000
000000
000000
000000
7FFF00
000000
ENDCHAR

STARTCHAR jisx0212_3040
ENCODING 12352
SWIDTH 960 0
DWIDTH 18 0
BBX 18 18 0 -2
BITMAP
000000
008000
011000
010800
027C00
1F8200
080800
0A0A00
111100
179700
787880
000000
000000
0FFC00
000000
000000
3FFF00
000000
ENDCHAR

STARTCHAR jisx0212_3041
ENCODING 12353
SWIDTH 960 0
DWIDTH 18 0
BBX 18 18 0 -2
BITMAP
000000
008000
008000
7FFF00
000000
0FF800
080800
080800
0FF800
000000
3FFE00
200200
200200
3FFE00
200200
200200
3FFE00
000000
ENDCHAR

STARTCHAR jisx0212_3042
ENCODING 12354
SWIDTH 960 0
DWIDTH 18 0
BBX 18 18 0 -2
BITMAP
000000
008000
7FFF00
080000
33EE00
222200
3BAE00
222200
3BAE00
22A200
7FFF00
480900
4FF900
080800
0FF800
080800
7FFF00
000000
ENDCHAR

STARTCHAR jisx0212_3043
ENCODING 12355
SWIDTH 960 0
DWIDTH 18 0
BBX 18 18 0 -2
BITMAP
000000
080000
080000
0BFF80
101000
101000
301000
301000
501000
101000
101000
101000
101000
101000
101000
101000
107000
000000
ENDCHAR

STARTCHAR jisx0212_3044
ENCODING 12356
SWIDTH 960 0
DWIDTH 18 0
BBX 18 18 0 -2
BITMAP
000000
008000
014000
022000
041000
080800
308600
408100
008000
008000
3FFE00
008000
008000
008000
008000
008000
008000
000000
ENDCHAR

STARTCHAR jisx0212_3045
ENCODING 12357
SWIDTH 960 0
DWIDTH 18 0
BBX 18 18 0 -2
BITMAP
000000
008000
014000
022000
041000
080800
300600
408100
008000
008000
208200
208200
208200
208200
208200
3FFE00
200200
000000
ENDCHAR

STARTCHAR jisx0212_3046
ENCODING 12358
SWIDTH 960 0
DWIDTH 18 0
BBX 18 18 0 -2
BITMAP
000000
080000
080600
083800
13C000
104000
304000
304000
505F00
17E000
104000
104000
104000
104000
104100
104100
103F00
000000
ENDCHAR

STARTCHAR jisx0212_3047
ENCODING 12359
SWIDTH 960 0
DWIDTH 18 0
BBX 18 18 0 -2
BITMAP
000000
080000
09FF00
081000
101000
101000
301000
301000
53FF80
101000
101000
101000
101000
101000
101000
101000
101000
000000
ENDCHAR

STARTCHAR jisx0212_3048
ENCODING 12360
SWIDTH 960 0
DWIDTH 18 0
BBX 18 18 0 -2
BITMAP
000000
084000
084000
088000
10FF80
110000
310000
320000
55F000
101000
102000
104000
108000
108080
110080
110080
10FF00
000000
ENDCHAR

STARTCHAR jisx0212_3049
ENCODING 12361
SWIDTH 960 0
DWIDTH 18 0
BBX 18 18 0 -2
BITMAP
000000
084000
084000
088000
10FF00
110100
310100
320100
544100
102100
101100
101100
100100
100100
100200
100200
101C00
000000
ENDCHAR

STARTCHAR jisx0212_304A
ENCODING 12362
SWIDTH 960 0
DWIDTH 18 0
BBX 18 18 0 -2
BITMAP
000000
080000
0BFF00
080000
100000
100000
300000
300000
51FE00
100000
100000
100000
100000
100000
100000
17FF80
100000
000000
ENDCHAR

STARTCHAR jisx0212_304B
ENCODING 12363
SWIDTH 960 0
DWIDTH 18 0
BBX 18 18 0 -2
BITMAP
000000
081000
081000
081000
109400
109200
309100
311100
511080
121280
121280
147400
100400
100800
103000
10C000
170000
000000
ENDCHAR

STARTCHAR jisx0212_304C
ENCODING 12364
SWIDTH 960 0
DWIDTH 18 0
BBX 18 18 0 -2
BITMAP
000000
086000
085000
088800
108400
110200
320100
34F880
500000
100000
13FE00
100200
100400
100400
100800
100800
101000
000000
ENDCHAR

STARTCHAR jisx0212_304D
ENCODING 12365
SWIDTH 960 0
DWIDTH 18 0
BBX 18 18 0 -2
BITMAP
000000
090800
090800
090800
110800
110880
310900
31EA00
510C00
110800
110800
110800
110800
110800
112880
11C880
170780
000000
ENDCHAR

STARTCHAR jisx0212_304E
ENCODING 12366
SWIDTH 960 0
DWIDTH 18 0
BBX 18 18 0 -2
BITMAP
000000
088000
088000
088000
11FF00
111000
311000
321000
541000
101000
17FF80
101000
101000
101000
101000
101000
101000
000000
ENDCHAR

STARTCHAR jisx0212_304F
ENCODING 12367
SWIDTH 960 0
DWIDTH 18 0
BBX 18 18 0 -2
BITMAP
000000
08FC00
080400
088400
108400
110200
310200
320100
55FE80
104200
104200
104200
108200
108200
110400
120400
143800
000000
ENDCHAR

STARTCHAR jisx0212_3050
ENCODING 12368
SWIDTH 960 0
DWIDTH 18 0
BBX 18 18 0 -2
BITMAP
000000
080000
0BFF00
088000
108000
108000
31FE00
310200
510200
110200
120400
13FC00
120400
120400
100800
100800
17FF80
000000
ENDCHAR

STARTCHAR jisx0212_3051
ENCODING 12369
SWIDTH 960 0
DWIDTH 18 0
BBX 18 18 0 -2
BITMAP
000000
082000
082000
082000
17FF80
104000
304000
304000
507E00
104200
108200
108200
108200
110200
110400
120400
143800
000000
ENDCHAR

STARTCHAR jisx0212_3052
ENCODING 12370
SWIDTH 960 0
DWIDTH 18 0
BBX 18 18 0 -2
BITMAP
000000
087C00
080400
088400
108200
110200
310100
322100
542080
104000
104000
104400
108200
108100
111F00
17E080
100080
000000
ENDCHAR

STARTCHAR jisx0212_3053
ENCODING 12371
SWIDTH 960 0
DWIDTH 18 0
BBX 18 18 0 -2
BITMAP
000000
081000
081000
081000
13FF80
101000
301000
31FF00
511100
111100
111100
111100
111100
111100
111700
101000
101000
000000
ENDCHAR

STARTCHAR jisx0212_3054
ENCODING 12372
SWIDTH 960 0
DWIDTH 18 0
BBX 18 18 0 -2
BITMAP
000000
080000
0BFF00
080200
108400
104800
303000
301000
57FF80
101080
101100
101200
101000
101000
101000
101000
10F000
000000
ENDCHAR

STARTCHAR jisx0212_3055
ENCODING 12373
SWIDTH 960 0
DWIDTH 18 0
BBX 18 18 0 -2
BITMAP
000000
080000
083000
080C00
100200
104000
304000
304200
524100
124100
124080
124080
144080
144080
104200
104200
103E00
000000
ENDCHAR

STARTCHAR jisx0212_3056
ENCODING 12374
SWIDTH 960 0
DWIDTH 18 0
BBX 18 18 0 -2
BITMAP
000000
080000
0BFE00
084200
104200
104400
304400
30FF00
50A100
10A100
109200
109200
110C00
110C00
121200
126100
158080
000000
ENDCHAR

STARTCHAR jisx0212_3057
ENCODING 12375
SWIDTH 960 0
DWIDTH 18 0
BBX 18 18 0 -2
BITMAP
000000
080000
09FF80
090000
110000
110000
313F00
312100
512100
112100
112100
112700
112000
122000
122080
122080
141F80
000000
ENDCHAR

STARTCHAR jisx0212_3058
ENCODING 12376
SWIDTH 960 0
DWIDTH 18 0
BBX 18 18 0 -2
BITMAP
000000
080100
080E00
08F000
108000
108000
308000
30FF80
508400
108400
108400
108400
110400
110400
110400
120400
140400
000000
ENDCHAR

STARTCHAR jisx0212_3059
ENCODING 12377
SWIDTH 960 0
DWIDTH 18 0
BBX 18 18 0 -2
BITMAP
000000
081000
081000
081000
11FF00
101000
301000
301000
53FF80
101000
101000
102800
102800
104400
108200
110100
160080
000000
ENDCHAR

STARTCHAR jisx0212_305A
ENCODING 12378
SWIDTH 960 0
DWIDTH 18 0
BBX 18 18 0 -2
BITMAP
000000
084000
084000
084000
17FF80
104000
304000
307E00
504200
10C200
10A400
10A400
111800
111800
122400
14C300
130080
000000
ENDCHAR

STARTCHAR jisx0212_305B
ENCODING 12379
SWIDTH 960 0
DWIDTH 18 0
BBX 18 18 0 -2
BITMAP
000000
00C000
012000
021000
040800
080400
300300
400080
041000
041000
041000
041000
0A2800
092800
114400
208200
430180
000000
ENDCHAR

STARTCHAR jisx0212_305C
ENCODING 12380
SWIDTH 960 0
DWIDTH 18 0
BBX 18 18 0 -2
BITMAP
000000
081000
081000
081000
101080
111100
311200
311400
511000
123000
122800
102800
104400
104400
108200
110100
160080
000000
ENDCHAR

STARTCHAR jisx0212_305D
ENCODING 12381
SWIDTH 960 0
DWIDTH 18 0
BBX 18 18 0 -2
BITMAP
000000
090000
093F00
091100
111100
17D100
325100
325100
525100
124A00
124A00
174A00
148400
14C400
112A00
121100
142080
000000
ENDCHAR

STARTCHAR jisx0212_305E
ENCODING 12382
SWIDTH 960 0
DWIDTH 18 0
BBX 18 18 0 -2
BITMAP
000000
081000
082800
084400
108200
110100
321080
341000
501000
109200
109100
111100
111080
121080
141080
101000
107000
000000
ENDCHAR

STARTCHAR jisx0212_305F
ENCODING 12383
SWIDTH 960 0
DWIDTH 18 0
BBX 18 18 0 -2
BITMAP
000000
088000
088000
088000
11FF80
111080
311100
321000
549400
109200
109100
111100
111080
121080
141080
101000
10F000
000000
ENDCHAR

STARTCHAR jisx0212_3060
ENCODING 12384
SWIDTH 960 0
DWIDTH 18 0
BBX 18 18 0 -2
BITMAP
000000
082400
092400
092400
112400
112400
37FF80
312400
512400
112400
112400
113C00
112400
110000
110000
11FF80
110000
000000
ENDCHAR

STARTCHAR jisx0212_3061
ENCODING 12385
SWIDTH 960 0
DWIDTH 18 0
BBX 18 18 0 -2
BITMAP
000000
080000
0BFF00
0A4900
124900
124900
324900
324900
524900
124900
128900
128F00
130100
120100
120100
13FF00
120100
000000
ENDCHAR

STARTCHAR jisx0212_3062
ENCODING 12386
SWIDTH 960 0
DWIDTH 18 0
BBX 18 18 0 -2
BITMAP
000000
081000
081000
081000
101000
11FF00
311100
311100
511100
111100
11FF00
111100
111100
111100
111100
11FF00
110100
000000
ENDCHAR

STARTCHAR jisx0212_3063
ENCODING 12387
SWIDTH 960 0
DWIDTH 18 0
BBX 18 18 0 -2
BITMAP
000000
080000
09FE00
090200
110200
110200
31FE00
310200
510200
110200
11FE00
110200
110200
110200
110200
17FF80
100000
000000
ENDCHAR

STARTCHAR jisx0212_3064
ENCODING 12388
SWIDTH 960 0
DWIDTH 18 0
BBX 18 18 0 -2
BITMAP
000000
080000
09FF00
081000
109200
109100
311100
311080
521080
101000
17FF80
101000
101000
101000
101000
101000
101000
000000
ENDCHAR

STARTCHAR jisx0212_3065
ENCODING 12389
SWIDTH 960 0
DWIDTH 18 0
BBX 18 18 0 -2
BITMAP
000000
080000
0BFF00
081000
102000
102000
304000
306800
50A400
112200
122100
142080
102000
102000
102000
100000
17FF80
000000
ENDCHAR

STARTCHAR jisx0212_3066
ENCODING 12390
SWIDTH 960 0
DWIDTH 18 0
BBX 18 18 0 -2
BITMAP
000000
080000
09FE00
090200
110200
110200
310200
31FE00
510000
110000
11FF00
110100
110100
110100
110100
11FF00
110100
000000
ENDCHAR

STARTCHAR jisx0212_3067
ENCODING 12391
SWIDTH 960 0
DWIDTH 18 0
BBX 18 18 0 -2
BITMAP
000000
080000
0BFF80
081000
101000
101000
301000
311000
511F00
111000
111000
111000
111000
111000
111000
17FF80
100000
000000
ENDCHAR

STARTCHAR jisx0212_3068
ENCODING 12392
SWIDTH 960 0
DWIDTH 18 0
BBX 18 18 0 -2
BITMAP
000000
084000
084000
084000
17FF80
108000
309000
311000
51FF00
131100
151100
191100
111100
111100
111700
101000
101000
000000
ENDCHAR

STARTCHAR jisx0212_3069
ENCODING 12393
SWIDTH 960 0
DWIDTH 18 0
BBX 18 18 0 -2
BITMAP
000000
081000
081000
081000
11FF00
101000
301000
301000
53FF80
101000
102000
102400
104200
104100
109F00
13E080
100080
000000
ENDCHAR

STARTCHAR jisx0212_306A
ENCODING 12394
SWIDTH 960 0
DWIDTH 18 0
BBX 18 18 0 -2
BITMAP
000000
080000
0BFF00
084100
104100
104100
308100
308200
511C00
160000
11FF00
110100
110100
110100
110100
11FF00
110100
000000
ENDCHAR

STARTCHAR jisx0212_306B
ENCODING 12395
SWIDTH 960 0
DWIDTH 18 0
BBX 18 18 0 -2
BITMAP
000000
084400
084400
084400
104400
124480
324500
327600
524400
124400
124400
124400
124400
124400
127480
13C480
160780
000000
ENDCHAR

STARTCHAR jisx0212_306C
ENCODING 12396
SWIDTH 960 0
DWIDTH 18 0
BBX 18 18 0 -2
BITMAP
000000
081000
081000
081000
11FF00
111100
311100
311100
511100
111100
17FF80
101000
102800
102800
104400
118300
160080
000000
ENDCHAR

STARTCHAR jisx0212_306D
ENCODING 12397
SWIDTH 960 0
DWIDTH 18 0
BBX 18 18 0 -2
BITMAP
000000
082000
082000
082000
102000
103F80
302000
302000
502000
102000
11FF00
110100
110100
110100
110100
11FF00
110100
000000
ENDCHAR

STARTCHAR jisx0212_306E
ENCODING 12398
SWIDTH 960 0
DWIDTH 18 0
BBX 18 18 0 -2
BITMAP
000000
084000
082000
081200
108200
108400
308400
308800
528A00
129100
129100
14A080
14C080
108400
118400
127C00
140000
000000
ENDCHAR

STARTCHAR jisx0212_306F
ENCODING 12399
SWIDTH 960 0
DWIDTH 18 0
BBX 18 18 0 -2
BITMAP
000000
008000
014000
022000
041000
080800
300600
4FF900
000000
000000
3FFE00
008000
049000
088C00
308200
408100
038000
000000
ENDCHAR

STARTCHAR jisx0212_3070
ENCODING 12400
SWIDTH 960 0
DWIDTH 18 0
BBX 18 18 0 -2
BITMAP
000000
084000
084000
087E00
108200
108400
314400
322800
543000
104800
118600
166180
101800
100000
100300
103C00
11C000
000000
ENDCHAR

STARTCHAR jisx0212_3071
ENCODING 12401
SWIDTH 960 0
DWIDTH 18 0
BBX 18 18 0 -2
BITMAP
000000
080000
0BFF00
0A2100
122100
122100
33FF00
322100
522100
122100
13FF00
122100
122100
122100
122100
142100
140700
000000
ENDCHAR

STARTCHAR jisx0212_3072
ENCODING 12402
SWIDTH 960 0
DWIDTH 18 0
BBX 18 18 0 -2
BITMAP
000000
080000
0BFF00
0A0100
120100
127900
324900
324900
524900
124900
124900
124900
127900
120100
120100
13FF00
120100
000000
ENDCHAR

STARTCHAR jisx0212_3073
ENCODING 12403
SWIDTH 960 0
DWIDTH 18 0
BBX 18 18 0 -2
BITMAP
000000
084000
084100
0BFA00
104200
104400
304800
37FF80
501000
10A000
10C200
118C00
16F000
108000
108100
108100
107F00
000000
ENDCHAR

STARTCHAR jisx0212_3074
ENCODING 12404
SWIDTH 960 0
DWIDTH 18 0
BBX 18 18 0 -2
BITMAP
000000
083000
084800
084800
108400
108400
310200
32FD00
540080
100000
11FE00
110200
110200
110200
110200
11FE00
110200
000000
ENDCHAR

STARTCHAR jisx0212_3075
ENCODING 12405
SWIDTH 960 0
DWIDTH 18 0
BBX 18 18 0 -2
BITMAP
000000
00C000
012000
021000
040800
080400
33F300
400080
000000
3FFF00
004000
084000
087E00
084000
084000
084000
7FFF80
000000
ENDCHAR

STARTCHAR jisx0212_3076
ENCODING 12406
SWIDTH 960 0
DWIDTH 18 0
BBX 18 18 0 -2
BITMAP
000000
080000
09FF00
090100
110100
11FF00
310100
310100
51FF00
111000
111080
110900
110A00
110400
113200
11C100
160080
000000
ENDCHAR

STARTCHAR jisx0212_3077
ENCODING 12407
SWIDTH 960 0
DWIDTH 18 0
BBX 18 18 0 -2
BITMAP
000000
080000
080700
09F800
101000
101000
33FF80
301000
501000
101000
11FF00
110100
110100
110100
110100
11FF00
110100
000000
ENDCHAR

STARTCHAR jisx0212_3078
ENCODING 12408
SWIDTH 960 0
DWIDTH 18 0
BBX 18 18 0 -2
BITMAP
000000
084000
084000
08FC00
108400
110800
33FF80
350000
513E00
112200
112200
112200
112E00
122000
122080
122080
141F80
000000
ENDCHAR

STARTCHAR jisx0212_3079
ENCODING 12409
SWIDTH 960 0
DWIDTH 18 0
BBX 18 18 0 -2
BITMAP
000000
080000
09F000
082800
104400
108200
310100
320080
55FF00
101000
101000
101000
10FE00
101000
101000
101000
13FF80
000000
ENDCHAR

STARTCHAR jisx0212_307A
ENCODING 12410
SWIDTH 960 0
DWIDTH 18 0
BBX 18 18 0 -2
BITMAP
000000
081000
081000
081000
17A000
103F80
304880
304900
508900
104A00
118800
161400
101400
102200
104200
118100
160080
000000
ENDCHAR

STARTCHAR jisx0212_307B
ENCODING 12411
SWIDTH 960 0
DWIDTH 18 0
BBX 18 18 0 -2
BITMAP
000000
08FC00
080400
090200
110200
120100
35FE80
310200
510200
11FE00
110200
110200
11FE00
110200
110200
120200
140E00
000000
ENDCHAR

STARTCHAR jisx0212_307C
ENCODING 12412
SWIDTH 960 0
DWIDTH 18 0
BBX 18 18 0 -2
BITMAP
000000
082000
092000
092000
13FF00
122000
342000
302000
57FF80
108800
108800
108800
108800
110800
110880
120880
140780
000000
ENDCHAR

STARTCHAR jisx0212_307D
ENCODING 12413
SWIDTH 960 0
DWIDTH 18 0
BBX 18 18 0 -2
BITMAP
000000
081000
081000
0BFF80
120000
120200
321C00
32F000
521000
121000
121F00
12F000
121000
121000
121080
141080
140F80
000000
ENDCHAR

STARTCHAR jisx0212_307E
ENCODING 12414
SWIDTH 960 0
DWIDTH 18 0
BBX 18 18 0 -2
BITMAP
000000
080000
0BFF00
082000
102000
104400
304200
309D00
53E080
101000
101000
101000
11FF00
101000
101000
101000
13FF80
000000
ENDCHAR

STARTCHAR jisx0212_3121
ENCODING 12577
SWIDTH 960 0
DWIDTH 18 0
BBX 18 18 0 -2
BITMAP
000000
081000
081000
081000
13FF80
101000
302000
314400
508800
105100
102200
104400
118800
121400
102200
10C100
130080
000000
ENDCHAR

STARTCHAR jisx0212_3122
ENCODING 12578
SWIDTH 960 0
DWIDTH 18 0
BBX 18 18 0 -2
BITMAP
000000
084000
084000
0FFF00
109000
110800
31F400
320300
540080
1BFE00
108000
108000
11FE00
110200
110200
100400
103800
000000
ENDCHAR

STARTCHAR jisx0212_3123
ENCODING 12579
SWIDTH 960 0
DWIDTH 18 0
BBX 18 18 0 -2
BITMAP
000000
082000
082100
0A2100
122200
112200
312400
302000
57FF80
108800
108800
108800
108800
110800
110880
120880
140780
000000
ENDCHAR

STARTCHAR jisx0212_3124
ENCODING 12580
SWIDTH 960 0
DWIDTH 18 0
BBX 18 18 0 -2
BITMAP
000000
00C000
012000
021000
040800
1BE600
600180
0FF800
000800
001000
1FFE00
000000
7FFF80
011000
020C00
04FA00
3F0100
000000
ENDCHAR

STARTCHAR jisx0212_3125
ENCODING 12581
SWIDTH 960 0
DWIDTH 18 0
BBX 18 18 0 -2
BITMAP
000000
082000
0A2100
0A2100
112200
112200
312400
302000
57FF80
107000
10A800
10A400
112200
122100
142080
102000
102000
000000
ENDCHAR

STARTCHAR jisx0212_3126
ENCODING 12582
SWIDTH 960 0
DWIDTH 18 0
BBX 18 18 0 -2
BITMAP
000000
082000
082000
084000
13FF00
124900
324900
324900
524900
124900
124900
124900
124900
124900
124900
124900
17FF80
000000
ENDCHAR

STARTCHAR jisx0212_3127
ENCODING 12583
SWIDTH 960 0
DWIDTH 18 0
BBX 18 18 0 -2
BITMAP
000000
082000
082000
0BFF00
120100
122100
302000
304000
57FF80
108400
108400
110800
11E800
121800
102400
10C200
170100
000000
ENDCHAR

STARTCHAR jisx0212_3128
ENCODING 12584
SWIDTH 960 0
DWIDTH 18 0
BBX 18 18 0 -2
BITMAP
000000
082000
082000
0BFE00
102200
17FF80
302200
33FE00
502000
102000
13FF00
102000
102000
17FF80
102000
102000
102000
000000
ENDCHAR

STARTCHAR jisx0212_3129
ENCODING 12585
SWIDTH 960 0
DWIDTH 18 0
BBX 18 18 0 -2
BITMAP
000000
082000
084400
084200
109D00
13E080
301000
311000
51FF00
121000
121000
101000
17FF80
101000
101000
101000
101000
000000
ENDCHAR

STARTCHAR jisx0212_312A
ENCODING 12586
SWIDTH 960 0
DWIDTH 18 0
BBX 18 18 0 -2
BITMAP
000000
080000
0BFF00
0A0100
120100
12FD00
320100
320100
527900
124900
124900
124900
127900
124100
124100
120100
120700
000000
ENDCHAR

STARTCHAR jisx0212_312B
ENCODING 12587
SWIDTH 960 0
DWIDTH 18 0
BBX 18 18 0 -2
BITMAP
000000
080800
080A00
080900
100800
17FF80
300800
300800
500800
13E800
108400
108400
108400
109280
10E280
170180
100080
000000
ENDCHAR

STARTCHAR jisx0212_312C
ENCODING 12588
SWIDTH 960 0
DWIDTH 18 0
BBX 18 18 0 -2
BITMAP
000000
088000
088000
090000
11FF00
120100
320100
35F100
511100
111100
11F100
111100
111100
11F100
110200
100200
101C00
000000
ENDCHAR

STARTCHAR jisx0212_312D
ENCODING 12589
SWIDTH 960 0
DWIDTH 18 0
BBX 18 18 0 -2
BITMAP
000000
090000
090000
091F00
111100
17D100
325100
325100
525100
125100
145100
169100
159100
109100
115F00
121100
141000
000000
ENDCHAR

STARTCHAR jisx0212_312E
ENCODING 12590
SWIDTH 960 0
DWIDTH 18 0
BBX 18 18 0 -2
BITMAP
000000
084000
084000
088000
17FF00
108000
310000
317F00
530200
130C00
150800
197F80
110800
110800
110800
110800
113800
000000
ENDCHAR

STARTCHAR jisx0212_312F
ENCODING 12591
SWIDTH 960 0
DWIDTH 18 0
BBX 18 18 0 -2
BITMAP
000000
080000
0BFF80
0A0000
120000
127E00
320000
320000
53FF80
124800
124880
124900
124600
124400
124200
147900
15C080
000000
ENDCHAR

STARTCHAR jisx0212_3130
ENCODING 12592
SWIDTH 960 0
DWIDTH 18 0
BBX 18 18 0 -2
BITMAP
000000
080000
09FF00
090100
110100
11FF00
310000
310000
51FF80
110080
117C80
114480
114480
127C80
124080
120100
140E00
000000
ENDCHAR

STARTCHAR jisx0212_3131
ENCODING 12593
SWIDTH 960 0
DWIDTH 18 0
BBX 18 18 0 -2
BITMAP
000000
080000
0B8180
089E00
108400
110400
310400
33DF80
524400
104400
124400
124400
158400
109F80
114000
123000
140F80
000000
ENDCHAR

STARTCHAR jisx0212_3132
ENCODING 12594
SWIDTH 960 0
DWIDTH 18 0
BBX 18 18 0 -2
BITMAP
000000
08FC00
080400
088400
108200
110200
33FF00
350280
510200
110200
11FE00
104800
104800
104800
108880
110880
160780
000000
ENDCHAR

STARTCHAR jisx0212_3133
ENCODING 12595
SWIDTH 960 0
DWIDTH 18 0
BBX 18 18 0 -2
BITMAP
000000
081000
081000
0BFF80
101000
101000
33FF80
320080
52FE80
100400
101800
101000
13FF80
101000
101000
101000
107000
000000
ENDCHAR

STARTCHAR jisx0212_3134
ENCODING 12596
SWIDTH 960 0
DWIDTH 18 0
BBX 18 18 0 -2
BITMAP
000000
080000
0BFF00
0A2100
122100
13FF00
322100
322100
53FF00
102000
102000
17FF80
104080
104080
108080
110100
160E00
000000
ENDCHAR

STARTCHAR jisx0212_3135
ENCODING 12597
SWIDTH 960 0
DWIDTH 18 0
BBX 18 18 0 -2
BITMAP
000000
084000
084100
0BFA00
104400
104800
37FF80
302000
507E00
108400
131800
1C1000
13FF80
101000
101000
101000
107000
000000
ENDCHAR

STARTCHAR jisx0212_3136
ENCODING 12598
SWIDTH 960 0
DWIDTH 18 0
BBX 18 18 0 -2
BITMAP
000000
080700
09F800
090400
112200
111100
320880
320000
542000
102000
17FF80
104200
108200
10F400
110E00
103100
17C080
000000
ENDCHAR

STARTCHAR jisx0212_3137
ENCODING 12599
SWIDTH 960 0
DWIDTH 18 0
BBX 18 18 0 -2
BITMAP
000000
080000
087E00
0A4200
124200
124200
327E00
320000
520000
13FE00
102200
102200
17FF80
103000
104800
118600
160180
000000
ENDCHAR

STARTCHAR jisx0212_3138
ENCODING 12600
SWIDTH 960 0
DWIDTH 18 0
BBX 18 18 0 -2
BITMAP
000000
082400
082200
082000
17FF00
102000
322100
323200
513400
112800
102800
10A400
112200
122100
142080
102000
10E000
000000
ENDCHAR

STARTCHAR jisx0212_3139
ENCODING 12601
SWIDTH 960 0
DWIDTH 18 0
BBX 18 18 0 -2
BITMAP
000000
081000
082800
084400
108200
110100
320080
34FE00
501000
101000
13FF80
101000
111200
111100
121080
141080
107000
000000
ENDCHAR

STARTCHAR jisx0212_313A
ENCODING 12602
SWIDTH 960 0
DWIDTH 18 0
BBX 18 18 0 -2
BITMAP
000000
081000
089000
089000
11FF00
111000
321000
301000
53FF80
101000
100000
11FF00
110100
110100
110100
11FF00
110100
000000
ENDCHAR

STARTCHAR jisx0212_313B
ENCODING 12603
SWIDTH 960 0
DWIDTH 18 0
BBX 18 18 0 -2
BITMAP
000000
080000
0BFF00
084000
104000
13FC00
308400
308400
57FF80
100000
100000
11FE00
110200
110200
110200
11FE00
110200
000000
ENDCHAR

STARTCHAR jisx0212_313C
ENCODING 12604
SWIDTH 960 0
DWIDTH 18 0
BBX 18 18 0 -2
BITMAP
000000
080000
09FE00
090200
110200
11FE00
300000
33FF00
522100
122100
122100
13FF00
120100
120000
120080
120080
11FF80
000000
ENDCHAR

STARTCHAR jisx0212_313D
ENCODING 12605
SWIDTH 960 0
DWIDTH 18 0
BBX 18 18 0 -2
BITMAP
000000
082400
082200
0FFF80
102000
102000
33FF00
322100
522100
13FF00
122100
122100
13FF00
122100
122100
122100
122700
000000
ENDCHAR

STARTCHAR jisx0212_313E
ENCODING 12606
SWIDTH 960 0
DWIDTH 18 0
BBX 18 18 0 -2
BITMAP
000000
081000
081000
09FF00
110100
110100
31FF00
310100
510100
11FF00
111080
111100
110A00
110C00
110400
117200
178180
000000
ENDCHAR

STARTCHAR jisx0212_313F
ENCODING 12607
SWIDTH 960 0
DWIDTH 18 0
BBX 18 18 0 -2
BITMAP
000000
082000
08A400
092200
112100
122080
35FE80
310200
510200
11FE00
110200
110200
11FE00
110200
110200
110200
110E00
000000
ENDCHAR

STARTCHAR jisx0212_3140
ENCODING 12608
SWIDTH 960 0
DWIDTH 18 0
BBX 18 18 0 -2
BITMAP
000000
081000
081000
0BFF80
120080
120080
30FE00
300000
500000
13FF80
104800
104800
104800
108800
108880
110880
160780
000000
ENDCHAR

STARTCHAR jisx0212_3141
ENCODING 12609
SWIDTH 960 0
DWIDTH 18 0
BBX 18 18 0 -2
BITMAP
000000
082000
0BFF00
0A2100
122100
13FF00
322100
322100
53FF00
100000
17FF80
108000
10FF00
110100
110100
100200
101C00
000000
ENDCHAR

STARTCHAR jisx0212_3142
ENCODING 12610
SWIDTH 960 0
DWIDTH 18 0
BBX 18 18 0 -2
BITMAP
000000
082000
082000
082000
17FF80
102000
312200
312200
512200
12A500
12A500
142800
105000
104800
108400
110300
160080
000000
ENDCHAR

STARTCHAR jisx0212_3143
ENCODING 12611
SWIDTH 960 0
DWIDTH 18 0
BBX 18 18 0 -2
BITMAP
000000
088000
088000
09FF80
118400
124800
343000
304800
518600
162180
104400
118800
163100
10C200
130C00
107000
138000
000000
ENDCHAR

STARTCHAR jisx0212_3144
ENCODING 12612
SWIDTH 960 0
DWIDTH 18 0
BBX 18 18 0 -2
BITMAP
000000
080000
08C000
0B1F00
111100
111100
37D100
311100
511100
139100
135100
135100
151100
151100
111F00
111100
111000
000000
ENDCHAR

STARTCHAR jisx0212_3145
ENCODING 12613
SWIDTH 960 0
DWIDTH 18 0
BBX 18 18 0 -2
BITMAP
000000
088400
088400
088400
17E400
101F80
324480
322480
542480
104480
124480
118880
108880
114880
125100
142100
104600
000000
ENDCHAR

STARTCHAR jisx0212_3146
ENCODING 12614
SWIDTH 960 0
DWIDTH 18 0
BBX 18 18 0 -2
BITMAP
000000
082000
082000
0BFF80
104000
104400
309E00
33E100
500080
11FE00
110200
11FE00
110200
11FE00
110200
110200
110E00
000000
ENDCHAR

STARTCHAR jisx0212_3147
ENCODING 12615
SWIDTH 960 0
DWIDTH 18 0
BBX 18 18 0 -2
BITMAP
000000
080400
086400
0B8800
120800
120F80
321480
33F480
524500
124500
124400
124400
124A00
124A00
124900
145100
145080
000000
ENDCHAR

STARTCHAR jisx0212_3148
ENCODING 12616
SWIDTH 960 0
DWIDTH 18 0
BBX 18 18 0 -2
BITMAP
000000
082000
083E00
082000
13FF80
122080
322100
33FC00
522100
123F00
120000
124800
124800
124800
144880
148880
150780
000000
ENDCHAR

STARTCHAR jisx0212_3149
ENCODING 12617
SWIDTH 960 0
DWIDTH 18 0
BBX 18 18 0 -2
BITMAP
000000
080000
09FF00
090000
11FE00
110000
31FE00
310000
510000
17FF80
111000
111100
110A00
110C00
110400
117200
178180
000000
ENDCHAR

STARTCHAR jisx0212_314A
ENCODING 12618
SWIDTH 960 0
DWIDTH 18 0
BBX 18 18 0 -2
BITMAP
000000
090000
090000
090F00
13E900
128900
328900
348900
508900
17E900
108900
108900
10C900
112900
112F00
120900
140800
000000
ENDCHAR

STARTCHAR jisx0212_314B
ENCODING 12619
SWIDTH 960 0
DWIDTH 18 0
BBX 18 18 0 -2
BITMAP
000000
098200
086400
083800
13C400
102200
37FF80
304000
508000
10FE00
118200
12FE00
148200
10FE00
108200
108200
108E00
000000
ENDCHAR

STARTCHAR jisx0212_314C
ENCODING 12620
SWIDTH 960 0
DWIDTH 18 0
BBX 18 18 0 -2
BITMAP
000000
082000
082000
0FFF80
140080
150080
310000
31DF00
525100
125100
125100
155100
189700
109000
111080
121080
140F80
000000
ENDCHAR

STARTCHAR jisx0212_314D
ENCODING 12621
SWIDTH 960 0
DWIDTH 18 0
BBX 18 18 0 -2
BITMAP
000000
08FC00
080400
088400
112200
112200
324900
344480
509E00
13E100
100000
102000
109200
128900
128080
148480
147C00
000000
ENDCHAR

STARTCHAR jisx0212_314E
ENCODING 12622
SWIDTH 960 0
DWIDTH 18 0
BBX 18 18 0 -2
BITMAP
000000
081000
081000
0BFF80
120080
120080
30FE00
308200
508200
10FE00
108000
108000
10FF00
108100
108100
10FF00
108100
000000
ENDCHAR

STARTCHAR jisx0212_314F
ENCODING 12623
SWIDTH 960 0
DWIDTH 18 0
BBX 18 18 0 -2
BITMAP
000000
084800
084800
0BFF00
124900
124900
324900
33FF00
524900
124900
124900
17FF80
100000
108400
110200
120100
140080
000000
ENDCHAR

STARTCHAR jisx0212_3150
ENCODING 12624
SWIDTH 960 0
DWIDTH 18 0
BBX 18 18 0 -2
BITMAP
000000
081000
082000
083F00
126100
129200
320C00
323600
52C180
120800
124880
124900
124A00
128800
101400
106300
118080
000000
ENDCHAR

STARTCHAR jisx0212_3151
ENCODING 12625
SWIDTH 960 0
DWIDTH 18 0
BBX 18 18 0 -2
BITMAP
000000
081000
089100
089200
111400
122800
302800
304600
519180
161000
109100
109200
112C00
122800
104400
118300
160080
000000
ENDCHAR

STARTCHAR jisx0212_3152
ENCODING 12626
SWIDTH 960 0
DWIDTH 18 0
BBX 18 18 0 -2
BITMAP
000000
080000
0BCF00
0A4900
124900
124900
334D00
32CB00
524900
124900
134D00
12CB00
124900
124900
145100
145100
15D700
000000
ENDCHAR

STARTCHAR jisx0212_3153
ENCODING 12627
SWIDTH 960 0
DWIDTH 18 0
BBX 18 18 0 -2
BITMAP
000000
082000
092400
092200
122100
122080
37FF00
320100
520100
127900
124900
124900
124900
127900
124100
120100
120700
000000
ENDCHAR

STARTCHAR jisx0212_3154
ENCODING 12628
SWIDTH 960 0
DWIDTH 18 0
BBX 18 18 0 -2
BITMAP
000000
088400
088400
0BFF00
108400
108400
30FC00
308400
508400
10FC00
108400
108400
17FF80
100000
108C00
110200
160100
000000
ENDCHAR

STARTCHAR jisx0212_3155
ENCODING 12629
SWIDTH 960 0
DWIDTH 18 0
BBX 18 18 0 -2
BITMAP
000000
080000
0BFF00
0A0100
122100
12FD00
322100
322100
52FD00
122100
120100
12F900
128900
128900
14F900
148100
140700
000000
ENDCHAR

STARTCHAR jisx0212_3156
ENCODING 12630
SWIDTH 960 0
DWIDTH 18 0
BBX 18 18 0 -2
BITMAP
000000
040800
040800
7FC800
040800
040800
3F8800
208800
3F8800
208800
3F9400
041400
041400
7FE200
042200
044100
058080
000000
ENDCHAR

STARTCHAR jisx0212_3157
ENCODING 12631
SWIDTH 960 0
DWIDTH 18 0
BBX 18 18 0 -2
BITMAP
000000
081000
081000
0BFF80
100000
100000
31FF00
310100
510100
110100
11FF00
101000
109200
111100
121080
141080
107000
000000
ENDCHAR

STARTCHAR jisx0212_3158
ENCODING 12632
SWIDTH 960 0
DWIDTH 18 0
BBX 18 18 0 -2
BITMAP
000000
081000
081000
0BFF80
101000
11FF00
301100
33FF80
501100
11FF00
101000
109000
109F00
111000
119000
125000
143F80
000000
ENDCHAR

STARTCHAR jisx0212_3159
ENCODING 12633
SWIDTH 960 0
DWIDTH 18 0
BBX 18 18 0 -2
BITMAP
000000
081000
081000
0BFF80
120080
120080
300000
30FE00
500000
100000
13FF80
101000
109200
111100
121080
141080
107000
000000
ENDCHAR

STARTCHAR jisx0212_315A
ENCODING 12634
SWIDTH 960 0
DWIDTH 18 0
BBX 18 18 0 -2
BITMAP
000000
080000
09FF00
091100
111100
11FF00
311100
311100
51FF00
101000
101000
13FF80
103800
105400
119300
161080
101000
000000
ENDCHAR

STARTCHAR jisx0212_315B
ENCODING 12635
SWIDTH 960 0
DWIDTH 18 0
BBX 18 18 0 -2
BITMAP
000000
081000
081000
09FF00
101000
101000
33FF80
304800
504880
10AF80
134000
107E00
10C200
112400
121800
106600
138180
000000
ENDCHAR

STARTCHAR jisx0212_315C
ENCODING 12636
SWIDTH 960 0
DWIDTH 18 0
BBX 18 18 0 -2
BITMAP
000000
081000
081000
0BFF80
101000
101000
31FF00
311100
51FF00
111100
11FF00
103800
105400
109200
131100
141080
101000
000000
ENDCHAR

STARTCHAR jisx0212_315D
ENCODING 12637
SWIDTH 960 0
DWIDTH 18 0
BBX 18 18 0 -2
BITMAP
000000
082000
082000
0FFF00
102000
13FE00
322200
33FE00
502000
13FE00
102200
17FF80
102200
13FE00
102000
102000
10E000
000000
ENDCHAR

STARTCHAR jisx0212_315E
ENCODING 12638
SWIDTH 960 0
DWIDTH 18 0
BBX 18 18 0 -2
BITMAP
000000
080800
080A00
0BE900
100880
100800
37FF80
304800
504800
124800
127400
124400
124480
124280
125A80
12E180
170080
000000
ENDCHAR

STARTCHAR jisx0212_315F
ENCODING 12639
SWIDTH 960 0
DWIDTH 18 0
BBX 18 18 0 -2
BITMAP
000000
084400
084400
0BFF80
104400
105400
301000
31FF00
511100
111100
111100
13FF80
101000
102800
104400
118300
160080
000000
ENDCHAR

STARTCHAR jisx0212_3160
ENCODING 12640
SWIDTH 960 0
DWIDTH 18 0
BBX 18 18 0 -2
BITMAP
000000
080600
09F800
092200
111100
120880
321000
35FF00
511100
111100
13FF80
111100
111100
13FF80
110100
110100
110700
000000
ENDCHAR

STARTCHAR jisx0212_3161
ENCODING 12641
SWIDTH 960 0
DWIDTH 18 0
BBX 18 18 0 -2
BITMAP
000000
090400
088400
088800
17FF80
100000
300000
33C100
524900
134900
12C900
124900
134900
12C900
124100
124100
12C700
000000
ENDCHAR

STARTCHAR jisx0212_3162
ENCODING 12642
SWIDTH 960 0
DWIDTH 18 0
BBX 18 18 0 -2
BITMAP
000000
080700
09F800
081000
13FF80
101000
31FF00
311100
51FF00
111100
11FF00
101000
101000
11FF00
101000
101000
13FF80
000000
ENDCHAR

STARTCHAR jisx0212_3163
ENCODING 12643
SWIDTH 960 0
DWIDTH 18 0
BBX 18 18 0 -2
BITMAP
000000
082000
082000
0BFF80
102000
11FF00
304800
304400
53FF80
108200
11FF00
128280
14FE00
108200
108200
10FE00
108200
000000
ENDCHAR

STARTCHAR jisx0212_3164
ENCODING 12644
SWIDTH 960 0
DWIDTH 18 0
BBX 18 18 0 -2
BITMAP
000000
080F00
09F000
081000
11FF00
111100
311100
31FF00
501000
101000
13FF80
121080
121480
121E80
12E280
120080
120380
000000
ENDCHAR

STARTCHAR jisx0212_3165
ENCODING 12645
SWIDTH 960 0
DWIDTH 18 0
BBX 18 18 0 -2
BITMAP
000000
088400
088400
0FFF80
108400
108400
304000
304000
57FF80
108000
108000
11FF00
128100
148100
108100
10FF00
108100
000000
ENDCHAR

STARTCHAR jisx0212_3166
ENCODING 12646
SWIDTH 960 0
DWIDTH 18 0
BBX 18 18 0 -2
BITMAP
000000
080000
09FF00
091100
111100
11FF00
311100
311100
51FF00
100000
17FF80
111100
111200
110C00
110400
117300
178080
000000
ENDCHAR

STARTCHAR jisx0212_3167
ENCODING 12647
SWIDTH 960 0
DWIDTH 18 0
BBX 18 18 0 -2
BITMAP
000000
080000
0BFE00
0A0200
121A00
12E200
322200
32FA00
52AA00
12AA00
12AA00
12FA00
122280
122A80
143580
15C580
140080
000000
ENDCHAR

STARTCHAR jisx0212_3168
ENCODING 12648
SWIDTH 960 0
DWIDTH 18 0
BBX 18 18 0 -2
BITMAP
000000
080000
09FE00
090200
11FE00
110200
31FE00
300000
57FF80
110000
11FF00
124900
144900
109100
131100
146200
118C00
000000
ENDCHAR

STARTCHAR jisx0212_3169
ENCODING 12649
SWIDTH 960 0
DWIDTH 18 0
BBX 18 18 0 -2
BITMAP
000000
080000
0BFF00
0A0100
120100
13FF00
320000
33FF80
522000
124400
13FE00
120100
121000
15FF00
141000
181000
13FF80
000000
ENDCHAR

STARTCHAR jisx0212_316A
ENCODING 12650
SWIDTH 960 0
DWIDTH 18 0
BBX 18 18 0 -2
BITMAP
000000
081000
089400
089200
111100
111280
327400
300800
503000
11FF00
168100
10FF00
108100
10FF00
108100
10FF00
108100
000000
ENDCHAR

STARTCHAR jisx0212_316B
ENCODING 12651
SWIDTH 960 0
DWIDTH 18 0
BBX 18 18 0 -2
BITMAP
000000
081000
081000
0BFF80
108200
104200
304400
33FF80
521080
121080
11FF00
111100
111100
111100
111100
111700
101000
000000
ENDCHAR

STARTCHAR jisx0212_316C
ENCODING 12652
SWIDTH 960 0
DWIDTH 18 0
BBX 18 18 0 -2
BITMAP
000000
082000
084000
09FF00
110100
11FF00
310100
31FF00
500000
100000
13FF80
101000
101000
11FF00
101000
101000
17FF80
000000
ENDCHAR

STARTCHAR jisx0212_316D
ENCODING 12653
SWIDTH 960 0
DWIDTH 18 0
BBX 18 18 0 -2
BITMAP
000000
080000
0FFF80
084800
13FF00
124900
324900
327900
520100
104000
17FF80
108400
110400
11E800
121600
106100
178080
000000
ENDCHAR

STARTCHAR jisx0212_316E
ENCODING 12654
SWIDTH 960 0
DWIDTH 18 0
BBX 18 18 0 -2
BITMAP
000000
084400
098400
0F0400
110480
111480
37D500
311500
512600
138400
134400
154A00
150A00
190A00
111100
112100
114080
000000
ENDCHAR

STARTCHAR jisx0212_316F
ENCODING 12655
SWIDTH 960 0
DWIDTH 18 0
BBX 18 18 0 -2
BITMAP
000000
082000
082000
0BFF00
110400
108400
308800
37FF80
500000
11FE00
110200
110200
11FE00
110200
110200
11FE00
110200
000000
ENDCHAR

STARTCHAR jisx0212_3170
ENCODING 12656
SWIDTH 960 0
DWIDTH 18 0
BBX 18 18 0 -2
BITMAP
000000
080000
0BFF80
081100
109000
109E00
315000
323F80
540000
11FF00
110100
11FF00
110100
11FF00
110100
110100
110700
000000
ENDCHAR

STARTCHAR jisx0212_3171
ENCODING 12657
SWIDTH 960 0
DWIDTH 18 0
BBX 18 18 0 -2
BITMAP
000000
084000
084000
0BFF00
109000
110800
324600
3CF980
510800
169000
106800
119F00
162100
10D200
100C00
103800
13C000
000000
ENDCHAR

STARTCHAR jisx0212_3172
ENCODING 12658
SWIDTH 960 0
DWIDTH 18 0
BBX 18 18 0 -2
BITMAP
000000
080000
09FF80
080000
10FF00
108100
308100
30FF00
500000
11FF80
111080
111080
11FF80
111080
111080
11FF80
110080
000000
ENDCHAR

STARTCHAR jisx0212_3173
ENCODING 12659
SWIDTH 960 0
DWIDTH 18 0
BBX 18 18 0 -2
BITMAP
000000
080000
0FFF80
082000
102000
104000
33FF00
324900
524900
127900
124900
124900
127900
124900
124900
13FF00
120100
000000
ENDCHAR

STARTCHAR jisx0212_3174
ENCODING 12660
SWIDTH 960 0
DWIDTH 18 0
BBX 18 18 0 -2
BITMAP
000000
090000
092F80
09C480
172480
11C480
372480
31C880
570880
111300
112000
102000
17FF80
103000
104800
118600
160180
000000
ENDCHAR

STARTCHAR jisx0212_3175
ENCODING 12661
SWIDTH 960 0
DWIDTH 18 0
BBX 18 18 0 -2
BITMAP
000000
080700
09F800
090800
110800
11FF80
311000
311000
517F00
114100
117F00
114100
127F00
124100
124100
147F00
104100
000000
ENDCHAR

STARTCHAR jisx0212_3176
ENCODING 12662
SWIDTH 960 0
DWIDTH 18 0
BBX 18 18 0 -2
BITMAP
000000
080000
0FEF80
0A4880
124900
13C900
324A00
324A00
524900
13C900
124880
124880
124880
13CB00
1E4800
104800
104800
000000
ENDCHAR

STARTCHAR jisx0212_3177
ENCODING 12663
SWIDTH 960 0
DWIDTH 18 0
BBX 18 18 0 -2
BITMAP
000000
08A000
0B2F00
0A2100
122100
13AF00
322100
322100
53AF00
122100
100000
13FE00
108200
104400
103800
10C600
170180
000000
ENDCHAR

STARTCHAR jisx0212_3178
ENCODING 12664
SWIDTH 960 0
DWIDTH 18 0
BBX 18 18 0 -2
BITMAP
000000
081000
0BFF80
081000
11FF00
101000
33FF80
302400
514800
109200
106F00
13F080
101000
109200
111100
161080
101000
000000
ENDCHAR

STARTCHAR jisx0212_3179
ENCODING 12665
SWIDTH 960 0
DWIDTH 18 0
BBX 18 18 0 -2
BITMAP
000000
082000
082000
0FFF80
105000
124900
318A00
310600
53FF00
150280
11FE00
110200
11FE00
110200
110200
11FE00
110200
000000
ENDCHAR

STARTCHAR jisx0212_317A
ENCODING 12666
SWIDTH 960 0
DWIDTH 18 0
BBX 18 18 0 -2
BITMAP
000000
080000
0BFF80
0A0800
121000
127F00
324100
324100
527F00
124100
124100
127F00
120800
124A00
148900
150880
143800
000000
ENDCHAR

STARTCHAR jisx0212_317B
ENCODING 12667
SWIDTH 960 0
DWIDTH 18 0
BBX 18 18 0 -2
BITMAP
000000
09FE00
090200
090200
11FE00
100000
33FF00
320100
53FF00
120100
13FF00
120100
13FF00
100000
104C00
118300
160080
000000
ENDCHAR

STARTCHAR jisx0212_317C
ENCODING 12668
SWIDTH 960 0
DWIDTH 18 0
BBX 18 18 0 -2
BITMAP
000000
088300
08FC00
088080
10FF80
100000
307F00
324100
527F00
124100
127F00
124100
127F00
120000
13FF80
10C600
170180
000000
ENDCHAR

STARTCHAR jisx0212_317D
ENCODING 12669
SWIDTH 960 0
DWIDTH 18 0
BBX 18 18 0 -2
BITMAP
000000
081000
081000
09FF80
110800
117F00
310900
31FF80
510900
117F00
110800
110000
117F00
124100
124100
147F00
104100
000000
ENDCHAR

STARTCHAR jisx0212_317E
ENCODING 12670
SWIDTH 960 0
DWIDTH 18 0
BBX 18 18 0 -2
BITMAP
000000
081000
081000
0BFF80
100000
10FE00
308200
308200
50FE00
100000
13FF80
120080
127C80
124480
124480
127C80
120380
000000
ENDCHAR

STARTCHAR jisx0212_3221
ENCODING 12833
SWIDTH 960 0
DWIDTH 18 0
BBX 18 18 0 -2
BITMAP
000000
080700
09F800
092200
111100
121080
32A400
304800
503200
102F00
13F080
101000
13FF80
101000
102800
10C600
170180
000000
ENDCHAR

STARTCHAR jisx0212_3222
ENCODING 12834
SWIDTH 960 0
DWIDTH 18 0
BBX 18 18 0 -2
BITMAP
000000
080700
0BF800
0A0000
13FF00
120100
320100
33FF00
520000
13EF80
126280
12A480
132980
146280
14A480
192880
126380
000000
ENDCHAR

STARTCHAR jisx0212_3223
ENCODING 12835
SWIDTH 960 0
DWIDTH 18 0
BBX 18 18 0 -2
BITMAP
000000
082200
09DC00
084800
17FF80
104800
33FF00
304900
57FF80
104900
13FF00
104800
10CC00
114A00
124900
144880
104800
000000
ENDCHAR

STARTCHAR jisx0212_3224
ENCODING 12836
SWIDTH 960 0
DWIDTH 18 0
BBX 18 18 0 -2
BITMAP
000000
083000
084800
088400
117B00
120080
35FE00
310200
51FE00
110200
11FE00
110000
11FF00
128100
128100
14FF00
108100
000000
ENDCHAR

STARTCHAR jisx0212_3225
ENCODING 12837
SWIDTH 960 0
DWIDTH 18 0
BBX 18 18 0 -2
BITMAP
000000
081000
081000
0BFF80
120080
124880
308400
313200
524900
108400
110200
12FF00
148280
108200
108200
10FE00
108200
000000
ENDCHAR

STARTCHAR jisx0212_3226
ENCODING 12838
SWIDTH 960 0
DWIDTH 18 0
BBX 18 18 0 -2
BITMAP
000000
081000
082000
087E00
10C200
132400
309800
30E000
537F00
109000
111000
13FF80
101000
111100
111100
11FF00
110100
000000
ENDCHAR

STARTCHAR jisx0212_3227
ENCODING 12839
SWIDTH 960 0
DWIDTH 18 0
BBX 18 18 0 -2
BITMAP
000000
090400
088800
0BFF00
102000
102000
31FE00
302000
502000
17FF80
108000
108000
11FF00
111000
121000
141000
13FF80
000000
ENDCHAR

STARTCHAR jisx0212_3228
ENCODING 12840
SWIDTH 960 0
DWIDTH 18 0
BBX 18 18 0 -2
BITMAP
000000
08FC00
080400
092200
122900
144480
31FA00
300000
500000
17CF80
114280
124480
14C980
114280
124480
144880
11C380
000000
ENDCHAR

STARTCHAR jisx0212_3229
ENCODING 12841
SWIDTH 960 0
DWIDTH 18 0
BBX 18 18 0 -2
BITMAP
000000
080100
0BC100
080100
17E100
101F80
33C100
300100
53D100
100900
100500
13C500
124100
124100
124100
13C100
120700
000000
ENDCHAR

STARTCHAR jisx0212_322A
ENCODING 12842
SWIDTH 960 0
DWIDTH 18 0
BBX 18 18 0 -2
BITMAP
000000
090400
090400
090400
110400
17DF80
300000
345100
545100
124900
128900
128A00
128A00
112A00
11C400
1E3F80
100000
000000
ENDCHAR

STARTCHAR jisx0212_322B
ENCODING 12843
SWIDTH 960 0
DWIDTH 18 0
BBX 18 18 0 -2
BITMAP
000000
081000
081000
0BFF80
120080
120080
31FF00
302000
504100
11A200
163400
104800
119C00
162A00
104900
118880
163000
000000
ENDCHAR

STARTCHAR jisx0212_322C
ENCODING 12844
SWIDTH 960 0
DWIDTH 18 0
BBX 18 18 0 -2
BITMAP
000000
082000
084400
0BFE00
100100
110400
32A900
3FDF80
508880
112400
164300
198880
163100
10C200
130C00
107000
138000
000000
ENDCHAR

STARTCHAR jisx0212_322D
ENCODING 12845
SWIDTH 960 0
DWIDTH 18 0
BBX 18 18 0 -2
BITMAP
000000
082000
084000
0BFF00
121100
12BD00
326500
329900
523900
12C500
13FF00
102000
109200
129100
128480
148480
107C00
000000
ENDCHAR

STARTCHAR jisx0212_322E
ENCODING 12846
SWIDTH 960 0
DWIDTH 18 0
BBX 18 18 0 -2
BITMAP
000000
081000
091100
091100
11FF00
110100
300000
33CF80
524880
134C80
12CA80
124880
134C80
12CA80
144880
145080
15D380
000000
ENDCHAR

STARTCHAR jisx0212_322F
ENCODING 12847
SWIDTH 960 0
DWIDTH 18 0
BBX 18 18 0 -2
BITMAP
000000
081000
081000
09FF00
108200
104400
33FF80
300000
51FF00
110100
11FF00
110100
11FF00
104800
104880
108880
170780
000000
ENDCHAR

STARTCHAR jisx0212_3230
ENCODING 12848
SWIDTH 960 0
DWIDTH 18 0
BBX 18 18 0 -2
BITMAP
000000
088000
088800
09EF80
112480
12C500
364200
318200
517D00
120080
100000
13FF80
101000
109200
111100
161080
107000
000000
ENDCHAR

STARTCHAR jisx0212_3231
ENCODING 12849
SWIDTH 960 0
DWIDTH 18 0
BBX 18 18 0 -2
BITMAP
000000
081000
081000
09FF00
108200
104400
33FF80
300000
51FF00
110100
11FF00
110100
11FF00
101000
13FF80
101000
101000
000000
ENDCHAR

STARTCHAR jisx0212_3232
ENCODING 12850
SWIDTH 960 0
DWIDTH 18 0
BBX 18 18 0 -2
BITMAP
000000
08AA00
08AA00
0BFF80
10AA00
112A80
323B80
300000
53FF80
121080
121080
11FF00
111100
111100
111100
111700
101000
000000
ENDCHAR

STARTCHAR jisx0212_3233
ENCODING 12851
SWIDTH 960 0
DWIDTH 18 0
BBX 18 18 0 -2
BITMAP
000000
088800
088800
0FFF80
108800
110000
33FF00
320100
57F900
1A4900
13F900
124900
13F900
124900
124900
125900
100600
000000
ENDCHAR

STARTCHAR jisx0212_3234
ENCODING 12852
SWIDTH 960 0
DWIDTH 18 0
BBX 18 18 0 -2
BITMAP
000000
080000
0FFF80
084800
13FF00
124900
324900
33FF00
500000
13FF00
100000
17FF80
101000
109200
111100
161080
107000
000000
ENDCHAR

STARTCHAR jisx0212_3235
ENCODING 12853
SWIDTH 960 0
DWIDTH 18 0
BBX 18 18 0 -2
BITMAP
000000
080000
0FDF00
094500
124900
14D300
314500
327900
504800
119600
162180
10C800
131100
106200
138C00
103000
13C000
000000
ENDCHAR

STARTCHAR jisx0212_3236
ENCODING 12854
SWIDTH 960 0
DWIDTH 18 0
BBX 18 18 0 -2
BITMAP
000000
090400
090400
0FE400
110800
110F80
37D900
355900
57E900
154900
17C900
110A00
110600
1FE400
110A00
111100
112080
000000
ENDCHAR

STARTCHAR jisx0212_3237
ENCODING 12855
SWIDTH 960 0
DWIDTH 18 0
BBX 18 18 0 -2
BITMAP
000000
0BCF00
0A4900
0BCF00
120800
122880
33EF80
300000
508400
13FF00
108400
108400
17FF80
100000
104C00
118300
160080
000000
ENDCHAR

STARTCHAR jisx0212_3238
ENCODING 12856
SWIDTH 960 0
DWIDTH 18 0
BBX 18 18 0 -2
BITMAP
000000
088200
084400
0BFF80
101000
11FF00
301000
33FF80
509200
105400
13FF80
100000
11FF00
110100
110100
11FF00
110100
000000
ENDCHAR

STARTCHAR jisx0212_3239
ENCODING 12857
SWIDTH 960 0
DWIDTH 18 0
BBX 18 18 0 -2
BITMAP
000000
081000
09FF00
091100
11FF00
101000
33FF80
300000
51FF00
110100
11FF00
110100
11FF00
110100
11FF00
10C600
170180
000000
ENDCHAR

STARTCHAR jisx0212_323A
ENCODING 12858
SWIDTH 960 0
DWIDTH 18 0
BBX 18 18 0 -2
BITMAP
000000
087E00
090200
097D00
122880
15FF00
312900
314F00
510100
11FF00
110100
11FF00
100200
17FF80
108200
104200
100E00
000000
ENDCHAR

STARTCHAR jisx0212_323B
ENCODING 12859
SWIDTH 960 0
DWIDTH 18 0
BBX 18 18 0 -2
BITMAP
000000
088400
088400
0AC400
12A400
149F80
388900
37E900
543900
17A900
14A900
14A500
14A600
17A200
142600
142900
14F080
000000
ENDCHAR

STARTCHAR jisx0212_323C
ENCODING 12860
SWIDTH 960 0
DWIDTH 18 0
BBX 18 18 0 -2
BITMAP
000000
081000
0BD200
084C00
124880
118500
31FA00
320100
540080
11FE00
110200
110200
11FE00
108400
104400
104800
17FF80
000000
ENDCHAR

STARTCHAR jisx0212_323D
ENCODING 12861
SWIDTH 960 0
DWIDTH 18 0
BBX 18 18 0 -2
BITMAP
000000
0BFF00
0A0100
0BFF00
120000
127E00
320400
32FF80
520800
123800
120000
13F780
142100
147200
15CF80
184200
11C600
000000
ENDCHAR

STARTCHAR jisx0212_323E
ENCODING 12862
SWIDTH 960 0
DWIDTH 18 0
BBX 18 18 0 -2
BITMAP
000000
08A200
092400
0E7900
12AA00
112400
326900
37FF00
502480
102200
17FF80
121100
131200
128C00
148C80
183280
11C180
000000
ENDCHAR

STARTCHAR jisx0212_323F
ENCODING 12863
SWIDTH 960 0
DWIDTH 18 0
BBX 18 18 0 -2
BITMAP
000000
080700
0BF800
092100
109100
109200
37FF80
340080
550280
11C200
125F80
125200
159200
18BF80
110200
120200
140200
000000
ENDCHAR

STARTCHAR jisx0212_3240
ENCODING 12864
SWIDTH 960 0
DWIDTH 18 0
BBX 18 18 0 -2
BITMAP
000000
080000
0BEF80
0A2880
122880
13EF80
300000
31FF00
511100
11FF00
111100
11FF00
101000
13FF80
101000
101000
101000
000000
ENDCHAR

STARTCHAR jisx0212_3241
ENCODING 12865
SWIDTH 960 0
DWIDTH 18 0
BBX 18 18 0 -2
BITMAP
000000
088400
088500
088480
17E400
101F80
33E400
322400
522400
13E600
108600
12CA00
12AA00
14AA00
149280
189280
13A380
000000
ENDCHAR

STARTCHAR jisx0212_3242
ENCODING 12866
SWIDTH 960 0
DWIDTH 18 0
BBX 18 18 0 -2
BITMAP
000000
081000
09FF00
081000
104400
13FF80
304400
300000
51FF00
110100
11FF00
110100
11FF00
110100
11FF00
10C600
170180
000000
ENDCHAR

STARTCHAR jisx0212_3243
ENCODING 12867
SWIDTH 960 0
DWIDTH 18 0
BBX 18 18 0 -2
BITMAP
000000
080000
0BEF80
0A2880
13EF80
122880
33EF80
320080
527C80
124480
127C80
124480
127C80
124480
128480
129C80
120380
000000
ENDCHAR

STARTCHAR jisx0212_3244
ENCODING 12868
SWIDTH 960 0
DWIDTH 18 0
BBX 18 18 0 -2
BITMAP
000000
001000
091100
089200
0BFF80
103800
105400
319200
361180
510200
11C200
125F80
125200
159200
18BF80
110200
120200
000000
ENDCHAR

STARTCHAR jisx0212_3245
ENCODING 12869
SWIDTH 960 0
DWIDTH 18 0
BBX 18 18 0 -2
BITMAP
000000
080700
0BF800
0A0000
13FF00
120100
33FF00
322200
524400
127F80
12C400
137F00
124400
127F00
144400
147F80
144000
000000
ENDCHAR

STARTCHAR jisx0212_3246
ENCODING 12870
SWIDTH 960 0
DWIDTH 18 0
BBX 18 18 0 -2
BITMAP
000000
080000
0BFF00
0A4900
124900
13CF00
304800
33CF00
524900
124900
13CF00
124900
124900
13CF00
124880
104080
103F80
000000
ENDCHAR

STARTCHAR jisx0212_3247
ENCODING 12871
SWIDTH 960 0
DWIDTH 18 0
BBX 18 18 0 -2
BITMAP
000000
08FE00
088200
088200
10FE00
100000
33EF80
322880
522880
13EF80
101000
13FF80
103800
105400
119300
161080
101000
000000
ENDCHAR

STARTCHAR jisx0212_3248
ENCODING 12872
SWIDTH 960 0
DWIDTH 18 0
BBX 18 18 0 -2
BITMAP
000000
080700
0BF800
092100
109100
109200
33FF80
322080
525280
114500
127C80
102000
107E00
10C200
132400
103C00
17C380
000000
ENDCHAR

STARTCHAR jisx0212_3249
ENCODING 12873
SWIDTH 960 0
DWIDTH 18 0
BBX 18 18 0 -2
BITMAP
000000
081000
0BFF80
080000
11FF00
114500
317D00
310100
51FF00
100000
10FE00
108200
10FE00
108200
10FE00
100000
17FF80
000000
ENDCHAR

STARTCHAR jisx0212_324A
ENCODING 12874
SWIDTH 960 0
DWIDTH 18 0
BBX 18 18 0 -2
BITMAP
000000
0A4400
0A4400
0FF400
124400
124F80
320900
37E900
543900
17A900
1AA500
12A500
12A600
13A200
102600
104900
119080
000000
ENDCHAR

STARTCHAR jisx0212_324B
ENCODING 12875
SWIDTH 960 0
DWIDTH 18 0
BBX 18 18 0 -2
BITMAP
000000
09FF00
092900
092900
11FF00
100000
33FF80
300000
51FF00
110100
110100
11FF00
104880
118900
168600
10B200
13C180
000000
ENDCHAR

STARTCHAR jisx0212_324C
ENCODING 12876
SWIDTH 960 0
DWIDTH 18 0
BBX 18 18 0 -2
BITMAP
000000
083000
084800
088400
110300
16FC80
300000
33FF00
52A500
126900
13FF00
100000
11FE00
110200
11FE00
110200
11FE00
000000
ENDCHAR

STARTCHAR jisx0212_324D
ENCODING 12877
SWIDTH 960 0
DWIDTH 18 0
BBX 18 18 0 -2
BITMAP
000000
088000
08FC00
090800
11FF80
132900
354F00
318000
517F00
110000
11FF80
110000
117F00
110000
127F00
124100
147F00
000000
ENDCHAR

STARTCHAR jisx0212_324E
ENCODING 12878
SWIDTH 960 0
DWIDTH 18 0
BBX 18 18 0 -2
BITMAP
000000
088400
090400
0BE400
122400
13EF80
322900
33E900
509900
108900
17E500
110500
11E600
112200
122600
122900
15D080
000000
ENDCHAR

STARTCHAR jisx0212_324F
ENCODING 12879
SWIDTH 960 0
DWIDTH 18 0
BBX 18 18 0 -2
BITMAP
000000
082400
0AC900
0B3300
124900
12A500
33FF00
304800
504880
118F80
164000
107E00
10C200
112400
121800
106600
178180
000000
ENDCHAR

STARTCHAR jisx0212_3250
ENCODING 12880
SWIDTH 960 0
DWIDTH 18 0
BBX 18 18 0 -2
BITMAP
000000
088400
0BE500
088480
17FF80
108400
37F400
308480
57F480
149480
17F500
149500
17F200
108280
1FF680
108980
109080
000000
ENDCHAR

STARTCHAR jisx0212_3251
ENCODING 12881
SWIDTH 960 0
DWIDTH 18 0
BBX 18 18 0 -2
BITMAP
000000
080000
0FFF80
084800
13FF00
124900
324900
33FF00
510000
110200
13DF80
124200
169200
19BF80
112200
120200
140200
000000
ENDCHAR

STARTCHAR jisx0212_3252
ENCODING 12882
SWIDTH 960 0
DWIDTH 18 0
BBX 18 18 0 -2
BITMAP
000000
081000
0BFF80
0A0080
12FE80
101000
30D200
331400
51FF00
170100
11FF00
110100
11FF00
110100
11FF00
10C600
170180
000000
ENDCHAR

STARTCHAR jisx0212_3253
ENCODING 12883
SWIDTH 960 0
DWIDTH 18 0
BBX 18 18 0 -2
BITMAP
000000
0A0000
0A5F00
0B8100
120A00
124400
33C200
303F80
520480
17C500
151400
111700
17D400
111400
12B400
12AC00
144780
000000
ENDCHAR

STARTCHAR jisx0212_3254
ENCODING 12884
SWIDTH 960 0
DWIDTH 18 0
BBX 18 18 0 -2
BITMAP
000000
080800
0C7F00
0A4900
117F00
100800
34FF80
320000
513F00
102100
173F00
112000
113F00
112100
113F00
128000
147F80
000000
ENDCHAR

STARTCHAR jisx0212_3255
ENCODING 12885
SWIDTH 960 0
DWIDTH 18 0
BBX 18 18 0 -2
BITMAP
000000
090000
090000
0BFF00
155200
17FF80
315200
315200
53FF00
110200
11C200
125F80
125200
159200
10BF80
110200
160200
000000
ENDCHAR

STARTCHAR jisx0212_3256
ENCODING 12886
SWIDTH 960 0
DWIDTH 18 0
BBX 18 18 0 -2
BITMAP
000000
082000
0BFF00
0A2100
109200
128500
34FC80
300000
53FF00
124900
124900
17FF80
100000
13FF00
101000
101000
107000
000000
ENDCHAR

STARTCHAR jisx0212_3257
ENCODING 12887
SWIDTH 960 0
DWIDTH 18 0
BBX 18 18 0 -2
BITMAP
000000
088200
0AAA80
0ACB00
149200
114500
322880
341000
53FF80
120080
101000
13FF80
103800
105400
119300
161080
101000
000000
ENDCHAR

STARTCHAR jisx0212_3258
ENCODING 12888
SWIDTH 960 0
DWIDTH 18 0
BBX 18 18 0 -2
BITMAP
000000
080000
0BFF80
089200
111100
161080
33FF80
321080
535A80
129480
135A80
121080
135A80
129480
135A80
121080
121380
000000
ENDCHAR

STARTCHAR jisx0212_3259
ENCODING 12889
SWIDTH 960 0
DWIDTH 18 0
BBX 18 18 0 -2
BITMAP
000000
081000
0BFF80
0A4400
13FF80
124400
327C00
320000
53FF80
121000
12FF00
129100
12FF00
149100
14FF00
186600
138180
000000
ENDCHAR

STARTCHAR jisx0212_325A
ENCODING 12890
SWIDTH 960 0
DWIDTH 18 0
BBX 18 18 0 -2
BITMAP
000000
088400
0BFF80
088400
13FF80
108400
314A00
363100
51FF80
110100
11FF00
110100
11FF00
110100
11FF00
10C600
170180
000000
ENDCHAR

STARTCHAR jisx0212_325B
ENCODING 12891
SWIDTH 960 0
DWIDTH 18 0
BBX 18 18 0 -2
BITMAP
000000
084100
0B8E00
0A0800
13FF80
124900
324900
341000
51FF00
110100
11FF00
110100
11FF00
110100
11FF00
10C600
170180
000000
ENDCHAR

STARTCHAR jisx0212_325C
ENCODING 12892
SWIDTH 960 0
DWIDTH 18 0
BBX 18 18 0 -2
BITMAP
000000
090000
091F00
0FD100
111100
17DF00
311100
37D100
501F00
17D100
155100
155F00
17CA00
144A00
144A80
145280
15D380
000000
ENDCHAR

STARTCHAR jisx0212_325D
ENCODING 12893
SWIDTH 960 0
DWIDTH 18 0
BBX 18 18 0 -2
BITMAP
000000
090000
091F00
0FD100
145100
125F00
329100
37D100
501F00
111100
17D100
111F00
138A00
134A00
151280
192280
114380
000000
ENDCHAR

STARTCHAR jisx0212_325E
ENCODING 12894
SWIDTH 960 0
DWIDTH 18 0
BBX 18 18 0 -2
BITMAP
000000
082000
092600
0AF900
105000
17FF00
308800
31FC00
532300
15FC80
112000
11FC00
112000
11FF00
12A900
12A100
140E00
000000
ENDCHAR

STARTCHAR jisx0212_325F
ENCODING 12895
SWIDTH 960 0
DWIDTH 18 0
BBX 18 18 0 -2
BITMAP
000000
088800
088800
0FEF80
124800
114F80
314080
37EF80
500800
13EF80
122800
13EF80
122800
13EF80
122800
122880
12E780
000000
ENDCHAR

STARTCHAR jisx0212_3260
ENCODING 12896
SWIDTH 960 0
DWIDTH 18 0
BBX 18 18 0 -2
BITMAP
000000
088000
08F800
091000
13FF00
150100
31FF00
310880
57CF80
10F000
111000
13FF00
151100
11FF00
103400
10D280
171F80
000000
ENDCHAR

STARTCHAR jisx0212_3261
ENCODING 12897
SWIDTH 960 0
DWIDTH 18 0
BBX 18 18 0 -2
BITMAP
000000
081000
0BFF80
080000
11EF00
112900
31EF00
304400
53FF00
104400
13FF00
104400
17FF80
109100
138A00
1CE600
138180
000000
ENDCHAR

STARTCHAR jisx0212_3262
ENCODING 12898
SWIDTH 960 0
DWIDTH 18 0
BBX 18 18 0 -2
BITMAP
000000
082000
087F00
084400
14A800
151800
346600
358180
54FF00
14D500
149900
14FF00
141000
15FF80
114900
112480
122480
000000
ENDCHAR

STARTCHAR jisx0212_3263
ENCODING 12899
SWIDTH 960 0
DWIDTH 18 0
BBX 18 18 0 -2
BITMAP
000000
0BFF00
0A4900
0A4900
13FF00
110000
321200
3CA400
557F80
122400
14BF00
1F6400
113F00
15A400
156400
193F80
112000
000000
ENDCHAR

STARTCHAR jisx0212_3264
ENCODING 12900
SWIDTH 960 0
DWIDTH 18 0
BBX 18 18 0 -2
BITMAP
000000
0A8A00
0BEF00
0C9200
17FF80
128A00
32CA80
351380
51FE00
110200
11FE00
110200
11FE00
110200
11FE00
10C600
170180
000000
ENDCHAR

STARTCHAR jisx0212_3265
ENCODING 12901
SWIDTH 960 0
DWIDTH 18 0
BBX 18 18 0 -2
BITMAP
000000
004000
004000
004000
0FFF00
084000
084000
084000
084000
7FFF80
004000
00A000
00A000
012000
022080
0C2080
701F80
000000
ENDCHAR

STARTCHAR jisx0212_3266
ENCODING 12902
SWIDTH 960 0
DWIDTH 18 0
BBX 18 18 0 -2
BITMAP
000000
000000
01F000
041000
048800
088400
112300
611080
027800
1F8400
000000
022000
022000
022100
042100
182100
601F00
000000
ENDCHAR

STARTCHAR jisx0212_3267
ENCODING 12903
SWIDTH 960 0
DWIDTH 18 0
BBX 18 18 0 -2
BITMAP
000000
000600
007800
1F8000
104000
104000
107E00
104000
104000
1FFF00
111000
111000
111000
111000
221080
241080
580F80
000000
ENDCHAR

STARTCHAR jisx0212_3268
ENCODING 12904
SWIDTH 960 0
DWIDTH 18 0
BBX 18 18 0 -2
BITMAP
000000
040400
040400
040400
3FBF80
242400
242400
242400
242400
7FFF80
080800
0C0C00
0C0C00
149400
149480
23A480
404380
000000
ENDCHAR

STARTCHAR jisx0212_3269
ENCODING 12905
SWIDTH 960 0
DWIDTH 18 0
BBX 18 18 0 -2
BITMAP
000000
000000
3E3E00
222200
222200
222200
222200
23E200
200200
200200
3FFE00
022000
022000
022000
042100
182100
601F00
000000
ENDCHAR

STARTCHAR jisx0212_326A
ENCODING 12906
SWIDTH 960 0
DWIDTH 18 0
BBX 18 18 0 -2
BITMAP
000000
008000
008000
7FFF00
000000
01F000
041000
080800
1FFC00
680B00
080800
0FF800
022000
022000
042100
182100
601F00
000000
ENDCHAR

STARTCHAR jisx0212_326B
ENCODING 12907
SWIDTH 960 0
DWIDTH 18 0
BBX 18 18 0 -2
BITMAP
000000
000800
3F0800
001000
001200
002100
7FA780
127880
120000
123F00
122100
122100
122100
223F00
222080
220080
41FF80
000000
ENDCHAR

STARTCHAR jisx0212_326C
ENCODING 12908
SWIDTH 960 0
DWIDTH 18 0
BBX 18 18 0 -2
BITMAP
000000
040800
142800
142800
3FFF00
244800
448800
040800
7FFF80
122400
122400
122400
122400
12C400
234480
2C8480
410380
000000
ENDCHAR

STARTCHAR jisx0212_326D
ENCODING 12909
SWIDTH 960 0
DWIDTH 18 0
BBX 18 18 0 -2
BITMAP
000000
080800
4AFF80
2A9400
2AFF00
2C9400
089400
7FFF80
148800
14BF00
14A900
14BF00
152900
253F00
262400
244280
43FF80
000000
ENDCHAR

STARTCHAR jisx0212_326E
ENCODING 12910
SWIDTH 960 0
DWIDTH 18 0
BBX 18 18 0 -2
BITMAP
000000
000000
23E000
202000
202000
202000
205000
205000
205000
208800
208800
210400
220200
240100
280080
200000
1FFF80
000000
ENDCHAR

STARTCHAR jisx0212_326F
ENCODING 12911
SWIDTH 960 0
DWIDTH 18 0
BBX 18 18 0 -2
BITMAP
000000
01F000
040800
180600
6FFD80
088400
0FFC00
088400
0FFC00
021000
3FFF00
021000
021000
7FFF80
021800
0C0600
300100
000000
ENDCHAR

STARTCHAR jisx0212_3270
ENCODING 12912
SWIDTH 960 0
DWIDTH 18 0
BBX 18 18 0 -2
BITMAP
000000
000000
3FFF00
200100
200100
200100
27F900
200100
200100
200100
2FFD00
200100
200100
200100
200100
200100
200F00
000000
ENDCHAR

STARTCHAR jisx0212_3271
ENCODING 12913
SWIDTH 960 0
DWIDTH 18 0
BBX 18 18 0 -2
BITMAP
000000
000000
0FFC00
080400
080400
080400
7FFF80
080400
080400
080400
7FFF80
080400
080400
080400
080400
080400
083C00
000000
ENDCHAR

STARTCHAR jisx0212_3272
ENCODING 12914
SWIDTH 960 0
DWIDTH 18 0
BBX 18 18 0 -2
BITMAP
000000
000000
3FFF00
200100
200100
200100
23F100
221100
221100
221100
221100
23F100
220100
220100
200100
200100
200F00
000000
ENDCHAR

STARTCHAR jisx0212_3273
ENCODING 12915
SWIDTH 960 0
DWIDTH 18 0
BBX 18 18 0 -2
BITMAP
000000
000000
0FFC00
080400
080400
087C00
084400
084400
084400
3FFF00
200100
200100
200100
200100
200100
200100
200F00
000000
ENDCHAR

STARTCHAR jisx0212_3274
ENCODING 12916
SWIDTH 960 0
DWIDTH 18 0
BBX 18 18 0 -2
BITMAP
000000
008000
008000
008000
3FFF00
208100
208100
20C100
014000
014000
014000
024000
024000
044000
084100
304100
403F00
000000
ENDCHAR

STARTCHAR jisx0212_3275
ENCODING 12917
SWIDTH 960 0
DWIDTH 18 0
BBX 18 18 0 -2
BITMAP
000000
000000
3FFF00
200100
200100
000000
0FFC00
080400
080400
0FFC00
080400
080400
0FFC00
080400
080400
080400
7FFF80
000000
ENDCHAR

STARTCHAR jisx0212_3276
ENCODING 12918
SWIDTH 960 0
DWIDTH 18 0
BBX 18 18 0 -2
BITMAP
000000
000000
3FFF00
200100
200100
0FFC00
000000
3FFF00
010000
068300
394C00
067000
38A800
032400
0C2300
704080
038000
000000
ENDCHAR

STARTCHAR jisx0212_3277
ENCODING 12919
SWIDTH 960 0
DWIDTH 18 0
BBX 18 18 0 -2
BITMAP
000000
000000
3FFF00
200100
200100
7FC000
110000
117F00
1F2100
112100
111200
1F1200
110C00
110C00
171200
792100
014080
000000
ENDCHAR

STARTCHAR jisx0212_3278
ENCODING 12920
SWIDTH 960 0
DWIDTH 18 0
BBX 18 18 0 -2
BITMAP
000000
008000
008000
010000
7FFF80
022000
021000
040800
080400
318300
406080
000000
000400
001800
006000
038000
0C0000
000000
ENDCHAR

STARTCHAR jisx0212_3279
ENCODING 12921
SWIDTH 960 0
DWIDTH 18 0
BBX 18 18 0 -2
BITMAP
000000
001000
409400
209200
111100
011100
021080
05FF00
001000
101000
101000
27FF80
201000
201000
401000
401000
001000
000000
ENDCHAR

STARTCHAR jisx0212_327A
ENCODING 12922
SWIDTH 960 0
DWIDTH 18 0
BBX 18 18 0 -2
BITMAP
000000
000000
21FF00
110100
090100
010100
01FF00
010800
010800
09FF80
090800
110800
110400
210480
211A80
41E180
070080
000000
ENDCHAR

STARTCHAR jisx0212_327B
ENCODING 12923
SWIDTH 960 0
DWIDTH 18 0
BBX 18 18 0 -2
BITMAP
000000
001000
409000
209000
11FF00
011000
021000
001000
03FF80
104800
104800
204800
208800
208800
410880
420880
040780
000000
ENDCHAR

STARTCHAR jisx0212_327C
ENCODING 12924
SWIDTH 960 0
DWIDTH 18 0
BBX 18 18 0 -2
BITMAP
000000
006000
409000
208800
110800
010400
020200
05FD00
080080
000000
13FE00
120200
220200
220200
420200
43FE00
020200
000000
ENDCHAR

STARTCHAR jisx0212_327D
ENCODING 12925
SWIDTH 960 0
DWIDTH 18 0
BBX 18 18 0 -2
BITMAP
000000
002000
43FE00
202200
102200
07FF80
002200
002200
03FE00
102000
102000
27FF00
202000
202000
4FFF80
402000
002000
000000
ENDCHAR

STARTCHAR jisx0212_327E
ENCODING 12926
SWIDTH 960 0
DWIDTH 18 0
BBX 18 18 0 -2
BITMAP
000000
004000
404000
20FC00
108400
010800
03FF00
051100
011100
111100
11FF00
212000
203000
205000
409080
431080
0C0F80
000000
ENDCHAR

STARTCHAR jisx0212_3321
ENCODING 13089
SWIDTH 960 0
DWIDTH 18 0
BBX 18 18 0 -2
BITMAP
000000
000E00
41F000
212200
111100
021080
020000
05FE00
002200
102200
17FF80
202200
202200
23FE00
402200
402000
00E000
000000
ENDCHAR

STARTCHAR jisx0212_3322
ENCODING 13090
SWIDTH 960 0
DWIDTH 18 0
BBX 18 18 0 -2
BITMAP
000000
000A00
400900
200800
13FF80
020800
020800
02E900
020900
12EA00
12AA00
22A400
24A400
24EA80
449280
482180
104080
000000
ENDCHAR

STARTCHAR jisx0212_3323
ENCODING 13091
SWIDTH 960 0
DWIDTH 18 0
BBX 18 18 0 -2
BITMAP
000000
002000
402000
27FF00
104000
03FE00
008800
0FFF80
010400
111A00
12E100
242080
2BFE00
202000
405000
418C00
0E0380
000000
ENDCHAR

STARTCHAR jisx0212_3324
ENCODING 13092
SWIDTH 960 0
DWIDTH 18 0
BBX 18 18 0 -2
BITMAP
000000
001000
411100
211100
111100
01FF00
000000
03FF80
000000
11FF00
110100
210100
21FF00
208200
404200
404400
07FF80
000000
ENDCHAR

STARTCHAR jisx0212_3325
ENCODING 13093
SWIDTH 960 0
DWIDTH 18 0
BBX 18 18 0 -2
BITMAP
000000
000000
47FF80
204800
104800
03FF00
024900
024900
03FF00
102000
102000
27FF80
207000
20A800
432600
4C2180
002000
000000
ENDCHAR

STARTCHAR jisx0212_3326
ENCODING 13094
SWIDTH 960 0
DWIDTH 18 0
BBX 18 18 0 -2
BITMAP
000000
000000
43FF00
220100
120100
01FE00
010200
01FE00
010200
11FE00
102000
202000
27FF00
200000
408C00
430300
0C0080
000000
ENDCHAR

STARTCHAR jisx0212_3327
ENCODING 13095
SWIDTH 960 0
DWIDTH 18 0
BBX 18 18 0 -2
BITMAP
000000
024180
424E00
224800
17E800
024800
03C800
024F80
024900
13C900
124900
224900
2FF900
200900
429100
445100
082100
000000
ENDCHAR

STARTCHAR jisx0212_3328
ENCODING 13096
SWIDTH 960 0
DWIDTH 18 0
BBX 18 18 0 -2
BITMAP
000000
000000
45EF00
254900
154900
05E900
052F00
052800
05E800
154880
154880
29E780
280000
249200
449100
444880
084880
000000
ENDCHAR

STARTCHAR jisx0212_3329
ENCODING 13097
SWIDTH 960 0
DWIDTH 18 0
BBX 18 18 0 -2
BITMAP
000000
008000
008000
010000
07F000
041000
041000
041000
041000
041000
041000
041000
041000
081080
081080
101080
600F80
000000
ENDCHAR

STARTCHAR jisx0212_332A
ENCODING 13098
SWIDTH 960 0
DWIDTH 18 0
BBX 18 18 0 -2
BITMAP
000000
000000
1FFF00
100100
100100
1FFF00
100000
100000
11F800
110800
110800
110800
110800
220880
220880
240880
480780
000000
ENDCHAR

STARTCHAR jisx0212_332B
ENCODING 13099
SWIDTH 960 0
DWIDTH 18 0
BBX 18 18 0 -2
BITMAP
000000
000000
1FFE00
100200
100200
17FA00
108200
110200
13F200
121200
121200
13F200
121280
221280
23F180
221180
400080
000000
ENDCHAR

STARTCHAR jisx0212_332C
ENCODING 13100
SWIDTH 960 0
DWIDTH 18 0
BBX 18 18 0 -2
BITMAP
000000
000000
1FFE00
109200
136200
17FA00
114200
17F200
115200
1FFE00
115200
17F200
116280
235280
254980
294580
414080
000000
ENDCHAR

STARTCHAR jisx0212_332D
ENCODING 13101
SWIDTH 960 0
DWIDTH 18 0
BBX 18 18 0 -2
BITMAP
000000
1F4400
012900
121200
0DEC00
180600
67F980
040800
07F800
021000
012000
7FFF80
000000
07F000
041080
081080
700F80
000000
ENDCHAR

STARTCHAR jisx0212_332E
ENCODING 13102
SWIDTH 960 0
DWIDTH 18 0
BBX 18 18 0 -2
BITMAP
000000
000000
21FF00
111000
09FE00
011000
09FE00
091000
11FF00
12A900
24A900
400600
07F000
041000
041080
081080
700F80
000000
ENDCHAR

STARTCHAR jisx0212_332F
ENCODING 13103
SWIDTH 960 0
DWIDTH 18 0
BBX 18 18 0 -2
BITMAP
000000
008000
408100
408100
408100
4FF900
408100
408100
408100
408100
408100
408100
5FFD00
400100
400100
7FFF00
400100
000000
ENDCHAR

STARTCHAR jisx0212_3330
ENCODING 13104
SWIDTH 960 0
DWIDTH 18 0
BBX 18 18 0 -2
BITMAP
000000
000000
3FFF00
000100
000100
000100
000100
000100
003900
03C100
3C0100
000100
000100
000200
000200
000400
007800
000000
ENDCHAR

STARTCHAR jisx0212_3331
ENCODING 13105
SWIDTH 960 0
DWIDTH 18 0
BBX 18 18 0 -2
BITMAP
000000
001000
001000
041000
041000
041000
041000
041000
041000
041000
041000
041000
041000
041000
001000
001000
00F000
000000
ENDCHAR

STARTCHAR jisx0212_3332
ENCODING 13106
SWIDTH 960 0
DWIDTH 18 0
BBX 18 18 0 -2
BITMAP
000000
000000
3FFC00
010400
010400
110600
110500
110500
110480
220480
220480
420400
040400
040400
080800
100800
60F000
000000
ENDCHAR

STARTCHAR jisx0212_3333
ENCODING 13107
SWIDTH 960 0
DWIDTH 18 0
BBX 18 18 0 -2
BITMAP
000000
080080
0A0080
090880
09C880
7E0880
080880
088880
088880
048880
050880
050880
020880
060080
092080
30A080
406380
000000
ENDCHAR

STARTCHAR jisx0212_3334
ENCODING 13108
SWIDTH 960 0
DWIDTH 18 0
BBX 18 18 0 -2
BITMAP
000000
000080
3FC080
000880
000880
000880
000880
7FE880
090880
090880
090880
090880
090880
110080
113080
21C080
460380
000000
ENDCHAR

STARTCHAR jisx0212_3335
ENCODING 13109
SWIDTH 960 0
DWIDTH 18 0
BBX 18 18 0 -2
BITMAP
000000
000000
0FFE00
008200
008200
010200
020400
0C0400
303800
000000
3FBF80
088880
088880
109080
111100
212100
464600
000000
ENDCHAR

STARTCHAR jisx0212_3336
ENCODING 13110
SWIDTH 960 0
DWIDTH 18 0
BBX 18 18 0 -2
BITMAP
000000
000080
1F8080
108880
108880
108880
1F8880
108880
108880
108880
1F8880
108880
108880
108080
208080
208080
438380
000000
ENDCHAR

STARTCHAR jisx0212_3337
ENCODING 13111
SWIDTH 960 0
DWIDTH 18 0
BBX 18 18 0 -2
BITMAP
000000
040080
040080
040880
7FC880
000880
008880
008880
310880
0D0880
020880
030880
048880
084080
104080
200080
400380
000000
ENDCHAR

STARTCHAR jisx0212_3338
ENCODING 13112
SWIDTH 960 0
DWIDTH 18 0
BBX 18 18 0 -2
BITMAP
000000
040080
070080
088880
084880
102880
3FA880
400880
000880
7FC880
044880
044880
044880
044080
05C080
040080
040380
000000
ENDCHAR

STARTCHAR jisx0212_3339
ENCODING 13113
SWIDTH 960 0
DWIDTH 18 0
BBX 18 18 0 -2
BITMAP
000000
100080
100080
1FC880
204880
204880
7E4880
224880
224880
224880
3E4880
204880
238880
200080
202080
202080
1FE380
000000
ENDCHAR

STARTCHAR jisx0212_333A
ENCODING 13114
SWIDTH 960 0
DWIDTH 18 0
BBX 18 18 0 -2
BITMAP
000000
120000
127E00
121200
121200
7FD200
125200
125200
129300
121280
7F9280
122280
122200
122200
224400
224400
429800
000000
ENDCHAR

STARTCHAR jisx0212_333B
ENCODING 13115
SWIDTH 960 0
DWIDTH 18 0
BBX 18 18 0 -2
BITMAP
000000
040080
040080
3FC880
040880
040880
040880
7FC880
040880
040880
040880
3FC880
040880
040080
04E080
0F0080
700380
000000
ENDCHAR

STARTCHAR jisx0212_333C
ENCODING 13116
SWIDTH 960 0
DWIDTH 18 0
BBX 18 18 0 -2
BITMAP
000000
000080
7FE080
108880
108880
1F8880
108880
108880
1F8880
108880
108880
108880
138880
1C8080
608080
008080
008380
000000
ENDCHAR

STARTCHAR jisx0212_333D
ENCODING 13117
SWIDTH 960 0
DWIDTH 18 0
BBX 18 18 0 -2
BITMAP
000000
080000
08FF00
080900
7F0900
084900
084900
08A900
7F2900
081900
080900
121500
111300
112180
2EA200
704200
008C00
000000
ENDCHAR

STARTCHAR jisx0212_333E
ENCODING 13118
SWIDTH 960 0
DWIDTH 18 0
BBX 18 18 0 -2
BITMAP
000000
000080
7FE080
000880
000880
3FC880
204880
204880
204880
3FC880
000880
208880
110880
110080
120080
03E080
7C0380
000000
ENDCHAR

STARTCHAR jisx0212_333F
ENCODING 13119
SWIDTH 960 0
DWIDTH 18 0
BBX 18 18 0 -2
BITMAP
000000
020080
124080
124480
124480
124480
2AA480
2AA480
4B2480
420480
020480
3FE480
020480
020080
027080
078080
780380
000000
ENDCHAR

STARTCHAR jisx0212_3340
ENCODING 13120
SWIDTH 960 0
DWIDTH 18 0
BBX 18 18 0 -2
BITMAP
000000
048080
048080
048480
3CF480
048480
048480
048480
3CF480
048480
048480
1C8480
64F480
088080
088080
108080
208380
000000
ENDCHAR

STARTCHAR jisx0212_3341
ENCODING 13121
SWIDTH 960 0
DWIDTH 18 0
BBX 18 18 0 -2
BITMAP
000000
090080
088080
0FE480
740480
028480
032480
0CA480
306480
090480
088480
0FE480
740480
028080
032080
0CA080
306380
000000
ENDCHAR

STARTCHAR jisx0212_3342
ENCODING 13122
SWIDTH 960 0
DWIDTH 18 0
BBX 18 18 0 -2
BITMAP
000000
108080
108080
7FE880
108880
108880
1F8880
108880
108880
1F8880
108880
108880
7FE880
000080
098080
304080
402380
000000
ENDCHAR

STARTCHAR jisx0212_3343
ENCODING 13123
SWIDTH 960 0
DWIDTH 18 0
BBX 18 18 0 -2
BITMAP
000000
020080
020080
7FF480
020480
1FC480
124480
1FC480
020480
3FC480
024480
7FF480
024480
3FC080
020080
020080
0E0380
000000
ENDCHAR

STARTCHAR jisx0212_3344
ENCODING 13124
SWIDTH 960 0
DWIDTH 18 0
BBX 18 18 0 -2
BITMAP
000000
040080
040080
7FE480
402480
502480
100480
1DE480
252480
252480
252480
552480
496480
090080
111080
211080
40F380
000000
ENDCHAR

STARTCHAR jisx0212_3345
ENCODING 13125
SWIDTH 960 0
DWIDTH 18 0
BBX 18 18 0 -2
BITMAP
000000
000080
3DE080
042480
252480
18C480
084480
14A480
252480
420480
3DE480
042480
252480
18C080
184080
24A080
451380
000000
ENDCHAR

STARTCHAR jisx0212_3346
ENCODING 13126
SWIDTH 960 0
DWIDTH 18 0
BBX 18 18 0 -2
BITMAP
000000
040080
040080
7FC880
000880
000880
3F8880
208880
208880
208880
3F8880
040880
248880
248080
444080
444080
1C0380
000000
ENDCHAR

STARTCHAR jisx0212_3347
ENCODING 13127
SWIDTH 960 0
DWIDTH 18 0
BBX 18 18 0 -2
BITMAP
000000
020080
122080
124880
138880
220880
050880
08C880
322880
420880
122880
124880
128880
220080
050080
18C080
603380
000000
ENDCHAR

STARTCHAR jisx0212_3348
ENCODING 13128
SWIDTH 960 0
DWIDTH 18 0
BBX 18 18 0 -2
BITMAP
000000
040080
040080
7FE880
090880
148880
244880
7FE880
244880
244880
3FC880
244880
244880
3FC080
042080
042080
03E380
000000
ENDCHAR

STARTCHAR jisx0212_3349
ENCODING 13129
SWIDTH 960 0
DWIDTH 18 0
BBX 18 18 0 -2
BITMAP
000000
000080
1FC080
104480
104480
13C480
124480
124480
7FE480
402480
4F2480
492480
492480
4F2080
482080
402080
40E380
000000
ENDCHAR

STARTCHAR jisx0212_334A
ENCODING 13130
SWIDTH 960 0
DWIDTH 18 0
BBX 18 18 0 -2
BITMAP
000000
020080
020080
3FF480
048480
030480
0CC480
3FF480
250480
250480
2FE480
290480
310480
2FE080
210080
41E080
5E0380
000000
ENDCHAR

STARTCHAR jisx0212_334B
ENCODING 13131
SWIDTH 960 0
DWIDTH 18 0
BBX 18 18 0 -2
BITMAP
000000
020080
7FF080
020480
3FE480
222480
3FE480
222480
3FE480
024480
03E480
7C5480
004480
7FF080
104080
084080
01C380
000000
ENDCHAR

STARTCHAR jisx0212_334C
ENCODING 13132
SWIDTH 960 0
DWIDTH 18 0
BBX 18 18 0 -2
BITMAP
000000
000080
7FE080
14A480
252480
4C6480
14A480
262480
498480
324480
44A480
190480
622480
0C4080
718080
060080
780380
000000
ENDCHAR

STARTCHAR jisx0212_334D
ENCODING 13133
SWIDTH 960 0
DWIDTH 18 0
BBX 18 18 0 -2
BITMAP
000000
3FC080
088080
050480
7FE480
062480
1A4480
660480
000480
3FE480
252480
29E480
302480
2F2080
292080
2F2080
206380
000000
ENDCHAR

STARTCHAR jisx0212_334E
ENCODING 13134
SWIDTH 960 0
DWIDTH 18 0
BBX 18 18 0 -2
BITMAP
000000
000080
3FF880
202080
312280
294280
2A7A80
3FAA80
223280
2AA280
2AA280
2AA280
2FA280
225080
225080
448880
490B80
000000
ENDCHAR

STARTCHAR jisx0212_334F
ENCODING 13135
SWIDTH 960 0
DWIDTH 18 0
BBX 18 18 0 -2
BITMAP
000000
000080
3FE080
252480
252480
3FE480
080480
1FE480
202480
442480
3FA480
24A480
3FA480
052080
07A080
78A080
01C380
000000
ENDCHAR

STARTCHAR jisx0212_3350
ENCODING 13136
SWIDTH 960 0
DWIDTH 18 0
BBX 18 18 0 -2
BITMAP
000000
040080
070080
08C480
1FA480
201480
7FE480
222480
32A480
2B2480
3FE480
000480
1FC480
104080
1FC080
104080
1FC380
000000
ENDCHAR

STARTCHAR jisx0212_3351
ENCODING 13137
SWIDTH 960 0
DWIDTH 18 0
BBX 18 18 0 -2
BITMAP
000000
020080
13E080
120480
7FF480
002480
009480
3FF480
208480
3FA480
24A480
2CA480
354480
2E5080
44D080
493080
521380
000000
ENDCHAR

STARTCHAR jisx0212_3352
ENCODING 13138
SWIDTH 960 0
DWIDTH 18 0
BBX 18 18 0 -2
BITMAP
000000
020080
040080
1FC480
104480
1FC480
104480
3FE480
222480
3FE480
222480
3FE480
000480
7FF080
088080
108080
608380
000000
ENDCHAR

STARTCHAR jisx0212_3353
ENCODING 13139
SWIDTH 960 0
DWIDTH 18 0
BBX 18 18 0 -2
BITMAP
000000
042080
39C080
210480
3FF480
252480
252480
420480
3FE480
202480
3FE480
202480
3FE480
202080
3FE080
18C080
603380
000000
ENDCHAR

STARTCHAR jisx0212_3354
ENCODING 13140
SWIDTH 960 0
DWIDTH 18 0
BBX 18 18 0 -2
BITMAP
000000
080080
1F8080
210480
7FE480
202480
3FE480
211480
79F480
1E0480
220480
7FE480
222480
3FE080
068080
1A5080
63F380
000000
ENDCHAR

STARTCHAR jisx0212_3355
ENCODING 13141
SWIDTH 960 0
DWIDTH 18 0
BBX 18 18 0 -2
BITMAP
000000
294080
3DE080
4A4480
7FF480
294480
2D5480
527480
3FE480
202480
3FE480
202480
3FE480
202080
3FE080
18C080
603380
000000
ENDCHAR

STARTCHAR jisx0212_3356
ENCODING 13142
SWIDTH 960 0
DWIDTH 18 0
BBX 18 18 0 -2
BITMAP
000000
010080
3FF880
244480
3FFC80
244480
2D5480
355480
245C80
228480
3EF480
228480
3EF480
238080
3EF880
448080
588380
000000
ENDCHAR

STARTCHAR jisx0212_3357
ENCODING 13143
SWIDTH 960 0
DWIDTH 18 0
BBX 18 18 0 -2
BITMAP
000000
3FF080
201080
3FF480
210480
2D6480
210480
2FE480
2AA480
2FE480
240480
2FF480
3A9480
2F9480
429080
5F5080
406380
000000
ENDCHAR

STARTCHAR jisx0212_3358
ENCODING 13144
SWIDTH 960 0
DWIDTH 18 0
BBX 18 18 0 -2
BITMAP
000000
081000
081000
081000
081000
7F9000
089000
089000
089000
089000
089000
109000
109000
109080
211080
211080
4E0F80
000000
ENDCHAR

STARTCHAR jisx0212_3359
ENCODING 13145
SWIDTH 960 0
DWIDTH 18 0
BBX 18 18 0 -2
BITMAP
000000
00C800
1F0800
100800
100800
103F80
1FC880
110880
110880
110880
110880
111080
111080
211080
212100
212100
414E00
000000
ENDCHAR

STARTCHAR jisx0212_335A
ENCODING 13146
SWIDTH 960 0
DWIDTH 18 0
BBX 18 18 0 -2
BITMAP
000000
040800
040800
040800
7FC800
003F80
000880
1F0880
110880
110880
110880
110880
115080
115080
21D100
202100
404E00
000000
ENDCHAR

STARTCHAR jisx0212_335B
ENCODING 13147
SWIDTH 960 0
DWIDTH 18 0
BBX 18 18 0 -2
BITMAP
000000
008000
008000
1FFE00
008200
010200
020200
0C0400
303800
040400
040400
3FBF80
088880
088880
109080
212100
464600
000000
ENDCHAR

STARTCHAR jisx0212_335C
ENCODING 13148
SWIDTH 960 0
DWIDTH 18 0
BBX 18 18 0 -2
BITMAP
000000
008800
070800
3C0800
040800
043F80
3F8880
040880
040880
040880
7FC880
041080
041080
041080
042100
044100
1C8E00
000000
ENDCHAR

STARTCHAR jisx0212_335D
ENCODING 13149
SWIDTH 960 0
DWIDTH 18 0
BBX 18 18 0 -2
BITMAP
000000
000800
7F8800
080800
080800
087F80
100880
1F0880
310880
310880
510880
111080
111080
111080
1F2100
104100
108E00
000000
ENDCHAR

STARTCHAR jisx0212_335E
ENCODING 13150
SWIDTH 960 0
DWIDTH 18 0
BBX 18 18 0 -2
BITMAP
000000
040800
040800
080800
3F8800
20BF80
208880
208880
208880
3F8880
208880
209080
209080
209080
3FA100
204100
208E00
000000
ENDCHAR

STARTCHAR jisx0212_335F
ENCODING 13151
SWIDTH 960 0
DWIDTH 18 0
BBX 18 18 0 -2
BITMAP
000000
00C800
3F0800
200800
200800
203F80
3FC880
200880
200880
2FC880
284880
284880
285080
285080
4FD100
482100
484E00
000000
ENDCHAR

STARTCHAR jisx0212_3360
ENCODING 13152
SWIDTH 960 0
DWIDTH 18 0
BBX 18 18 0 -2
BITMAP
000000
210800
110800
120800
7FC800
043F80
040880
040880
3F8880
040880
040880
05D080
7E1080
081080
082100
104100
208E00
000000
ENDCHAR

STARTCHAR jisx0212_3361
ENCODING 13153
SWIDTH 960 0
DWIDTH 18 0
BBX 18 18 0 -2
BITMAP
000000
040800
040800
040800
3F8800
043F80
040880
040880
7FC880
040880
040880
3F9080
041080
041080
07A100
7C4100
008E00
000000
ENDCHAR

STARTCHAR jisx0212_3362
ENCODING 13154
SWIDTH 960 0
DWIDTH 18 0
BBX 18 18 0 -2
BITMAP
000000
040800
080800
090800
108800
7FFF80
004880
140880
140880
3F8880
240880
441080
7FD080
041080
042100
044100
048E00
000000
ENDCHAR

STARTCHAR jisx0212_3363
ENCODING 13155
SWIDTH 960 0
DWIDTH 18 0
BBX 18 18 0 -2
BITMAP
000000
000800
3FE800
200800
200800
2FBF80
220880
220880
2F8880
220880
220880
3FD080
201080
201080
3FE100
202100
204E00
000000
ENDCHAR

STARTCHAR jisx0212_3364
ENCODING 13156
SWIDTH 960 0
DWIDTH 18 0
BBX 18 18 0 -2
BITMAP
000000
000100
3FD100
041100
0F9100
109100
291100
061100
040100
188700
208000
3FFF00
010100
010100
020100
0C0200
701C00
000000
ENDCHAR

STARTCHAR jisx0212_3365
ENCODING 13157
SWIDTH 960 0
DWIDTH 18 0
BBX 18 18 0 -2
BITMAP
000000
040800
040800
7FC800
040800
043F80
3F8880
208880
208880
3F8880
120880
121080
121080
12D080
232100
2C4100
408E00
000000
ENDCHAR

STARTCHAR jisx0212_3366
ENCODING 13158
SWIDTH 960 0
DWIDTH 18 0
BBX 18 18 0 -2
BITMAP
000000
080800
080800
1FC800
100800
203F80
5F8880
148880
128880
108880
7FE880
291080
251080
211080
7FA100
414100
068E00
000000
ENDCHAR

STARTCHAR jisx0212_3367
ENCODING 13159
SWIDTH 960 0
DWIDTH 18 0
BBX 18 18 0 -2
BITMAP
000000
040800
040800
3F8800
208800
20BF80
3F8880
208880
208880
3F8880
204880
249080
231080
211080
26A100
384100
608E00
000000
ENDCHAR

STARTCHAR jisx0212_3368
ENCODING 13160
SWIDTH 960 0
DWIDTH 18 0
BBX 18 18 0 -2
BITMAP
000000
000800
7F8800
108800
0B0800
043F80
3F8880
248880
248880
3F8880
248880
248880
3F9080
249080
249100
24A100
25AE00
000000
ENDCHAR

STARTCHAR jisx0212_3369
ENCODING 13161
SWIDTH 960 0
DWIDTH 18 0
BBX 18 18 0 -2
BITMAP
000000
040400
150400
148400
3FC400
491F80
090480
7FE480
108480
108480
3F4480
512880
110880
130880
101100
109100
0FA600
000000
ENDCHAR

STARTCHAR jisx0212_336A
ENCODING 13162
SWIDTH 960 0
DWIDTH 18 0
BBX 18 18 0 -2
BITMAP
000000
040800
040800
7FC800
000800
213F80
110880
120880
7FC880
000880
3F8880
209080
209080
209080
20A100
3FA100
204E00
000000
ENDCHAR

STARTCHAR jisx0212_336B
ENCODING 13163
SWIDTH 960 0
DWIDTH 18 0
BBX 18 18 0 -2
BITMAP
000000
040800
040800
040800
7FC800
043F80
248880
248880
248880
554880
554880
0E1080
0D1080
149080
242100
444100
048E00
000000
ENDCHAR

STARTCHAR jisx0212_336C
ENCODING 13164
SWIDTH 960 0
DWIDTH 18 0
BBX 18 18 0 -2
BITMAP
000000
000400
7FE400
040400
040400
081F80
3FC480
2A4480
2A4480
2E4480
2A4480
2A4880
2E4880
2A4880
2A5100
3FD100
202600
000000
ENDCHAR

STARTCHAR jisx0212_336D
ENCODING 13165
SWIDTH 960 0
DWIDTH 18 0
BBX 18 18 0 -2
BITMAP
000000
000400
7FC400
404400
5F4400
405F80
5F4480
404480
000480
3F8480
208480
3F8880
208880
3F8880
209100
3F9100
202600
000000
ENDCHAR

STARTCHAR jisx0212_336E
ENCODING 13166
SWIDTH 960 0
DWIDTH 18 0
BBX 18 18 0 -2
BITMAP
000000
000400
1F8400
108400
1F8400
001F80
3FC480
204480
3FC480
204480
3FC480
204880
204880
3FC880
091100
309100
402600
000000
ENDCHAR

STARTCHAR jisx0212_336F
ENCODING 13167
SWIDTH 960 0
DWIDTH 18 0
BBX 18 18 0 -2
BITMAP
000000
1F0400
010400
108400
244400
453F80
088480
3F4480
000480
7BC480
18C480
294880
4A4880
18C880
295100
4A6100
18C600
000000
ENDCHAR

STARTCHAR jisx0212_3370
ENCODING 13168
SWIDTH 960 0
DWIDTH 18 0
BBX 18 18 0 -2
BITMAP
000000
000800
7FC800
0A0800
3F8800
2ABF80
2A8880
3F8880
000880
3F8880
000880
7FD080
041080
151080
24A100
442100
1C4E00
000000
ENDCHAR

STARTCHAR jisx0212_3371
ENCODING 13169
SWIDTH 960 0
DWIDTH 18 0
BBX 18 18 0 -2
BITMAP
000000
001000
3E2200
02FF00
3E0880
207F00
7E4900
427F00
020A00
1CFF00
008080
008000
3FFF00
010100
020100
0C0200
701C00
000000
ENDCHAR

STARTCHAR jisx0212_3372
ENCODING 13170
SWIDTH 960 0
DWIDTH 18 0
BBX 18 18 0 -2
BITMAP
000000
080400
1F0400
110400
220400
7FDF80
244480
244480
3FC480
084480
148480
670880
1A8880
664880
1A5100
622100
0C4600
000000
ENDCHAR

STARTCHAR jisx0212_3373
ENCODING 13171
SWIDTH 960 0
DWIDTH 18 0
BBX 18 18 0 -2
BITMAP
000000
250800
250800
7FE800
250800
253F80
270880
200880
3FC880
208880
3F8880
208880
3F9080
209080
3F9100
112100
60AE00
000000
ENDCHAR

STARTCHAR jisx0212_3374
ENCODING 13172
SWIDTH 960 0
DWIDTH 18 0
BBX 18 18 0 -2
BITMAP
000000
018400
3E0400
080400
7FE400
109F80
3F4480
512480
1F0480
000480
7FC480
404880
5F4880
514880
5F5100
506100
41C600
000000
ENDCHAR

STARTCHAR jisx0212_3375
ENCODING 13173
SWIDTH 960 0
DWIDTH 18 0
BBX 18 18 0 -2
BITMAP
000000
040400
148400
244400
5FA400
091F80
7FE480
108480
244480
592480
0A0480
048880
7FC880
144880
151100
249100
442600
000000
ENDCHAR

STARTCHAR jisx0212_3376
ENCODING 13174
SWIDTH 960 0
DWIDTH 18 0
BBX 18 18 0 -2
BITMAP
000000
080000
083F80
7FA480
08A480
10BF80
10A480
272480
402480
223F80
220800
7F8400
2AA900
2AA880
2AA880
4CC900
550F00
000000
ENDCHAR

STARTCHAR jisx0212_3377
ENCODING 13175
SWIDTH 960 0
DWIDTH 18 0
BBX 18 18 0 -2
BITMAP
000000
110400
110400
7FC400
110400
3F9F80
248480
3F8480
248480
3F8480
040480
7FC880
444880
454880
5ED100
406100
41C600
000000
ENDCHAR

STARTCHAR jisx0212_3378
ENCODING 13176
SWIDTH 960 0
DWIDTH 18 0
BBX 18 18 0 -2
BITMAP
000000
040400
078400
040400
3FE400
245F80
3F0480
244480
2FC480
2A4480
2FC480
2A4880
2FC880
220880
455100
54B100
57A600
000000
ENDCHAR

STARTCHAR jisx0212_3379
ENCODING 13177
SWIDTH 960 0
DWIDTH 18 0
BBX 18 18 0 -2
BITMAP
000000
088400
17F400
212780
4FF900
100900
33F500
522500
13E200
122600
13E900
123080
008000
7FFF80
010080
060100
781E00
000000
ENDCHAR

STARTCHAR jisx0212_337A
ENCODING 13178
SWIDTH 960 0
DWIDTH 18 0
BBX 18 18 0 -2
BITMAP
000000
020400
7FE400
000400
39C400
295F80
39C480
090480
3FC480
090480
3FC480
090880
7FE880
1A4880
299100
4E9100
386600
000000
ENDCHAR

STARTCHAR jisx0212_337B
ENCODING 13179
SWIDTH 960 0
DWIDTH 18 0
BBX 18 18 0 -2
BITMAP
000000
040000
040000
0FFF00
080100
100100
100100
200100
5FF100
000100
000100
003100
03C100
3C0100
000200
000200
001C00
000000
ENDCHAR

STARTCHAR jisx0212_337C
ENCODING 13180
SWIDTH 960 0
DWIDTH 18 0
BBX 18 18 0 -2
BITMAP
000000
040000
040000
0FFF00
080100
104100
104100
204100
508100
10E100
111100
120900
140900
100100
1FFA00
100200
001C00
000000
ENDCHAR

STARTCHAR jisx0212_337D
ENCODING 13181
SWIDTH 960 0
DWIDTH 18 0
BBX 18 18 0 -2
BITMAP
000000
040000
040000
0FFF80
080080
108880
188880
249080
449080
3FFC80
008080
01C080
02B080
048880
188500
208100
008600
000000
ENDCHAR

STARTCHAR jisx0212_337E
ENCODING 13182
SWIDTH 960 0
DWIDTH 18 0
BBX 18 18 0 -2
BITMAP
000000
040000
040000
0FFF80
0A0080
120080
17F880
248080
488080
1FFC80
008080
088880
088880
088880
0FF900
080100
000E00
000000
ENDCHAR

STARTCHAR jisx0212_3421
ENCODING 13345
SWIDTH 960 0
DWIDTH 18 0
BBX 18 18 0 -2
BITMAP
000000
040000
040000
0FFF00
080100
118100
224100
442100
081100
37C900
400500
0FE100
082100
082100
082200
0FE200
080C00
000000
ENDCHAR

STARTCHAR jisx0212_3422
ENCODING 13346
SWIDTH 960 0
DWIDTH 18 0
BBX 18 18 0 -2
BITMAP
000000
080000
080000
1FFF80
120080
243C80
5F0480
110480
1F3C80
112080
1F2080
11BC80
170480
7B0480
050480
190900
673600
000000
ENDCHAR

STARTCHAR jisx0212_3423
ENCODING 13347
SWIDTH 960 0
DWIDTH 18 0
BBX 18 18 0 -2
BITMAP
000000
080000
080000
1FFF80
140080
287880
5F4880
114A80
1F4E80
118080
1F7C80
002480
132480
1C1880
101880
112500
0F4600
000000
ENDCHAR

STARTCHAR jisx0212_3424
ENCODING 13348
SWIDTH 960 0
DWIDTH 18 0
BBX 18 18 0 -2
BITMAP
000000
204900
204900
209200
212400
229200
244900
284900
301000
20FF80
208280
20B480
208880
229480
22A280
1EFF80
008080
000000
ENDCHAR

STARTCHAR jisx0212_3425
ENCODING 13349
SWIDTH 960 0
DWIDTH 18 0
BBX 18 18 0 -2
BITMAP
000000
000000
3FFF00
210000
210000
21F000
221000
222000
242000
245000
285000
208800
210800
220400
240200
3FFF80
200000
000000
ENDCHAR

STARTCHAR jisx0212_3426
ENCODING 13350
SWIDTH 960 0
DWIDTH 18 0
BBX 18 18 0 -2
BITMAP
000000
000000
3FFF00
204000
224000
225C00
23E400
2E4400
224400
225800
220200
220200
21FE00
200000
200000
3FFF80
200000
000000
ENDCHAR

STARTCHAR jisx0212_3427
ENCODING 13351
SWIDTH 960 0
DWIDTH 18 0
BBX 18 18 0 -2
BITMAP
000000
000000
3FFF00
200000
200000
27FC00
204000
204000
204000
204000
204000
204000
2FFE00
200000
200000
3FFF80
200000
000000
ENDCHAR

STARTCHAR jisx0212_3428
ENCODING 13352
SWIDTH 960 0
DWIDTH 18 0
BBX 18 18 0 -2
BITMAP
000000
000000
3FFF80
204000
204000
2FFF00
200000
21F000
211000
211000
211000
221100
221100
240F00
280000
3FFF80
200000
000000
ENDCHAR

STARTCHAR jisx0212_3429
ENCODING 13353
SWIDTH 960 0
DWIDTH 18 0
BBX 18 18 0 -2
BITMAP
000000
000000
3FFF80
204000
208800
210400
27FE00
200100
208800
208800
2FFF00
208800
208800
210800
220800
3FFF80
200000
000000
ENDCHAR

STARTCHAR jisx0212_342A
ENCODING 13354
SWIDTH 960 0
DWIDTH 18 0
BBX 18 18 0 -2
BITMAP
000000
000000
3FFF80
204000
204000
2FFF00
204000
224400
224400
254A00
24A900
28B100
211000
220C00
240200
3FFF80
200000
000000
ENDCHAR

STARTCHAR jisx0212_342B
ENCODING 13355
SWIDTH 960 0
DWIDTH 18 0
BBX 18 18 0 -2
BITMAP
000000
000000
3FFF80
200000
248400
248400
248400
27BF80
248400
208400
2F8400
248400
248400
249F00
288000
3FFF80
200000
000000
ENDCHAR

STARTCHAR jisx0212_342C
ENCODING 13356
SWIDTH 960 0
DWIDTH 18 0
BBX 18 18 0 -2
BITMAP
000000
000000
3FFF80
202000
222200
222200
23FE00
222200
200000
27FF00
202000
23FE00
202000
27FF00
200000
3FFF80
200000
000000
ENDCHAR

STARTCHAR jisx0212_342D
ENCODING 13357
SWIDTH 960 0
DWIDTH 18 0
BBX 18 18 0 -2
BITMAP
000000
000000
3FFF80
210000
23FE00
229200
249200
292200
224C00
27FE00
220200
23FE00
220200
23FE00
200000
3FFF80
200000
000000
ENDCHAR

STARTCHAR jisx0212_342E
ENCODING 13358
SWIDTH 960 0
DWIDTH 18 0
BBX 18 18 0 -2
BITMAP
000000
000000
3FFF80
200000
23F000
210800
26F600
380180
278900
249200
269200
25A400
26A400
259200
248900
3FFF80
200000
000000
ENDCHAR

STARTCHAR jisx0212_342F
ENCODING 13359
SWIDTH 960 0
DWIDTH 18 0
BBX 18 18 0 -2
BITMAP
000000
000000
3FFF80
221000
3FD000
221000
2FFE00
2A9200
2F9200
2A9200
2F9200
221280
3FE280
222380
224000
3FFF80
200000
000000
ENDCHAR

STARTCHAR jisx0212_3430
ENCODING 13360
SWIDTH 960 0
DWIDTH 18 0
BBX 18 18 0 -2
BITMAP
000000
000000
3FFF80
200000
27DF00
245100
27DF00
200000
23FE00
222200
23FE00
222200
2FFF80
202000
202000
3FFF80
200000
000000
ENDCHAR

STARTCHAR jisx0212_3431
ENCODING 13361
SWIDTH 960 0
DWIDTH 18 0
BBX 18 18 0 -2
BITMAP
000000
000000
3FFF80
204000
208000
2FFF80
210400
23FE00
2D0580
31FC00
200000
27DF00
245100
27DF00
200000
3FFF80
200000
000000
ENDCHAR

STARTCHAR jisx0212_3432
ENCODING 13362
SWIDTH 960 0
DWIDTH 18 0
BBX 18 18 0 -2
BITMAP
000000
000000
3FFF80
202000
27FF00
202000
27FF00
249100
27FF00
220200
23FE00
220200
23FE00
210600
260100
3FFF80
200000
000000
ENDCHAR

STARTCHAR jisx0212_3433
ENCODING 13363
SWIDTH 960 0
DWIDTH 18 0
BBX 18 18 0 -2
BITMAP
000000
000000
7FFF80
200000
206000
209000
210800
23FE00
2C0180
200000
23FC00
220400
220400
23FC00
220400
200000
1FFF80
000000
ENDCHAR

STARTCHAR jisx0212_3434
ENCODING 13364
SWIDTH 960 0
DWIDTH 18 0
BBX 18 18 0 -2
BITMAP
000000
000000
3FFF80
200000
23FC00
220400
23FC00
220400
23FC00
208000
2FFF00
210800
23D000
246C00
238200
3FFF80
200000
000000
ENDCHAR

STARTCHAR jisx0212_3435
ENCODING 13365
SWIDTH 960 0
DWIDTH 18 0
BBX 18 18 0 -2
BITMAP
000000
000000
7FFF80
200300
27FC00
240000
27FF00
240100
27FF00
240000
27FF00
2A4900
2BFF00
324900
224B00
200000
1FFF80
000000
ENDCHAR

STARTCHAR jisx0212_3436
ENCODING 13366
SWIDTH 960 0
DWIDTH 18 0
BBX 18 18 0 -2
BITMAP
000000
000000
7FFC00
000400
020400
020400
020400
020400
020400
7FF400
020400
020400
020280
020280
020280
020180
020080
000000
ENDCHAR

STARTCHAR jisx0212_3437
ENCODING 13367
SWIDTH 960 0
DWIDTH 18 0
BBX 18 18 0 -2
BITMAP
000000
092400
092400
092400
092400
092400
092400
7FFF80
092400
092400
092400
092400
092400
092400
092400
092400
092400
000000
ENDCHAR

STARTCHAR jisx0212_3438
ENCODING 13368
SWIDTH 960 0
DWIDTH 18 0
BBX 18 18 0 -2
BITMAP
000000
008000
008000
008000
3FFF00
008000
088400
088400
080400
7FFF80
080400
080400
080400
080400
080400
0FFC00
080400
000000
ENDCHAR

STARTCHAR jisx0212_3439
ENCODING 13369
SWIDTH 960 0
DWIDTH 18 0
BBX 18 18 0 -2
BITMAP
000000
108400
108400
7FE400
108400
1F8400
10BF80
1F8400
108400
108400
7FE400
250400
252400
29E400
300400
3FE400
200400
000000
ENDCHAR

STARTCHAR jisx0212_343A
ENCODING 13370
SWIDTH 960 0
DWIDTH 18 0
BBX 18 18 0 -2
BITMAP
000000
100200
21E400
480900
33F600
240480
7DEF80
100200
55EA80
552A80
55EA80
108200
008000
7FFF80
008000
008000
008000
000000
ENDCHAR

STARTCHAR jisx0212_343B
ENCODING 13371
SWIDTH 960 0
DWIDTH 18 0
BBX 18 18 0 -2
BITMAP
000000
008000
008000
008000
00FF00
008000
008000
008000
7FFF80
008000
00B000
008C00
008200
008100
008000
008000
008000
000000
ENDCHAR

STARTCHAR jisx0212_343C
ENCODING 13372
SWIDTH 960 0
DWIDTH 18 0
BBX 18 18 0 -2
BITMAP
000000
008000
008000
00FF80
008000
008000
3FFF00
200100
200100
3FC100
204100
204100
3FC100
200100
200100
3FFF00
200100
000000
ENDCHAR

STARTCHAR jisx0212_343D
ENCODING 13373
SWIDTH 960 0
DWIDTH 18 0
BBX 18 18 0 -2
BITMAP
000000
008000
00FF80
008000
008000
3FFF00
204100
208900
2C8900
231100
22D100
242100
285100
218900
220100
3FFF00
200100
000000
ENDCHAR

STARTCHAR jisx0212_343E
ENCODING 13374
SWIDTH 960 0
DWIDTH 18 0
BBX 18 18 0 -2
BITMAP
000000
018000
1E3F00
102100
102100
102100
102100
102100
102100
102100
102100
132100
1C2700
702000
002000
002000
002000
000000
ENDCHAR

STARTCHAR jisx0212_343F
ENCODING 13375
SWIDTH 960 0
DWIDTH 18 0
BBX 18 18 0 -2
BITMAP
000000
000000
7FBF00
082100
082100
082100
082100
082100
082100
082100
082100
09A100
0E2700
702000
002000
002000
002000
000000
ENDCHAR

STARTCHAR jisx0212_3440
ENCODING 13376
SWIDTH 960 0
DWIDTH 18 0
BBX 18 18 0 -2
BITMAP
000000
000000
7F9F80
089080
089080
089080
109080
109080
231080
401080
3F9080
209080
209380
209000
209000
3F9000
209000
000000
ENDCHAR

STARTCHAR jisx0212_3441
ENCODING 13377
SWIDTH 960 0
DWIDTH 18 0
BBX 18 18 0 -2
BITMAP
000000
040000
040000
081F00
3F9100
2A9100
2A9100
2A9100
2A9100
2A9100
2A9100
2A9100
2A9100
2AD700
2F1000
701000
001000
000000
ENDCHAR

STARTCHAR jisx0212_3442
ENCODING 13378
SWIDTH 960 0
DWIDTH 18 0
BBX 18 18 0 -2
BITMAP
000000
000000
7BDF00
4A5100
4A5100
7BD100
001100
3F9100
001100
7FD100
101100
101100
3F1700
211000
211000
011000
0E1000
000000
ENDCHAR

STARTCHAR jisx0212_3443
ENCODING 13379
SWIDTH 960 0
DWIDTH 18 0
BBX 18 18 0 -2
BITMAP
000000
020000
020000
07F000
041000
082000
1FFF80
280000
480000
080000
080000
080000
080000
100000
100000
200000
400000
000000
ENDCHAR

STARTCHAR jisx0212_3444
ENCODING 13380
SWIDTH 960 0
DWIDTH 18 0
BBX 18 18 0 -2
BITMAP
000000
000000
1FFF80
100000
100600
103800
13E000
102000
102000
103F80
1FE000
102000
102000
102000
202080
202080
401F80
000000
ENDCHAR

STARTCHAR jisx0212_3445
ENCODING 13381
SWIDTH 960 0
DWIDTH 18 0
BBX 18 18 0 -2
BITMAP
000000
000000
3FFF80
200000
200000
27FF00
202000
202000
202000
202000
2FFF80
202000
202000
202000
402000
402000
402000
000000
ENDCHAR

STARTCHAR jisx0212_3446
ENCODING 13382
SWIDTH 960 0
DWIDTH 18 0
BBX 18 18 0 -2
BITMAP
000000
000000
3FFF80
200000
200600
23F800
221000
221000
221000
23FF00
220800
220800
220800
22E400
5F0480
400280
4FF980
000000
ENDCHAR

STARTCHAR jisx0212_3447
ENCODING 13383
SWIDTH 960 0
DWIDTH 18 0
BBX 18 18 0 -2
BITMAP
000000
000000
3FFF80
200000
202000
202000
23FE00
202000
202000
27FF00
200000
202000
202000
23FE00
402000
402000
4FFF80
000000
ENDCHAR

STARTCHAR jisx0212_3448
ENCODING 13384
SWIDTH 960 0
DWIDTH 18 0
BBX 18 18 0 -2
BITMAP
000000
000000
3FFF80
200000
200000
27FF00
204000
208800
208400
213E00
27C100
202000
202000
27FF00
402000
402000
4FFF80
000000
ENDCHAR

STARTCHAR jisx0212_3449
ENCODING 13385
SWIDTH 960 0
DWIDTH 18 0
BBX 18 18 0 -2
BITMAP
000000
000000
3FFF80
202000
202000
2FFF80
202000
23FE00
222200
23FE00
222200
222200
23FE00
202000
4FFF80
402000
402000
000000
ENDCHAR

STARTCHAR jisx0212_344A
ENCODING 13386
SWIDTH 960 0
DWIDTH 18 0
BBX 18 18 0 -2
BITMAP
000000
000000
3FFF80
208800
208800
27FF00
208800
208800
2FFF80
200000
200000
23FE00
220200
23FE00
420200
43FE00
420200
000000
ENDCHAR

STARTCHAR jisx0212_344B
ENCODING 13387
SWIDTH 960 0
DWIDTH 18 0
BBX 18 18 0 -2
BITMAP
000000
000000
3FFF80
202000
204000
23FE00
220200
23FE00
220200
23FE00
202100
27B200
20B400
212800
462600
582180
40E000
000000
ENDCHAR

STARTCHAR jisx0212_344C
ENCODING 13388
SWIDTH 960 0
DWIDTH 18 0
BBX 18 18 0 -2
BITMAP
000000
000000
3FFF80
200000
20C300
2F3C00
220800
220800
2FBF80
221C00
271C00
26AA00
2A2A00
2A4900
528880
420800
420800
000000
ENDCHAR

STARTCHAR jisx0212_344D
ENCODING 13389
SWIDTH 960 0
DWIDTH 18 0
BBX 18 18 0 -2
BITMAP
000000
000000
3FFF80
210400
2FFF80
210400
21FC00
202000
27FF00
242100
27FF00
202000
27FF00
202000
47FE00
402000
5FFF80
000000
ENDCHAR

STARTCHAR jisx0212_344E
ENCODING 13390
SWIDTH 960 0
DWIDTH 18 0
BBX 18 18 0 -2
BITMAP
000000
000000
3FFF80
220800
220800
2F8800
221F80
3FD200
221200
3FF200
245200
240A00
278C00
248400
488A00
48B100
534080
000000
ENDCHAR

STARTCHAR jisx0212_344F
ENCODING 13391
SWIDTH 960 0
DWIDTH 18 0
BBX 18 18 0 -2
BITMAP
000000
000000
3FFF80
220800
220800
3FFF00
220800
271C00
2AAA00
324900
220800
208000
224400
222200
420900
420900
41F800
000000
ENDCHAR

STARTCHAR jisx0212_3450
ENCODING 13392
SWIDTH 960 0
DWIDTH 18 0
BBX 18 18 0 -2
BITMAP
000000
000000
3FFF80
208800
2FFF80
208800
23FE00
222200
23FE00
222200
23FE00
202000
2FFF80
282880
483C80
4BE280
480180
000000
ENDCHAR

STARTCHAR jisx0212_3451
ENCODING 13393
SWIDTH 960 0
DWIDTH 18 0
BBX 18 18 0 -2
BITMAP
000000
000000
3FFF80
248500
2FC480
287F80
2FC400
284A00
2FD100
286080
27FF00
242100
27FF00
242100
47FF00
402000
402000
000000
ENDCHAR

STARTCHAR jisx0212_3452
ENCODING 13394
SWIDTH 960 0
DWIDTH 18 0
BBX 18 18 0 -2
BITMAP
000000
0FFF00
082000
0BFE00
0A0200
0BFE00
08A800
112600
266100
000000
3FBF80
242400
2F2F00
292900
2F2F00
555480
555480
000000
ENDCHAR

STARTCHAR jisx0212_3453
ENCODING 13395
SWIDTH 960 0
DWIDTH 18 0
BBX 18 18 0 -2
BITMAP
000000
010000
010000
010000
7FFF80
020000
022000
022000
044000
044000
084000
088800
108400
110200
213E00
4FC100
000100
000000
ENDCHAR

STARTCHAR jisx0212_3454
ENCODING 13396
SWIDTH 960 0
DWIDTH 18 0
BBX 18 18 0 -2
BITMAP
000000
000000
040400
040400
040400
080800
080800
080800
080800
141400
121200
121200
212100
212100
2F2F80
717080
000080
000000
ENDCHAR

STARTCHAR jisx0212_3455
ENCODING 13397
SWIDTH 960 0
DWIDTH 18 0
BBX 18 18 0 -2
BITMAP
000000
010000
010000
010000
3FFF00
021000
040800
048800
088400
110200
210100
411080
020800
020400
04FC00
3F0200
000200
000000
ENDCHAR

STARTCHAR jisx0212_3456
ENCODING 13398
SWIDTH 960 0
DWIDTH 18 0
BBX 18 18 0 -2
BITMAP
000000
008000
010000
011000
020800
020400
047C00
3F8200
000200
080800
080800
101000
121200
212100
272700
78F880
008080
000000
ENDCHAR

STARTCHAR jisx0212_3457
ENCODING 13399
SWIDTH 960 0
DWIDTH 18 0
BBX 18 18 0 -2
BITMAP
000000
008000
008000
7FFF80
008000
1FFE00
108200
1FFE00
108200
108200
1FFE00
110000
020800
040400
08FE00
7F0100
000080
000000
ENDCHAR

STARTCHAR jisx0212_3458
ENCODING 13400
SWIDTH 960 0
DWIDTH 18 0
BBX 18 18 0 -2
BITMAP
000000
008000
011000
020800
1FF400
080200
108400
254900
7E3F80
041080
090C00
310300
494880
092400
111200
211100
070000
000000
ENDCHAR

STARTCHAR jisx0212_3459
ENCODING 13401
SWIDTH 960 0
DWIDTH 18 0
BBX 18 18 0 -2
BITMAP
000000
008000
008000
1FFC00
008400
008400
008400
7FFF80
008000
008000
1FFC00
040400
020800
011000
00E000
071C00
780380
000000
ENDCHAR

STARTCHAR jisx0212_345A
ENCODING 13402
SWIDTH 960 0
DWIDTH 18 0
BBX 18 18 0 -2
BITMAP
000000
000000
1FF800
040800
021000
012000
00C000
073800
380700
000000
7F7F00
212100
222200
141400
080800
363600
414180
000000
ENDCHAR

STARTCHAR jisx0212_345B
ENCODING 13403
SWIDTH 960 0
DWIDTH 18 0
BBX 18 18 0 -2
BITMAP
000000
008000
008000
7FFF80
008000
1FFE00
108200
108200
1FFE00
008000
1FFC00
040400
020800
011000
00E000
071C00
780380
000000
ENDCHAR

STARTCHAR jisx0212_345C
ENCODING 13404
SWIDTH 960 0
DWIDTH 18 0
BBX 18 18 0 -2
BITMAP
000000
000000
7F7F00
212100
222200
141400
080800
363600
414180
000000
7F7F00
212100
222200
141400
080800
363600
414180
000000
ENDCHAR

STARTCHAR jisx0212_345D
ENCODING 13405
SWIDTH 960 0
DWIDTH 18 0
BBX 18 18 0 -2
BITMAP
000000
000000
3F3F00
210100
210100
210100
3F3F00
200000
200000
3F7F00
202100
202100
201200
3F0C00
201400
206300
218080
000000
ENDCHAR

STARTCHAR jisx0212_345E
ENCODING 13406
SWIDTH 960 0
DWIDTH 18 0
BBX 18 18 0 -2
BITMAP
000000
080000
087F00
084100
3F4100
084100
084700
084000
7FFF00
085100
0A5100
124A00
114A00
2F8400
708A00
013100
024080
000000
ENDCHAR

STARTCHAR jisx0212_345F
ENCODING 13407
SWIDTH 960 0
DWIDTH 18 0
BBX 18 18 0 -2
BITMAP
000000
000000
3FBF00
209100
209100
3F9100
201100
201100
2F8A00
200A00
3FCA00
220400
2A8400
2A4A00
525200
522100
4E4080
000000
ENDCHAR

STARTCHAR jisx0212_3460
ENCODING 13408
SWIDTH 960 0
DWIDTH 18 0
BBX 18 18 0 -2
BITMAP
000000
0FFC00
000800
073000
01E000
7F3F00
111100
0E0E00
1A1900
616080
7FFF80
480480
4FFC80
080400
0FFC00
080400
7FFF80
000000
ENDCHAR

STARTCHAR jisx0212_3461
ENCODING 13409
SWIDTH 960 0
DWIDTH 18 0
BBX 18 18 0 -2
BITMAP
000000
000000
0FFE00
080200
080200
080200
080200
0FFE00
008000
008000
3FFF00
008100
010100
010100
020100
0C0200
703C00
000000
ENDCHAR

STARTCHAR jisx0212_3462
ENCODING 13410
SWIDTH 960 0
DWIDTH 18 0
BBX 18 18 0 -2
BITMAP
000000
000000
0FFE00
080200
080200
080200
080200
0FFE00
000000
000000
3FFF00
010100
010100
020100
040100
180200
603C00
000000
ENDCHAR

STARTCHAR jisx0212_3463
ENCODING 13411
SWIDTH 960 0
DWIDTH 18 0
BBX 18 18 0 -2
BITMAP
000000
000000
3FFF00
200000
200000
200000
21FC00
210400
210400
210400
210400
21FC00
210000
200000
200000
3FFF80
200000
000000
ENDCHAR

STARTCHAR jisx0212_3464
ENCODING 13412
SWIDTH 960 0
DWIDTH 18 0
BBX 18 18 0 -2
BITMAP
000000
008000
008000
3FFF00
200000
200000
200000
1FFF00
000000
000000
1FFE00
100200
100200
100200
100200
1FFE00
100200
000000
ENDCHAR

STARTCHAR jisx0212_3465
ENCODING 13413
SWIDTH 960 0
DWIDTH 18 0
BBX 18 18 0 -2
BITMAP
000000
000000
000000
7DFF80
441000
441000
441000
441000
441C00
441200
441100
7C1080
401000
401000
001000
001000
001000
000000
ENDCHAR

STARTCHAR jisx0212_3466
ENCODING 13414
SWIDTH 960 0
DWIDTH 18 0
BBX 18 18 0 -2
BITMAP
000000
000000
01FE00
782200
482200
482200
4BFF80
482200
482200
482200
49FE00
782200
402200
404000
004000
018000
060000
000000
ENDCHAR

STARTCHAR jisx0212_3467
ENCODING 13415
SWIDTH 960 0
DWIDTH 18 0
BBX 18 18 0 -2
BITMAP
000000
010800
010800
790800
490800
490880
490900
49EA00
490C00
490800
490800
490800
790800
410800
412880
01C880
0E0780
000000
ENDCHAR

STARTCHAR jisx0212_3468
ENCODING 13416
SWIDTH 960 0
DWIDTH 18 0
BBX 18 18 0 -2
BITMAP
000000
000000
01FF00
791100
491100
491100
491100
491100
491100
49FF00
490100
490000
790000
410080
410080
010080
00FF80
000000
ENDCHAR

STARTCHAR jisx0212_3469
ENCODING 13417
SWIDTH 960 0
DWIDTH 18 0
BBX 18 18 0 -2
BITMAP
000000
001000
001100
781E00
4BF000
481000
491100
491100
491100
491100
491100
49FF00
791000
411000
401080
001080
000F80
000000
ENDCHAR

STARTCHAR jisx0212_346A
ENCODING 13418
SWIDTH 960 0
DWIDTH 18 0
BBX 18 18 0 -2
BITMAP
000000
004800
004800
784800
488800
488880
488900
498A00
498C00
4A9800
4CA800
488800
788800
408800
408880
008880
008780
000000
ENDCHAR

STARTCHAR jisx0212_346B
ENCODING 13419
SWIDTH 960 0
DWIDTH 18 0
BBX 18 18 0 -2
BITMAP
000000
000700
1FF800
100000
100000
1FFF00
100100
100100
1FFF00
100000
100000
17FF00
140100
240100
240100
27FF00
440100
000000
ENDCHAR

STARTCHAR jisx0212_346C
ENCODING 13420
SWIDTH 960 0
DWIDTH 18 0
BBX 18 18 0 -2
BITMAP
000000
001000
001000
7C1000
45FF80
441000
441000
441000
45FF00
444100
444200
442200
7C2400
401800
402800
00C600
070180
000000
ENDCHAR

STARTCHAR jisx0212_346D
ENCODING 13421
SWIDTH 960 0
DWIDTH 18 0
BBX 18 18 0 -2
BITMAP
000000
000000
1FFE00
100200
100200
100200
1FFE00
000000
000000
3FFF00
008000
008000
7FFF80
014000
023000
0C0C00
700380
000000
ENDCHAR

STARTCHAR jisx0212_346E
ENCODING 13422
SWIDTH 960 0
DWIDTH 18 0
BBX 18 18 0 -2
BITMAP
000000
001000
001000
7C1000
449400
449200
449100
451100
451080
461280
441200
447400
7C0800
401000
406000
018000
060000
000000
ENDCHAR

STARTCHAR jisx0212_346F
ENCODING 13423
SWIDTH 960 0
DWIDTH 18 0
BBX 18 18 0 -2
BITMAP
000000
000000
01FF80
790000
490000
490000
493F00
492100
492100
492100
492100
492100
792700
422000
422080
042080
081F80
000000
ENDCHAR

STARTCHAR jisx0212_3470
ENCODING 13424
SWIDTH 960 0
DWIDTH 18 0
BBX 18 18 0 -2
BITMAP
000000
000000
3FF000
021000
023F00
042100
080100
308E00
408000
7FFF80
008000
008000
1FFE00
100200
100200
1FFE00
100200
000000
ENDCHAR

STARTCHAR jisx0212_3471
ENCODING 13425
SWIDTH 960 0
DWIDTH 18 0
BBX 18 18 0 -2
BITMAP
000000
008000
008200
3EC400
02C800
04B000
049000
088800
108600
638100
000000
1FFC00
100400
100400
100400
1FFC00
100400
000000
ENDCHAR

STARTCHAR jisx0212_3472
ENCODING 13426
SWIDTH 960 0
DWIDTH 18 0
BBX 18 18 0 -2
BITMAP
000000
000000
01FF00
7C0000
440000
440000
440000
47FF80
442000
442000
444000
444400
7C8200
408100
411F00
07E080
000080
000000
ENDCHAR

STARTCHAR jisx0212_3473
ENCODING 13427
SWIDTH 960 0
DWIDTH 18 0
BBX 18 18 0 -2
BITMAP
000000
001200
002200
78C200
4B4200
484200
484200
484200
4BFF80
484200
484200
484200
784200
408200
408200
010200
020200
000000
ENDCHAR

STARTCHAR jisx0212_3474
ENCODING 13428
SWIDTH 960 0
DWIDTH 18 0
BBX 18 18 0 -2
BITMAP
000000
000000
01FF80
7C0080
440080
45FC80
440080
440080
44F880
448880
448880
448880
7CF880
408080
400080
000080
000780
000000
ENDCHAR

STARTCHAR jisx0212_3475
ENCODING 13429
SWIDTH 960 0
DWIDTH 18 0
BBX 18 18 0 -2
BITMAP
000000
000000
01FF00
790100
490100
49FF00
490000
492000
492000
492100
492600
493800
792000
422000
422080
042080
081F80
000000
ENDCHAR

STARTCHAR jisx0212_3476
ENCODING 13430
SWIDTH 960 0
DWIDTH 18 0
BBX 18 18 0 -2
BITMAP
000000
001000
002800
7C4400
448200
450100
46FE80
440000
440000
45FF00
442100
442100
7C2100
402100
402700
002000
002000
000000
ENDCHAR

STARTCHAR jisx0212_3477
ENCODING 13431
SWIDTH 960 0
DWIDTH 18 0
BBX 18 18 0 -2
BITMAP
000000
004400
004400
788400
488400
4D2400
4A3F80
494480
494480
488480
488480
494880
792880
42E880
4F1100
002100
004E00
000000
ENDCHAR

STARTCHAR jisx0212_3478
ENCODING 13432
SWIDTH 960 0
DWIDTH 18 0
BBX 18 18 0 -2
BITMAP
000000
000100
000E00
79F800
490800
490800
490800
49FF80
490800
490800
490400
490400
793400
41C280
460280
000180
03FC80
000000
ENDCHAR

STARTCHAR jisx0212_3479
ENCODING 13433
SWIDTH 960 0
DWIDTH 18 0
BBX 18 18 0 -2
BITMAP
000000
000000
00FF00
7C0000
440000
440000
440000
45FF80
441000
441000
449200
449100
7D1100
411080
421080
041080
007000
000000
ENDCHAR

STARTCHAR jisx0212_347A
ENCODING 13434
SWIDTH 960 0
DWIDTH 18 0
BBX 18 18 0 -2
BITMAP
000000
001000
001000
7C1000
441F80
441000
441000
441000
441000
45FF00
450100
450100
7D0100
410100
410100
01FF00
010100
000000
ENDCHAR

STARTCHAR jisx0212_347B
ENCODING 13435
SWIDTH 960 0
DWIDTH 18 0
BBX 18 18 0 -2
BITMAP
000000
002400
012400
792400
492400
492400
4FFF80
492400
492400
492400
492400
493C00
790000
410000
410000
01FF00
010000
000000
ENDCHAR

STARTCHAR jisx0212_347C
ENCODING 13436
SWIDTH 960 0
DWIDTH 18 0
BBX 18 18 0 -2
BITMAP
000000
000000
01FF00
790100
490100
490100
490100
490100
490100
490100
49FF00
780000
404400
408200
010100
060080
080080
000000
ENDCHAR

STARTCHAR jisx0212_347D
ENCODING 13437
SWIDTH 960 0
DWIDTH 18 0
BBX 18 18 0 -2
BITMAP
000000
004000
004000
7CFF80
448080
450080
450080
46F880
448880
448880
448880
7C8880
40F880
408080
008100
000100
000E00
000000
ENDCHAR

STARTCHAR jisx0212_347E
ENCODING 13438
SWIDTH 960 0
DWIDTH 18 0
BBX 18 18 0 -2
BITMAP
000000
001000
001000
7C1000
45FF00
441000
441000
441000
47FF80
442000
442000
444400
7C4200
408100
409F00
07E080
000080
000000
ENDCHAR

STARTCHAR jisx0212_3521
ENCODING 13601
SWIDTH 960 0
DWIDTH 18 0
BBX 18 18 0 -2
BITMAP
000000
008200
008200
7C8200
47FF80
448200
448200
448200
448200
44FE00
448200
448200
7C8200
408200
408200
00FE00
008200
000000
ENDCHAR

STARTCHAR jisx0212_3522
ENCODING 13602
SWIDTH 960 0
DWIDTH 18 0
BBX 18 18 0 -2
BITMAP
000000
008800
00A800
78A800
492B00
492D00
493900
4B6900
4B2900
4D2900
492900
492B00
792800
412800
412080
012080
011F80
000000
ENDCHAR

STARTCHAR jisx0212_3523
ENCODING 13603
SWIDTH 960 0
DWIDTH 18 0
BBX 18 18 0 -2
BITMAP
000000
008000
008000
3FFF00
040800
040800
021000
021000
7FFF80
000000
000000
0FFC00
080400
080400
080400
0FFC00
080400
000000
ENDCHAR

STARTCHAR jisx0212_3524
ENCODING 13604
SWIDTH 960 0
DWIDTH 18 0
BBX 18 18 0 -2
BITMAP
000000
004800
004800
7BFF00
484900
484900
49FF00
494800
494800
4A4800
4BFF80
4A4880
784880
408880
408B00
010800
020800
000000
ENDCHAR

STARTCHAR jisx0212_3525
ENCODING 13605
SWIDTH 960 0
DWIDTH 18 0
BBX 18 18 0 -2
BITMAP
000000
001000
001000
781000
49FF00
491100
491100
491100
491100
491100
4FFF80
481000
781000
402800
404400
018300
060080
000000
ENDCHAR

STARTCHAR jisx0212_3526
ENCODING 13606
SWIDTH 960 0
DWIDTH 18 0
BBX 18 18 0 -2
BITMAP
000000
001000
001000
7C2000
442400
444200
444F00
47F080
440080
440000
44FF00
448100
7C8100
408100
408100
00FF00
008100
000000
ENDCHAR

STARTCHAR jisx0212_3527
ENCODING 13607
SWIDTH 960 0
DWIDTH 18 0
BBX 18 18 0 -2
BITMAP
000000
008000
008000
789F80
488200
4BF200
488200
488200
488200
48F200
4B8200
488200
788200
408200
408200
008200
038E00
000000
ENDCHAR

STARTCHAR jisx0212_3528
ENCODING 13608
SWIDTH 960 0
DWIDTH 18 0
BBX 18 18 0 -2
BITMAP
000000
001000
001000
7C1000
441000
47FF80
441000
441000
441000
441000
45FF00
450100
7D0100
410100
410100
01FF00
010100
000000
ENDCHAR

STARTCHAR jisx0212_3529
ENCODING 13609
SWIDTH 960 0
DWIDTH 18 0
BBX 18 18 0 -2
BITMAP
000000
010000
010000
010000
790780
4BE480
492480
492480
492480
492480
492480
492480
7A2480
422480
424780
044480
098400
000000
ENDCHAR

STARTCHAR jisx0212_352A
ENCODING 13610
SWIDTH 960 0
DWIDTH 18 0
BBX 18 18 0 -2
BITMAP
000000
001000
001000
7C1000
45FF80
450080
450080
454080
444000
444300
444C00
447000
7C4000
404000
404080
004080
003F80
000000
ENDCHAR

STARTCHAR jisx0212_352B
ENCODING 13611
SWIDTH 960 0
DWIDTH 18 0
BBX 18 18 0 -2
BITMAP
000000
000000
01FF80
7C1000
441000
442000
44FF00
448100
448100
448100
44FF00
448100
7C8100
408100
408100
00FF00
008100
000000
ENDCHAR

STARTCHAR jisx0212_352C
ENCODING 13612
SWIDTH 960 0
DWIDTH 18 0
BBX 18 18 0 -2
BITMAP
000000
000000
03FF80
7C8200
448200
448200
44FE00
448200
448200
44FE00
448200
448200
7C8780
40FA00
478200
000200
000200
000000
ENDCHAR

STARTCHAR jisx0212_352D
ENCODING 13613
SWIDTH 960 0
DWIDTH 18 0
BBX 18 18 0 -2
BITMAP
000000
002000
002000
7BFF00
482000
482000
4BFE00
482200
49FE00
492000
4A2000
4BFF00
782100
405700
408800
030600
0C0180
000000
ENDCHAR

STARTCHAR jisx0212_352E
ENCODING 13614
SWIDTH 960 0
DWIDTH 18 0
BBX 18 18 0 -2
BITMAP
000000
000100
03F100
788100
488900
488900
49E900
492900
492900
4B2900
4AC900
4C4900
788900
408100
410100
020100
040700
000000
ENDCHAR

STARTCHAR jisx0212_352F
ENCODING 13615
SWIDTH 960 0
DWIDTH 18 0
BBX 18 18 0 -2
BITMAP
000000
008200
004200
7C4400
45FF80
441000
441000
441000
44FF00
441000
441000
7C1000
43FF80
401000
001000
001000
001000
000000
ENDCHAR

STARTCHAR jisx0212_3530
ENCODING 13616
SWIDTH 960 0
DWIDTH 18 0
BBX 18 18 0 -2
BITMAP
000000
001000
001000
791100
491100
489200
489200
481000
4BFF80
483800
485400
485400
789200
411200
421100
041080
001000
000000
ENDCHAR

STARTCHAR jisx0212_3531
ENCODING 13617
SWIDTH 960 0
DWIDTH 18 0
BBX 18 18 0 -2
BITMAP
000000
001000
001000
781000
4BFF80
481000
481000
481000
49FF00
480000
480000
49FF00
790100
410100
410100
01FF00
010100
000000
ENDCHAR

STARTCHAR jisx0212_3532
ENCODING 13618
SWIDTH 960 0
DWIDTH 18 0
BBX 18 18 0 -2
BITMAP
000000
001000
009000
789000
49FF00
491000
4A1000
481000
4BFF80
483800
485400
485400
789200
411100
421080
041000
001000
000000
ENDCHAR

STARTCHAR jisx0212_3533
ENCODING 13619
SWIDTH 960 0
DWIDTH 18 0
BBX 18 18 0 -2
BITMAP
000000
001000
002000
7CFF00
448100
448100
448100
44FF00
448100
448100
448100
44FF00
7C8100
408100
408100
00FF00
008100
000000
ENDCHAR

STARTCHAR jisx0212_3534
ENCODING 13620
SWIDTH 960 0
DWIDTH 18 0
BBX 18 18 0 -2
BITMAP
000000
004800
004800
7A4880
4A4900
494A00
494C00
494800
484800
484C00
49CA00
4E4900
788880
408800
410880
020880
040780
000000
ENDCHAR

STARTCHAR jisx0212_3535
ENCODING 13621
SWIDTH 960 0
DWIDTH 18 0
BBX 18 18 0 -2
BITMAP
000000
001000
001000
781000
4BFF80
4A0080
4A2080
482000
4BFF80
484400
484400
788400
40E800
411800
001600
006100
038080
000000
ENDCHAR

STARTCHAR jisx0212_3536
ENCODING 13622
SWIDTH 960 0
DWIDTH 18 0
BBX 18 18 0 -2
BITMAP
000000
000000
01FF80
7C0000
440000
44FF00
448100
448100
448100
44FF00
448100
448100
7C8100
40FF00
400000
000000
03FF80
000000
ENDCHAR

STARTCHAR jisx0212_3537
ENCODING 13623
SWIDTH 960 0
DWIDTH 18 0
BBX 18 18 0 -2
BITMAP
000000
008800
008800
788800
490800
497F80
490800
4B1C00
4B1C00
4D2A00
492A00
494900
794900
418880
410800
010800
010800
000000
ENDCHAR

STARTCHAR jisx0212_3538
ENCODING 13624
SWIDTH 960 0
DWIDTH 18 0
BBX 18 18 0 -2
BITMAP
000000
008000
008000
78FE00
491200
491200
49FF80
4B1200
4B1200
4D1200
497E00
491200
791000
411000
412000
012000
014000
000000
ENDCHAR

STARTCHAR jisx0212_3539
ENCODING 13625
SWIDTH 960 0
DWIDTH 18 0
BBX 18 18 0 -2
BITMAP
000000
001000
002000
787E00
488200
4B4400
482800
483000
48C400
4B0F80
481080
486100
799200
400C00
401800
006000
038000
000000
ENDCHAR

STARTCHAR jisx0212_353A
ENCODING 13626
SWIDTH 960 0
DWIDTH 18 0
BBX 18 18 0 -2
BITMAP
000000
001000
001000
7DFF80
442000
444000
447F00
44C100
44C100
457F00
444100
444100
7C7F00
404100
404100
004100
004700
000000
ENDCHAR

STARTCHAR jisx0212_353B
ENCODING 13627
SWIDTH 960 0
DWIDTH 18 0
BBX 18 18 0 -2
BITMAP
000000
001000
001000
782000
49FF80
490080
490080
493C80
492480
492480
492480
792480
413C80
412080
010080
010080
010380
000000
ENDCHAR

STARTCHAR jisx0212_353C
ENCODING 13628
SWIDTH 960 0
DWIDTH 18 0
BBX 18 18 0 -2
BITMAP
000000
004400
004400
7BFF80
484400
484400
480000
488200
488200
494400
494400
4A2800
781000
402800
404400
018300
060080
000000
ENDCHAR

STARTCHAR jisx0212_353D
ENCODING 13629
SWIDTH 960 0
DWIDTH 18 0
BBX 18 18 0 -2
BITMAP
000000
000800
004800
7C4800
447F00
448800
448800
440800
45FF80
440800
440000
44FF00
7C8100
408100
408100
00FF00
008100
000000
ENDCHAR

STARTCHAR jisx0212_353E
ENCODING 13630
SWIDTH 960 0
DWIDTH 18 0
BBX 18 18 0 -2
BITMAP
000000
000000
07EF80
792880
492900
492900
4FFA00
492A00
492900
492900
4FF880
492880
792880
422880
422B00
044800
098800
000000
ENDCHAR

STARTCHAR jisx0212_353F
ENCODING 13631
SWIDTH 960 0
DWIDTH 18 0
BBX 18 18 0 -2
BITMAP
000000
008000
008000
78FF80
490100
490100
490100
4B3900
4B2900
4D2900
492900
492900
793900
412100
410100
010100
010700
000000
ENDCHAR

STARTCHAR jisx0212_3540
ENCODING 13632
SWIDTH 960 0
DWIDTH 18 0
BBX 18 18 0 -2
BITMAP
000000
000000
00FF00
7C8100
448100
44FF00
448100
448100
44FF00
448100
448100
44FF00
7C2400
402400
404480
018480
060780
000000
ENDCHAR

STARTCHAR jisx0212_3541
ENCODING 13633
SWIDTH 960 0
DWIDTH 18 0
BBX 18 18 0 -2
BITMAP
000000
004400
004400
7BC780
484400
484400
480000
49FF00
481000
481000
481000
4BFF80
781000
401000
401000
001000
001000
000000
ENDCHAR

STARTCHAR jisx0212_3542
ENCODING 13634
SWIDTH 960 0
DWIDTH 18 0
BBX 18 18 0 -2
BITMAP
000000
001000
001000
7BFF80
480000
49FF00
490100
490100
49FF00
480000
4BFF80
480300
781C00
401000
401000
001000
007000
000000
ENDCHAR

STARTCHAR jisx0212_3543
ENCODING 13635
SWIDTH 960 0
DWIDTH 18 0
BBX 18 18 0 -2
BITMAP
000000
000000
007C00
780400
488400
490200
4BFF00
4D0280
490200
490200
49FE00
484800
784800
404800
408880
030880
0C0780
000000
ENDCHAR

STARTCHAR jisx0212_3544
ENCODING 13636
SWIDTH 960 0
DWIDTH 18 0
BBX 18 18 0 -2
BITMAP
000000
080000
083F00
7F2100
092100
112100
112100
263F00
400000
7FFF80
000200
0FC200
084200
084200
0FC200
080200
001E00
000000
ENDCHAR

STARTCHAR jisx0212_3545
ENCODING 13637
SWIDTH 960 0
DWIDTH 18 0
BBX 18 18 0 -2
BITMAP
000000
000300
01FC00
781000
481000
4BFF80
483800
485400
499300
4A0080
49FE00
482200
782400
404780
408880
010080
020700
000000
ENDCHAR

STARTCHAR jisx0212_3546
ENCODING 13638
SWIDTH 960 0
DWIDTH 18 0
BBX 18 18 0 -2
BITMAP
000000
000000
00FF00
7C0000
440000
47FF80
440000
44FF00
440000
44FF00
440000
440000
7CFF00
408100
408100
00FF00
008100
000000
ENDCHAR

STARTCHAR jisx0212_3547
ENCODING 13639
SWIDTH 960 0
DWIDTH 18 0
BBX 18 18 0 -2
BITMAP
000000
003000
004800
788400
490200
4AFD00
4C0080
49FE00
480200
480400
480800
49FF00
790100
410100
410100
01FF00
010100
000000
ENDCHAR

STARTCHAR jisx0212_3548
ENCODING 13640
SWIDTH 960 0
DWIDTH 18 0
BBX 18 18 0 -2
BITMAP
000000
000000
00FF00
7C8100
448100
44FF00
440000
45FF80
451080
451080
451080
45FF80
7D0000
410000
410080
010080
00FF80
000000
ENDCHAR

STARTCHAR jisx0212_3549
ENCODING 13641
SWIDTH 960 0
DWIDTH 18 0
BBX 18 18 0 -2
BITMAP
000000
002000
004000
784400
488200
4BFD00
488080
488000
49FF00
491000
4A1000
4BFF80
781000
402800
404400
018300
0E0080
000000
ENDCHAR

STARTCHAR jisx0212_354A
ENCODING 13642
SWIDTH 960 0
DWIDTH 18 0
BBX 18 18 0 -2
BITMAP
000000
000000
03C180
785E00
488400
488400
491400
49D780
4A5400
485400
4A5400
7A5400
455400
448F80
018000
026000
0C1F80
000000
ENDCHAR

STARTCHAR jisx0212_354B
ENCODING 13643
SWIDTH 960 0
DWIDTH 18 0
BBX 18 18 0 -2
BITMAP
000000
001000
001000
7BFF80
4A0080
4A0080
49FF00
480000
480000
4BFF80
484400
484400
784400
404400
408480
010480
060380
000000
ENDCHAR

STARTCHAR jisx0212_354C
ENCODING 13644
SWIDTH 960 0
DWIDTH 18 0
BBX 18 18 0 -2
BITMAP
000000
003080
03C080
788480
488480
488480
4BF480
488480
488480
49C480
49A480
7A9480
429480
448480
088080
008080
008380
000000
ENDCHAR

STARTCHAR jisx0212_354D
ENCODING 13645
SWIDTH 960 0
DWIDTH 18 0
BBX 18 18 0 -2
BITMAP
000000
001000
002000
79FF00
490100
490100
49FF00
490100
490100
49FF00
481000
481000
7BFF80
401000
401000
001000
001000
000000
ENDCHAR

STARTCHAR jisx0212_354E
ENCODING 13646
SWIDTH 960 0
DWIDTH 18 0
BBX 18 18 0 -2
BITMAP
000000
002000
002000
7BFF00
482000
49FF00
484800
4FFF80
488400
489200
491100
4AFE80
7C1000
41FF00
401000
001000
001000
000000
ENDCHAR

STARTCHAR jisx0212_354F
ENCODING 13647
SWIDTH 960 0
DWIDTH 18 0
BBX 18 18 0 -2
BITMAP
000000
001000
002800
004400
7C8200
450100
46FE80
441000
441000
45FF00
441000
451100
449100
7C9200
409400
401000
03FF80
000000
ENDCHAR

STARTCHAR jisx0212_3550
ENCODING 13648
SWIDTH 960 0
DWIDTH 18 0
BBX 18 18 0 -2
BITMAP
000000
001000
006000
798F00
490100
490100
49EF00
490100
490100
490100
49FF00
484800
784800
404800
408880
010880
060780
000000
ENDCHAR

STARTCHAR jisx0212_3551
ENCODING 13649
SWIDTH 960 0
DWIDTH 18 0
BBX 18 18 0 -2
BITMAP
000000
004000
004000
7BFF80
488800
488400
492200
4A2100
4DFE80
492200
49FE00
492200
792200
41FE00
402080
002080
001F80
000000
ENDCHAR

STARTCHAR jisx0212_3552
ENCODING 13650
SWIDTH 960 0
DWIDTH 18 0
BBX 18 18 0 -2
BITMAP
000000
004200
004200
7DFF80
444200
444200
444200
47FF80
440000
44FF00
448100
448100
7CFF00
408100
408100
00FF00
008100
000000
ENDCHAR

STARTCHAR jisx0212_3553
ENCODING 13651
SWIDTH 960 0
DWIDTH 18 0
BBX 18 18 0 -2
BITMAP
000000
001000
001000
7BFF80
481000
489200
489200
489200
495500
495500
4A3800
483400
785400
409200
431100
0C1080
001000
000000
ENDCHAR

STARTCHAR jisx0212_3554
ENCODING 13652
SWIDTH 960 0
DWIDTH 18 0
BBX 18 18 0 -2
BITMAP
000000
001000
001000
79FF80
488400
484400
484800
4BFF80
482000
484000
4BFF80
484400
788400
40E800
411C00
006300
038080
000000
ENDCHAR

STARTCHAR jisx0212_3555
ENCODING 13653
SWIDTH 960 0
DWIDTH 18 0
BBX 18 18 0 -2
BITMAP
000000
008180
008E00
788800
488800
4BE800
488F80
488900
49C900
49C900
49A900
4AA900
7A8900
448900
409100
009100
00A100
000000
ENDCHAR

STARTCHAR jisx0212_3556
ENCODING 13654
SWIDTH 960 0
DWIDTH 18 0
BBX 18 18 0 -2
BITMAP
000000
000000
01FF80
790080
491080
497C80
491080
491080
497C80
491080
490080
497C80
794480
424480
427C80
044080
080380
000000
ENDCHAR

STARTCHAR jisx0212_3557
ENCODING 13655
SWIDTH 960 0
DWIDTH 18 0
BBX 18 18 0 -2
BITMAP
000000
008000
008000
7FFF80
040800
021000
3FFF00
208100
208100
2FFD00
208100
27F900
240900
240900
27F900
240100
200700
000000
ENDCHAR

STARTCHAR jisx0212_3558
ENCODING 13656
SWIDTH 960 0
DWIDTH 18 0
BBX 18 18 0 -2
BITMAP
000000
008400
008400
788400
488400
4BFF80
488400
488E00
49CE00
49AE00
499500
4A9500
7AA480
44A480
40C400
008400
008400
000000
ENDCHAR

STARTCHAR jisx0212_3559
ENCODING 13657
SWIDTH 960 0
DWIDTH 18 0
BBX 18 18 0 -2
BITMAP
000000
000000
03FF80
7A4100
4A8100
4A8100
4B1D00
4A9500
4A9500
4A5500
4A5500
4A5D00
7A5100
438100
420100
020100
020700
000000
ENDCHAR

STARTCHAR jisx0212_355A
ENCODING 13658
SWIDTH 960 0
DWIDTH 18 0
BBX 18 18 0 -2
BITMAP
000000
001000
001000
7BFF80
480000
49FF00
490100
49FF00
480000
49FF00
480600
481800
781000
43FF80
401000
001000
007000
000000
ENDCHAR

STARTCHAR jisx0212_355B
ENCODING 13659
SWIDTH 960 0
DWIDTH 18 0
BBX 18 18 0 -2
BITMAP
000000
001000
001000
7BFF00
480000
488400
488400
498C00
494A00
4A3100
4C2100
481000
7BFF80
401000
401000
001000
001000
000000
ENDCHAR

STARTCHAR jisx0212_355C
ENCODING 13660
SWIDTH 960 0
DWIDTH 18 0
BBX 18 18 0 -2
BITMAP
000000
002000
002000
7BFF80
482000
49FE00
482200
4BFF80
482200
482200
49FE00
482000
792000
413F00
432000
04A000
087F80
000000
ENDCHAR

STARTCHAR jisx0212_355D
ENCODING 13661
SWIDTH 960 0
DWIDTH 18 0
BBX 18 18 0 -2
BITMAP
000000
001000
001000
7BFF80
4A0080
4A8080
488F00
48E900
492900
492900
492900
4AA900
7C4B00
404800
408880
010880
020780
000000
ENDCHAR

STARTCHAR jisx0212_355E
ENCODING 13662
SWIDTH 960 0
DWIDTH 18 0
BBX 18 18 0 -2
BITMAP
000000
000000
1FFC00
100400
100400
1FFC00
008000
7FFF00
000000
3FFE00
200200
27F200
241200
27F200
200200
3FFE00
200200
000000
ENDCHAR

STARTCHAR jisx0212_355F
ENCODING 13663
SWIDTH 960 0
DWIDTH 18 0
BBX 18 18 0 -2
BITMAP
000000
002000
002000
7BFF80
482000
49FE00
482200
4FFF80
482200
49FE00
484000
4BFF80
788400
41E800
421400
006300
078080
000000
ENDCHAR

STARTCHAR jisx0212_3560
ENCODING 13664
SWIDTH 960 0
DWIDTH 18 0
BBX 18 18 0 -2
BITMAP
000000
000000
07FF80
784800
484800
484800
4BCF00
4A4900
4A0100
4A0100
4A0100
4BCF00
7A4900
404800
404800
004800
07FF80
000000
ENDCHAR

STARTCHAR jisx0212_3561
ENCODING 13665
SWIDTH 960 0
DWIDTH 18 0
BBX 18 18 0 -2
BITMAP
000000
018300
1E3C00
102000
102000
1FBF80
122200
122200
224200
224200
408000
0FFE00
080200
080200
080200
0FFE00
080200
000000
ENDCHAR

STARTCHAR jisx0212_3562
ENCODING 13666
SWIDTH 960 0
DWIDTH 18 0
BBX 18 18 0 -2
BITMAP
000000
004800
004800
784800
4BCF80
484800
484800
484800
4BCF00
484800
484800
786800
43CF80
4C8800
008800
010800
020800
000000
ENDCHAR

STARTCHAR jisx0212_3563
ENCODING 13667
SWIDTH 960 0
DWIDTH 18 0
BBX 18 18 0 -2
BITMAP
000000
002000
004000
79FF00
491100
491100
49FF00
491100
491100
49FF00
482800
484800
788800
47FF80
400800
000800
000800
000000
ENDCHAR

STARTCHAR jisx0212_3564
ENCODING 13668
SWIDTH 960 0
DWIDTH 18 0
BBX 18 18 0 -2
BITMAP
000000
010400
010400
790400
493F80
4FC000
492100
492100
491100
49D100
4F1200
491200
791200
411200
411400
010400
077F80
000000
ENDCHAR

STARTCHAR jisx0212_3565
ENCODING 13669
SWIDTH 960 0
DWIDTH 18 0
BBX 18 18 0 -2
BITMAP
000000
008400
008400
7BFF80
488400
48FC00
488400
48FC00
488400
4FFF80
492800
492900
794900
418F00
410000
01FF80
010000
000000
ENDCHAR

STARTCHAR jisx0212_3566
ENCODING 13670
SWIDTH 960 0
DWIDTH 18 0
BBX 18 18 0 -2
BITMAP
000000
000000
01FF00
791100
491100
49FF00
491100
491100
49FF00
481000
4BFF80
4A1480
7A1280
421E80
42E180
020080
020380
000000
ENDCHAR

STARTCHAR jisx0212_3567
ENCODING 13671
SWIDTH 960 0
DWIDTH 18 0
BBX 18 18 0 -2
BITMAP
000000
000000
01FF00
791100
491100
49FF00
491100
491100
49FF00
480000
4BFF80
489100
789200
408C00
408400
00F300
070080
000000
ENDCHAR

STARTCHAR jisx0212_3568
ENCODING 13672
SWIDTH 960 0
DWIDTH 18 0
BBX 18 18 0 -2
BITMAP
000000
080800
080800
080800
7F7F80
080800
080800
080800
7F3F00
000000
000000
3F3F00
212100
212100
212100
3F3F00
212100
000000
ENDCHAR

STARTCHAR jisx0212_3569
ENCODING 13673
SWIDTH 960 0
DWIDTH 18 0
BBX 18 18 0 -2
BITMAP
000000
010800
010880
79EB00
490C00
490880
496880
4B9780
482000
49FF00
490100
490100
79FF00
410100
410100
01FF00
010100
000000
ENDCHAR

STARTCHAR jisx0212_356A
ENCODING 13674
SWIDTH 960 0
DWIDTH 18 0
BBX 18 18 0 -2
BITMAP
000000
000000
00FE00
788200
488200
489E00
489200
489200
4BFF80
4A0080
4A0080
4A7C80
7A4480
424480
427C80
024080
020380
000000
ENDCHAR

STARTCHAR jisx0212_356B
ENCODING 13675
SWIDTH 960 0
DWIDTH 18 0
BBX 18 18 0 -2
BITMAP
000000
004400
004400
7BFF80
484400
484400
482000
482000
4BFF80
484000
488000
48FF00
798100
428100
448100
00FF00
008100
000000
ENDCHAR

STARTCHAR jisx0212_356C
ENCODING 13676
SWIDTH 960 0
DWIDTH 18 0
BBX 18 18 0 -2
BITMAP
000000
002000
002000
7BFF00
490400
488400
488800
4FFF80
480000
49FE00
490200
490200
79FE00
410200
410200
01FE00
010200
000000
ENDCHAR

STARTCHAR jisx0212_356D
ENCODING 13677
SWIDTH 960 0
DWIDTH 18 0
BBX 18 18 0 -2
BITMAP
000000
008400
008400
78E400
492780
492400
4AC400
484400
48B000
490F80
4A0000
49FF00
790100
41FF00
410100
01FF00
010100
000000
ENDCHAR

STARTCHAR jisx0212_356E
ENCODING 13678
SWIDTH 960 0
DWIDTH 18 0
BBX 18 18 0 -2
BITMAP
000000
000000
03FF80
782800
482800
49FF00
492900
492900
493900
494100
484000
4BFF80
788400
41F400
410C00
003300
07C080
000000
ENDCHAR

STARTCHAR jisx0212_356F
ENCODING 13679
SWIDTH 960 0
DWIDTH 18 0
BBX 18 18 0 -2
BITMAP
000000
000000
03FF00
7A0100
4A0100
4BFF00
4A0000
4BFF80
4A2400
4A2200
4A4D00
4BF100
7A1000
44FF00
441000
081000
13FF80
000000
ENDCHAR

STARTCHAR jisx0212_3570
ENCODING 13680
SWIDTH 960 0
DWIDTH 18 0
BBX 18 18 0 -2
BITMAP
000000
000000
03FF80
7A1080
4A1080
49FF00
481000
49FF00
491100
49FF00
491100
49FF00
781000
401000
47FF80
001000
001000
000000
ENDCHAR

STARTCHAR jisx0212_3571
ENCODING 13681
SWIDTH 960 0
DWIDTH 18 0
BBX 18 18 0 -2
BITMAP
000000
004000
3E4000
227F00
228100
22F900
234900
224900
224900
3E7900
204200
200C00
000000
122200
111100
211080
411080
000000
ENDCHAR

STARTCHAR jisx0212_3572
ENCODING 13682
SWIDTH 960 0
DWIDTH 18 0
BBX 18 18 0 -2
BITMAP
000000
001000
002000
79FF00
490100
49FF00
490100
490100
49FF00
480000
4BFF80
481000
781000
41FF00
401000
001000
07FF80
000000
ENDCHAR

STARTCHAR jisx0212_3573
ENCODING 13683
SWIDTH 960 0
DWIDTH 18 0
BBX 18 18 0 -2
BITMAP
000000
001000
001000
7BFF80
486400
481800
486400
498200
4BFF80
4A0400
4A1900
4AE200
7A0C00
42F080
440300
041C00
09E000
000000
ENDCHAR

STARTCHAR jisx0212_3574
ENCODING 13684
SWIDTH 960 0
DWIDTH 18 0
BBX 18 18 0 -2
BITMAP
000000
010800
010800
7A4800
4C5F80
4A9080
492080
490080
4A4080
4FBE80
490080
794080
454080
452080
092100
090100
010E00
000000
ENDCHAR

STARTCHAR jisx0212_3575
ENCODING 13685
SWIDTH 960 0
DWIDTH 18 0
BBX 18 18 0 -2
BITMAP
000000
000000
07F800
040800
040800
07F800
000000
3F3F00
212100
212100
3F3F00
008000
7FFF80
02A000
049800
188600
608180
000000
ENDCHAR

STARTCHAR jisx0212_3576
ENCODING 13686
SWIDTH 960 0
DWIDTH 18 0
BBX 18 18 0 -2
BITMAP
000000
000300
03FC00
7A1000
4A1F00
4A1000
4AFF00
4A9100
4A9E00
4AF100
4A9F00
4A8000
7A9400
449400
451480
092480
124380
000000
ENDCHAR

STARTCHAR jisx0212_3577
ENCODING 13687
SWIDTH 960 0
DWIDTH 18 0
BBX 18 18 0 -2
BITMAP
000000
001000
001000
7BFF80
480000
48FE00
488200
48FE00
480000
4BFF80
4A0080
4A7C80
7A4480
424480
427C80
024080
020380
000000
ENDCHAR

STARTCHAR jisx0212_3578
ENCODING 13688
SWIDTH 960 0
DWIDTH 18 0
BBX 18 18 0 -2
BITMAP
000000
003000
004800
788400
497A00
4A0100
4DFE80
490200
49FE00
490200
49FE00
490000
79FF00
428100
428100
04FF00
088100
000000
ENDCHAR

STARTCHAR jisx0212_3579
ENCODING 13689
SWIDTH 960 0
DWIDTH 18 0
BBX 18 18 0 -2
BITMAP
000000
001000
001000
7BFF80
481000
49FF00
481000
4BFF80
482400
48C800
485200
482100
7BFE80
401080
409200
011100
061080
000000
ENDCHAR

STARTCHAR jisx0212_357A
ENCODING 13690
SWIDTH 960 0
DWIDTH 18 0
BBX 18 18 0 -2
BITMAP
000000
002000
01FF00
784100
4B8E00
488200
4BEF80
492480
492480
4ACB00
4DFF00
490100
79FF00
410100
41FF00
010100
010700
000000
ENDCHAR

STARTCHAR jisx0212_357B
ENCODING 13691
SWIDTH 960 0
DWIDTH 18 0
BBX 18 18 0 -2
BITMAP
000000
000000
003C00
008400
788200
497D00
4A0080
483C00
488400
488400
490200
4BFF00
7D5280
415200
415200
015200
07FF80
000000
ENDCHAR

STARTCHAR jisx0212_357C
ENCODING 13692
SWIDTH 960 0
DWIDTH 18 0
BBX 18 18 0 -2
BITMAP
000000
000000
01FF80
791000
491000
49FF00
491000
49FF00
491000
491000
49FF80
480080
795480
415480
425480
024100
040600
000000
ENDCHAR

STARTCHAR jisx0212_357D
ENCODING 13693
SWIDTH 960 0
DWIDTH 18 0
BBX 18 18 0 -2
BITMAP
000000
001000
001000
79FF00
481000
481000
4BFF80
482400
484200
4BFD00
480080
480000
79FF00
412900
412900
012900
07FF80
000000
ENDCHAR

STARTCHAR jisx0212_357E
ENCODING 13694
SWIDTH 960 0
DWIDTH 18 0
BBX 18 18 0 -2
BITMAP
000000
008400
008400
7BFF00
488400
488400
483000
484800
488400
497A00
4A0100
4C0080
79FE00
410200
410200
01FE00
010200
000000
ENDCHAR

STARTCHAR jisx0212_3621
ENCODING 13857
SWIDTH 960 0
DWIDTH 18 0
BBX 18 18 0 -2
BITMAP
000000
000000
01FF00
784600
483800
486400
498200
4BFF80
492900
48C600
492900
4A1080
7BFF80
403800
405400
019300
061080
000000
ENDCHAR

STARTCHAR jisx0212_3622
ENCODING 13858
SWIDTH 960 0
DWIDTH 18 0
BBX 18 18 0 -2
BITMAP
000000
000000
00FE00
788200
489E00
489200
489200
4BFF80
4A0080
4AFE80
488200
48FE00
788200
40FE00
408200
008200
008E00
000000
ENDCHAR

STARTCHAR jisx0212_3623
ENCODING 13859
SWIDTH 960 0
DWIDTH 18 0
BBX 18 18 0 -2
BITMAP
000000
000700
01FC00
791200
490900
4A2880
4D4400
488800
485200
482100
4BFE80
481000
7BFF80
402800
404400
018300
060080
000000
ENDCHAR

STARTCHAR jisx0212_3624
ENCODING 13860
SWIDTH 960 0
DWIDTH 18 0
BBX 18 18 0 -2
BITMAP
000000
001100
006600
79D800
484800
4BFF80
484800
49FF00
484900
4BFF80
484900
49FF00
78CC00
414A00
424900
044880
084800
000000
ENDCHAR

STARTCHAR jisx0212_3625
ENCODING 13861
SWIDTH 960 0
DWIDTH 18 0
BBX 18 18 0 -2
BITMAP
000000
008400
008400
7BFF80
488400
488400
488200
490400
492480
4E5900
4A4900
498600
790400
414500
424900
0FBE80
002080
000000
ENDCHAR

STARTCHAR jisx0212_3626
ENCODING 13862
SWIDTH 960 0
DWIDTH 18 0
BBX 18 18 0 -2
BITMAP
000000
000000
01FE00
791200
491200
492A00
494600
498200
49FE00
480000
4BFF00
4A4900
7A4900
424900
424900
024900
0FFF80
000000
ENDCHAR

STARTCHAR jisx0212_3627
ENCODING 13863
SWIDTH 960 0
DWIDTH 18 0
BBX 18 18 0 -2
BITMAP
000000
002000
00A400
792200
4A2100
4DFE80
490200
490200
49FE00
490200
49FE00
490200
790200
41FE00
408400
030300
0C0080
000000
ENDCHAR

STARTCHAR jisx0212_3628
ENCODING 13864
SWIDTH 960 0
DWIDTH 18 0
BBX 18 18 0 -2
BITMAP
000000
000000
01FF00
791100
49FF00
491100
49FF00
489200
489200
4BFF80
489200
489200
7BFF80
401000
41FF00
001000
001000
000000
ENDCHAR

STARTCHAR jisx0212_3629
ENCODING 13865
SWIDTH 960 0
DWIDTH 18 0
BBX 18 18 0 -2
BITMAP
000000
003000
004800
788400
4B7B00
4C0080
49FE00
480400
49FE00
490200
49FE00
490200
79FE00
410200
41FE00
018600
0E0180
000000
ENDCHAR

STARTCHAR jisx0212_362A
ENCODING 13866
SWIDTH 960 0
DWIDTH 18 0
BBX 18 18 0 -2
BITMAP
000000
008000
011F80
7BE200
4A2A00
4BEA00
4A2A00
4A2A00
4BEF80
480A00
4A2600
4AC600
7B0A00
422A00
43F280
002280
004380
000000
ENDCHAR

STARTCHAR jisx0212_362B
ENCODING 13867
SWIDTH 960 0
DWIDTH 18 0
BBX 18 18 0 -2
BITMAP
000000
002800
002800
7BFF80
482800
49FF00
492900
49FF00
492900
49FF00
480000
48FE00
788200
40FE00
408200
00FE00
008200
000000
ENDCHAR

STARTCHAR jisx0212_362C
ENCODING 13868
SWIDTH 960 0
DWIDTH 18 0
BBX 18 18 0 -2
BITMAP
000000
001000
011100
791100
49FF00
480000
4BFF80
4A0800
4A7F00
4A0800
4A0800
4AFF80
7A0800
427F00
440800
040800
09FF80
000000
ENDCHAR

STARTCHAR jisx0212_362D
ENCODING 13869
SWIDTH 960 0
DWIDTH 18 0
BBX 18 18 0 -2
BITMAP
000000
001000
01FF00
791100
4BFF80
491100
49FF00
481000
49FF00
491100
49FF00
484000
7BFF80
408400
41E800
003600
07C180
000000
ENDCHAR

STARTCHAR jisx0212_362E
ENCODING 13870
SWIDTH 960 0
DWIDTH 18 0
BBX 18 18 0 -2
BITMAP
000000
000000
03FF80
782000
49FF00
490100
49FF00
490100
49FF00
490100
49FF00
482200
783F80
43D400
400880
007680
078180
000000
ENDCHAR

STARTCHAR jisx0212_362F
ENCODING 13871
SWIDTH 960 0
DWIDTH 18 0
BBX 18 18 0 -2
BITMAP
000000
100000
11EF00
112100
112100
7F2100
11EF00
110000
110000
3DDF00
250900
250900
25EA00
250400
250A00
3D1100
212080
000000
ENDCHAR

STARTCHAR jisx0212_3630
ENCODING 13872
SWIDTH 960 0
DWIDTH 18 0
BBX 18 18 0 -2
BITMAP
000000
000000
03EF00
78A500
492900
4A7300
48A500
492900
4A7100
488800
4B1600
4C6180
7B8C00
403100
43C600
003800
03C000
000000
ENDCHAR

STARTCHAR jisx0212_3631
ENCODING 13873
SWIDTH 960 0
DWIDTH 18 0
BBX 18 18 0 -2
BITMAP
000000
002000
003F00
782000
4BFF80
4A2080
4A3C00
4AE100
4A3F00
4A0600
4AF900
4A4900
7A2A00
42FF80
440800
040800
083800
000000
ENDCHAR

STARTCHAR jisx0212_3632
ENCODING 13874
SWIDTH 960 0
DWIDTH 18 0
BBX 18 18 0 -2
BITMAP
000000
008200
008200
7BEF80
488200
4BEF80
488200
48EF80
4B8200
488200
480000
4BFF00
780100
43FF80
400100
03FF00
000100
000000
ENDCHAR

STARTCHAR jisx0212_3633
ENCODING 13875
SWIDTH 960 0
DWIDTH 18 0
BBX 18 18 0 -2
BITMAP
000000
000800
020800
797F00
4C4900
4A7E00
485200
495200
494C00
4A9200
4D6180
484000
7BFF80
408400
41E800
003600
07C100
000000
ENDCHAR

STARTCHAR jisx0212_3634
ENCODING 13876
SWIDTH 960 0
DWIDTH 18 0
BBX 18 18 0 -2
BITMAP
000000
000000
01FE00
790200
49FE00
490200
49FE00
480000
4FFF80
4A4000
4BFF00
4A4900
7BCA00
424400
43CA00
0E5100
006080
000000
ENDCHAR

STARTCHAR jisx0212_3635
ENCODING 13877
SWIDTH 960 0
DWIDTH 18 0
BBX 18 18 0 -2
BITMAP
000000
001000
009100
7D1A00
4A5480
499300
491200
4A5480
4FFF80
481200
4BFF80
4A1000
7B1100
428A00
448C80
043280
08C180
000000
ENDCHAR

STARTCHAR jisx0212_3636
ENCODING 13878
SWIDTH 960 0
DWIDTH 18 0
BBX 18 18 0 -2
BITMAP
000000
001000
01FF00
791100
49FF00
481000
4BFF80
480000
49FF00
490100
49FF00
490100
79FF00
410100
41FF00
00C600
070180
000000
ENDCHAR

STARTCHAR jisx0212_3637
ENCODING 13879
SWIDTH 960 0
DWIDTH 18 0
BBX 18 18 0 -2
BITMAP
000000
001000
001000
79FF00
481000
4BFF80
488200
4BEF80
488200
4BFF80
480000
4BFF80
784800
404800
408880
010880
060780
000000
ENDCHAR

STARTCHAR jisx0212_3638
ENCODING 13880
SWIDTH 960 0
DWIDTH 18 0
BBX 18 18 0 -2
BITMAP
000000
001000
002000
79FF00
490100
49FF00
490100
49FF00
481000
4BD780
481000
4BD780
781000
43FF80
401000
001000
001000
000000
ENDCHAR

STARTCHAR jisx0212_3639
ENCODING 13881
SWIDTH 960 0
DWIDTH 18 0
BBX 18 18 0 -2
BITMAP
000000
001000
001000
7BFF80
482800
494500
488200
49FF00
4A8280
48FE00
488200
48FE00
781000
409200
431100
0C1080
007000
000000
ENDCHAR

STARTCHAR jisx0212_363A
ENCODING 13882
SWIDTH 960 0
DWIDTH 18 0
BBX 18 18 0 -2
BITMAP
000000
001000
001000
7BFF80
481000
49FF00
480000
49FF00
490100
49FF00
484400
4BFF80
780000
41FF00
410100
01FF00
010100
000000
ENDCHAR

STARTCHAR jisx0212_363B
ENCODING 13883
SWIDTH 960 0
DWIDTH 18 0
BBX 18 18 0 -2
BITMAP
000000
000000
3F3F00
212100
3F3F00
000000
1FFE00
108200
1FFE00
108200
1FFE00
000000
7FFF80
000000
1FFE00
100200
1FFE00
000000
ENDCHAR

STARTCHAR jisx0212_363C
ENCODING 13884
SWIDTH 960 0
DWIDTH 18 0
BBX 18 18 0 -2
BITMAP
000000
000000
03EF80
7A2880
4A2880
4BEF80
480000
49FF00
491100
49FF00
491100
49FF00
781000
47FF80
401000
001000
001000
000000
ENDCHAR

STARTCHAR jisx0212_363D
ENCODING 13885
SWIDTH 960 0
DWIDTH 18 0
BBX 18 18 0 -2
BITMAP
000000
000000
01FF00
791100
499500
495900
491100
49FF00
491000
481000
49FF00
481000
7BFF80
400000
414900
022480
042480
000000
ENDCHAR

STARTCHAR jisx0212_363E
ENCODING 13886
SWIDTH 960 0
DWIDTH 18 0
BBX 18 18 0 -2
BITMAP
000000
000000
03CF00
7A4900
4BCF00
4A0800
4A2880
4BEF80
484400
484400
4BFF80
484400
784400
47FF80
408400
030300
0C0080
000000
ENDCHAR

STARTCHAR jisx0212_363F
ENCODING 13887
SWIDTH 960 0
DWIDTH 18 0
BBX 18 18 0 -2
BITMAP
000000
000000
03FF80
782800
482800
49EF00
492900
490100
49EF00
492900
482800
4BFF80
781000
424900
424080
024480
043C00
000000
ENDCHAR

STARTCHAR jisx0212_3640
ENCODING 13888
SWIDTH 960 0
DWIDTH 18 0
BBX 18 18 0 -2
BITMAP
000000
000300
03FC00
791200
489200
489400
4BFF80
483800
485400
499300
4A0080
49FF00
791100
41FF00
411100
01FF00
010100
000000
ENDCHAR

STARTCHAR jisx0212_3641
ENCODING 13889
SWIDTH 960 0
DWIDTH 18 0
BBX 18 18 0 -2
BITMAP
000000
008000
00EF80
7B8480
48E480
4B8480
48E880
4B8B00
48A400
494800
489200
486100
7BFE80
401000
409200
011100
061080
000000
ENDCHAR

STARTCHAR jisx0212_3642
ENCODING 13890
SWIDTH 960 0
DWIDTH 18 0
BBX 18 18 0 -2
BITMAP
000000
004200
01EF80
794A00
494A00
4BFF80
48C600
494A80
496A80
4AD380
480000
49FF00
790100
41FF00
410100
01FF00
010100
000000
ENDCHAR

STARTCHAR jisx0212_3643
ENCODING 13891
SWIDTH 960 0
DWIDTH 18 0
BBX 18 18 0 -2
BITMAP
000000
000400
03E400
788400
488800
4FFF80
4A4900
4A4900
4BD900
4A5900
4A6900
4BCA00
7A4600
424400
43CA00
0E5100
006080
000000
ENDCHAR

STARTCHAR jisx0212_3644
ENCODING 13892
SWIDTH 960 0
DWIDTH 18 0
BBX 18 18 0 -2
BITMAP
000000
008400
008400
7FF400
480800
4BEF80
4A2900
4BE900
481900
4BE900
484900
488A00
78E600
478400
408A00
009100
03A080
000000
ENDCHAR

STARTCHAR jisx0212_3645
ENCODING 13893
SWIDTH 960 0
DWIDTH 18 0
BBX 18 18 0 -2
BITMAP
000000
004400
008800
78FF80
498800
4A8800
4CFF00
488800
48FF00
488800
488800
48FF80
780000
414A00
414900
022480
042480
000000
ENDCHAR

STARTCHAR jisx0212_3646
ENCODING 13894
SWIDTH 960 0
DWIDTH 18 0
BBX 18 18 0 -2
BITMAP
000000
003000
004800
788400
4B7B00
4C0080
49FE00
490200
49FE00
480000
4BDF00
494500
7A4900
44D300
414500
024900
04D300
000000
ENDCHAR

STARTCHAR jisx0212_3647
ENCODING 13895
SWIDTH 960 0
DWIDTH 18 0
BBX 18 18 0 -2
BITMAP
000000
001000
03C900
784A00
4C8480
4A8500
490200
4AFD00
4C0080
49FE00
490200
490200
79FE00
408400
404400
004800
07FF80
000000
ENDCHAR

STARTCHAR jisx0212_3648
ENCODING 13896
SWIDTH 960 0
DWIDTH 18 0
BBX 18 18 0 -2
BITMAP
000000
001000
002800
784400
488200
497D00
4A0080
480000
49EF00
492900
492900
49EF00
788400
408400
414A00
023100
042080
000000
ENDCHAR

STARTCHAR jisx0212_3649
ENCODING 13897
SWIDTH 960 0
DWIDTH 18 0
BBX 18 18 0 -2
BITMAP
000000
000800
020800
797F00
480800
48FF80
4A2200
491400
48FF80
480800
4F7F00
490800
79FF80
410800
410800
028000
047F80
000000
ENDCHAR

STARTCHAR jisx0212_364A
ENCODING 13898
SWIDTH 960 0
DWIDTH 18 0
BBX 18 18 0 -2
BITMAP
000000
004000
00FC00
790800
4BFF80
492900
494F00
498000
497F00
490000
49FF80
490000
797F00
420000
427F00
044100
087F00
000000
ENDCHAR

STARTCHAR jisx0212_364B
ENCODING 13899
SWIDTH 960 0
DWIDTH 18 0
BBX 18 18 0 -2
BITMAP
000000
001000
002000
79FF00
490D00
497100
495500
49FF00
493900
495500
498100
481000
7BFF80
401000
402800
00C600
070180
000000
ENDCHAR

STARTCHAR jisx0212_364C
ENCODING 13900
SWIDTH 960 0
DWIDTH 18 0
BBX 18 18 0 -2
BITMAP
000000
000000
01FF00
792900
492900
49FF00
484000
48FF80
492080
4A2080
4DFC80
492480
79FC80
402880
403C80
03C480
000300
000000
ENDCHAR

STARTCHAR jisx0212_364D
ENCODING 13901
SWIDTH 960 0
DWIDTH 18 0
BBX 18 18 0 -2
BITMAP
000000
001000
009000
789F00
489000
4BFF80
480A00
4BFF80
4A0800
4A0800
4BF900
4A4900
7ADA00
455680
466680
08C980
131080
000000
ENDCHAR

STARTCHAR jisx0212_364E
ENCODING 13902
SWIDTH 960 0
DWIDTH 18 0
BBX 18 18 0 -2
BITMAP
000000
000000
7FFF80
008000
3C9E00
249200
249200
3C9E00
008000
3FFF00
008000
3C9E00
249200
249200
3C9E00
008000
7FFF80
000000
ENDCHAR

STARTCHAR jisx0212_364F
ENCODING 13903
SWIDTH 960 0
DWIDTH 18 0
BBX 18 18 0 -2
BITMAP
000000
008400
010400
7BE400
4A2800
4BEF80
4A2900
4BE900
489900
48A900
4FE900
490A00
79E600
422400
422A00
045100
09A080
000000
ENDCHAR

STARTCHAR jisx0212_3650
ENCODING 13904
SWIDTH 960 0
DWIDTH 18 0
BBX 18 18 0 -2
BITMAP
000000
000300
03FC00
792100
489200
4BFF80
4A2080
4A5280
494500
4A7C00
482000
487E00
78C200
432400
441800
00E600
070180
000000
ENDCHAR

STARTCHAR jisx0212_3651
ENCODING 13905
SWIDTH 960 0
DWIDTH 18 0
BBX 18 18 0 -2
BITMAP
000000
002000
003F00
782000
4BFF00
4A2100
4AFC00
4A2100
4BFF80
4A0800
4A3100
4ACA00
7A3400
42CE00
453500
04C480
0B3800
000000
ENDCHAR

STARTCHAR jisx0212_3652
ENCODING 13906
SWIDTH 960 0
DWIDTH 18 0
BBX 18 18 0 -2
BITMAP
000000
003000
004800
788400
490200
4AFD00
4C0080
4BFF00
4B2500
4AA900
4BFF00
480000
79FE00
410200
41FE00
010200
01FE00
000000
ENDCHAR

STARTCHAR jisx0212_3653
ENCODING 13907
SWIDTH 960 0
DWIDTH 18 0
BBX 18 18 0 -2
BITMAP
000000
108400
084800
23FF80
102000
01FF00
390100
09FF00
090100
09FF00
150100
23FF80
400000
1FFF00
100100
100100
1FFF00
000000
ENDCHAR

STARTCHAR jisx0212_3654
ENCODING 13908
SWIDTH 960 0
DWIDTH 18 0
BBX 18 18 0 -2
BITMAP
000000
004400
03FF80
784400
488800
49FF80
4A8800
4CFF00
488800
48FF00
488800
48FF80
780000
41FF00
404200
003C00
07C380
000000
ENDCHAR

STARTCHAR jisx0212_3655
ENCODING 13909
SWIDTH 960 0
DWIDTH 18 0
BBX 18 18 0 -2
BITMAP
000000
000000
01FF80
781000
4BFF80
4A1080
4AD680
481000
49D700
480000
4BFF80
482000
7BFF80
424880
424880
024880
024B80
000000
ENDCHAR

STARTCHAR jisx0212_3656
ENCODING 13910
SWIDTH 960 0
DWIDTH 18 0
BBX 18 18 0 -2
BITMAP
000000
000000
03FF80
7A0000
4AF200
4A9300
4AF280
4A9F80
4AF200
4A0200
4AF200
4A9200
7AF500
429500
44F500
049880
08B080
000000
ENDCHAR

STARTCHAR jisx0212_3657
ENCODING 13911
SWIDTH 960 0
DWIDTH 18 0
BBX 18 18 0 -2
BITMAP
000000
002000
03FF00
782000
49FE00
480000
4BFF80
480080
49FC80
482000
4BFF00
480200
7FBF80
44A200
449200
078200
040E00
000000
ENDCHAR

STARTCHAR jisx0212_3658
ENCODING 13912
SWIDTH 960 0
DWIDTH 18 0
BBX 18 18 0 -2
BITMAP
000000
002000
002000
7BFF80
485100
4FAE00
4AAA00
4AA900
4DBE80
482000
490200
49FE00
790200
41FE00
410200
020200
040200
000000
ENDCHAR

STARTCHAR jisx0212_3659
ENCODING 13913
SWIDTH 960 0
DWIDTH 18 0
BBX 18 18 0 -2
BITMAP
000000
008000
00FC00
790800
4BFF00
4D1100
49FF00
491100
49FF00
494900
4A2480
4DFF00
790100
41FF00
410100
01FF00
010100
000000
ENDCHAR

STARTCHAR jisx0212_365A
ENCODING 13914
SWIDTH 960 0
DWIDTH 18 0
BBX 18 18 0 -2
BITMAP
000000
001000
009000
789F00
489000
4FFF80
484400
4A4500
4AAB00
4B1100
4BFF00
4A4500
7A4500
42AB00
431100
03FF00
020100
000000
ENDCHAR

STARTCHAR jisx0212_365B
ENCODING 13915
SWIDTH 960 0
DWIDTH 18 0
BBX 18 18 0 -2
BITMAP
000000
000000
3F3F00
212100
3F3F00
000000
3FFF80
208000
3FFE00
200200
3FFE00
208000
3FFF80
000000
3F3F00
212100
3F3F00
000000
ENDCHAR

STARTCHAR jisx0212_365C
ENCODING 13916
SWIDTH 960 0
DWIDTH 18 0
BBX 18 18 0 -2
BITMAP
000000
001000
001000
7BFF80
4A4200
4BFF80
4A4200
4A7E00
4A0000
4BFF80
4A9100
4AFF00
7A9100
42FF00
440000
046700
098080
000000
ENDCHAR

STARTCHAR jisx0212_365D
ENCODING 13917
SWIDTH 960 0
DWIDTH 18 0
BBX 18 18 0 -2
BITMAP
000000
008000
7FFF00
008000
3FFE00
000000
1FFC00
100400
1FFC00
080800
7F7F80
080800
7F3F00
000000
7E3F00
422100
7E3F00
000000
ENDCHAR

STARTCHAR jisx0212_365E
ENCODING 13918
SWIDTH 960 0
DWIDTH 18 0
BBX 18 18 0 -2
BITMAP
000000
002400
03C400
788F80
4BEA80
489280
49C480
4AA880
4C8300
487000
488800
7B2600
4CA980
407000
01AC00
062300
00E080
000000
ENDCHAR

STARTCHAR jisx0212_365F
ENCODING 13919
SWIDTH 960 0
DWIDTH 18 0
BBX 18 18 0 -2
BITMAP
000000
000000
03FF80
7A0000
4A3300
4BCC00
4A4400
4BFF80
4A4400
4AEE00
4B5500
7A4400
421000
429F00
049000
049000
0BFF80
000000
ENDCHAR

STARTCHAR jisx0212_3660
ENCODING 13920
SWIDTH 960 0
DWIDTH 18 0
BBX 18 18 0 -2
BITMAP
000000
002000
003E00
782000
4BFF80
4A2080
4A3D00
4BE100
4A3F00
4A0000
4AFE00
7A9200
42FE00
449200
05FF00
092900
13FF80
000000
ENDCHAR

STARTCHAR jisx0212_3661
ENCODING 13921
SWIDTH 960 0
DWIDTH 18 0
BBX 18 18 0 -2
BITMAP
000000
008800
008800
7BEF80
4A2800
492F80
494080
4FFF80
480800
4BEF80
4A2800
7BEF80
422800
43EF80
022800
022880
02E780
000000
ENDCHAR

STARTCHAR jisx0212_3662
ENCODING 13922
SWIDTH 960 0
DWIDTH 18 0
BBX 18 18 0 -2
BITMAP
000000
008500
010480
7A3F80
4C4400
4ABF80
492480
493F80
4AA480
4FE580
490100
7BBF80
435100
454900
054900
090100
010700
000000
ENDCHAR

STARTCHAR jisx0212_3663
ENCODING 13923
SWIDTH 960 0
DWIDTH 18 0
BBX 18 18 0 -2
BITMAP
000000
010000
011F00
7FF100
4A5100
4A5F00
4A9100
4FF100
491F00
491100
4FF100
791F00
438A00
434A00
051280
092280
014380
000000
ENDCHAR

STARTCHAR jisx0212_3664
ENCODING 13924
SWIDTH 960 0
DWIDTH 18 0
BBX 18 18 0 -2
BITMAP
000000
008000
00BF80
7A8400
4AE800
4A9F00
4A9100
4FF100
481F00
491100
4B3F00
7D5100
455100
4B9F00
010A00
061100
182080
000000
ENDCHAR

STARTCHAR jisx0212_3665
ENCODING 13925
SWIDTH 960 0
DWIDTH 18 0
BBX 18 18 0 -2
BITMAP
000000
080000
087F80
7F8400
080800
3F0A00
001900
3F2880
214880
3F0800
120000
7FBF00
002100
3F2100
212100
3F3F00
212100
000000
ENDCHAR

STARTCHAR jisx0212_3666
ENCODING 13926
SWIDTH 960 0
DWIDTH 18 0
BBX 18 18 0 -2
BITMAP
000000
008400
00E600
708500
57F480
549400
57EF80
549400
54F480
540480
57F500
752500
45E200
482280
094580
116980
279080
000000
ENDCHAR

ENDFONT
